SplineFontDB: 3.2
FontName: xkcdScript_hun
FullName: xkcd-Script-Regular HUN
FamilyName: xkcd Script
Weight: Book
Copyright: Copyright (c) ipython/xkcd-font contributors, Creative Commons Attribution-NonCommercial 3.0 License
Version: 1.0
ItalicAngle: 0
UnderlinePosition: -153
UnderlineWidth: 51
Ascent: 600
Descent: 256
InvalidEm: 0
sfntRevision: 0x00010000
LayerCount: 2
Layer: 0 1 "Back" 1
Layer: 1 1 "Fore" 0
XUID: [1021 861 1336096926 13916606]
StyleMap: 0x0000
FSType: 0
OS2Version: 1
OS2_WeightWidthSlopeOnly: 0
OS2_UseTypoMetrics: 0
CreationTime: 946684800
ModificationTime: 1694939349
PfmFamily: 65
TTFWeight: 400
TTFWidth: 5
LineGap: 77
VLineGap: 0
Panose: 3 0 5 3 0 0 0 0 0 0
OS2TypoAscent: 600
OS2TypoAOffset: 0
OS2TypoDescent: -256
OS2TypoDOffset: 0
OS2TypoLinegap: 77
OS2WinAscent: 855
OS2WinAOffset: 0
OS2WinDescent: 270
OS2WinDOffset: 0
HheadAscent: 855
HheadAOffset: 0
HheadDescent: -270
HheadDOffset: 0
OS2SubXSize: 556
OS2SubYSize: 599
OS2SubXOff: 0
OS2SubYOff: 119
OS2SupXSize: 556
OS2SupYSize: 599
OS2SupXOff: 0
OS2SupYOff: 410
OS2StrikeYSize: 42
OS2StrikeYPos: 221
OS2Vendor: 'PfEd'
OS2CodePages: 00000001.00000000
OS2UnicodeRanges: 80000087.02000040.00000000.00000000
MarkAttachClasses: 1
DEI: 91125
ShortTable: maxp 16
  1
  0
  141
  669
  16
  0
  0
  2
  0
  1
  1
  0
  64
  0
  0
  0
EndShort
LangName: 1033 "" "" "Regular"
GaspTable: 1 65535 2 0
Encoding: UnicodeFull
UnicodeInterp: none
NameList: AGL For New Fonts
DisplaySize: -48
AntiAlias: 1
FitToEm: 0
WinInfo: 33 33 14
BeginPrivate: 0
EndPrivate
BeginChars: 1114135 157

StartChar: exclam
Encoding: 33 33 4
Width: 186
GlyphClass: 2
Flags: W
LayerCount: 2
Fore
SplineSet
74 584 m 0,0,1
 94 591 94 591 101 587 c 0,2,3
 112 581 112 581 120 556 c 0,4,5
 130 523 130 523 131.5 508.5 c 128,-1,6
 133 494 133 494 133 421 c 0,7,8
 133 385 133 385 133 347 c 128,-1,9
 133 309 133 309 133 272.5 c 128,-1,10
 133 236 133 236 133 226 c 0,11,12
 133 203 133 203 121 196 c 0,13,14
 116 194 116 194 116 191 c 0,15,16
 116 183 116 183 100 181 c 0,17,18
 93 180 93 180 77 187.5 c 128,-1,19
 61 195 61 195 57 200 c 0,20,21
 50 210 50 210 52 308 c 0,22,23
 55 479 55 479 51 487 c 0,24,25
 49 492 49 492 47 512.5 c 128,-1,26
 45 533 45 533 44 536 c 0,27,28
 38 561 38 561 42.5 568.5 c 128,-1,29
 47 576 47 576 74 584 c 0,0,1
103 89 m 128,-1,31
 105 89 105 89 114.5 76.5 c 128,-1,32
 124 64 124 64 125 64 c 128,-1,33
 126 64 126 64 134 56 c 0,34,35
 143 47 143 47 147 21 c 0,36,37
 148 13 148 13 145.5 6.5 c 128,-1,38
 143 0 143 0 135 -9 c 128,-1,39
 127 -18 127 -18 126 -19 c 0,40,41
 108 -40 108 -40 103 -40 c 0,42,43
 101 -40 101 -40 94 -45 c 0,44,45
 89 -49 89 -49 73 -49 c 0,46,47
 58 -49 58 -49 51 -44 c 0,48,49
 43 -38 43 -38 41 -38 c 0,50,51
 32 -38 32 -38 23 -10 c 0,52,53
 14 20 14 20 27 47 c 0,54,55
 39 69 39 69 60 85 c 0,56,57
 76 97 76 97 87 97 c 128,-1,58
 98 97 98 97 99 93 c 0,59,30
 101 89 101 89 103 89 c 128,-1,31
EndSplineSet
Validated: 33
EndChar

StartChar: quotedbl
Encoding: 34 34 5
Width: 262
GlyphClass: 2
Flags: W
LayerCount: 2
Fore
SplineSet
161 700 m 0,0,1
 189 710 189 710 198 701 c 0,2,3
 202 697 202 697 213.5 666.5 c 128,-1,4
 225 636 225 636 223 634 c 0,5,6
 222 633 222 633 221.5 627.5 c 128,-1,7
 221 622 221 622 220 621 c 0,8,9
 218 619 218 619 216 606 c 0,10,11
 205 521 205 521 205 492 c 2,12,-1
 205 474 l 1,13,14
 192 464 192 464 176 461 c 0,15,16
 143 456 143 456 133 467 c 2,17,-1
 127 473 l 2,18,19
 118 484 118 484 129 574 c 0,20,21
 137 635 137 635 135 644 c 0,22,23
 134 649 134 649 132.5 653 c 128,-1,24
 131 657 131 657 131.5 659.5 c 128,-1,25
 132 662 132 662 134 668 c 0,26,27
 135 672 135 672 136.5 679.5 c 128,-1,28
 138 687 138 687 139.5 688.5 c 128,-1,29
 141 690 141 690 146 693.5 c 128,-1,30
 151 697 151 697 161 700 c 0,0,1
38 689 m 0,31,32
 44 695 44 695 66 695 c 0,33,34
 89 695 89 695 94 690 c 0,35,36
 100 684 100 684 102 678.5 c 128,-1,37
 104 673 104 673 104 663.5 c 128,-1,38
 104 654 104 654 105 647 c 0,39,40
 108 634 108 634 105 602 c 0,41,42
 105 594 105 594 104.5 581 c 128,-1,43
 104 568 104 568 103 551.5 c 128,-1,44
 102 535 102 535 102 526 c 0,45,46
 101 481 101 481 96 474 c 0,47,48
 94 471 94 471 91.5 469 c 128,-1,49
 89 467 89 467 85.5 465.5 c 128,-1,50
 82 464 82 464 80 463.5 c 128,-1,51
 78 463 78 463 71 462 c 128,-1,52
 64 461 64 461 61 461 c 0,53,54
 43 458 43 458 38 461 c 0,55,56
 25 469 25 469 22 481.5 c 128,-1,57
 19 494 19 494 21 532 c 0,58,59
 22 551 22 551 23.5 576.5 c 128,-1,60
 25 602 25 602 26 622 c 0,61,62
 26 638 26 638 31 676 c 0,63,64
 33 684 33 684 38 689 c 0,31,32
EndSplineSet
Validated: 33
EndChar

StartChar: numbersign
Encoding: 35 35 6
Width: 531
GlyphClass: 2
Flags: W
LayerCount: 2
Fore
SplineSet
400 145 m 128,-1,1
 393 145 393 145 383 143 c 128,-1,2
 373 141 373 141 367 141 c 0,3,4
 359 141 359 141 357 139 c 0,5,6
 354 135 354 135 352 85 c 128,-1,7
 350 35 350 35 352 33 c 0,8,9
 356 29 356 29 352 16 c 0,10,11
 350 12 350 12 338.5 5.5 c 128,-1,12
 327 -1 327 -1 326 -2 c 0,13,14
 320 -7 320 -7 302 -5 c 0,15,16
 286 -4 286 -4 273 18 c 0,17,18
 270 23 270 23 271 72 c 0,19,20
 271 82 271 82 271.5 96 c 128,-1,21
 272 110 272 110 272.5 117 c 128,-1,22
 273 124 273 124 273 125 c 0,23,24
 273 128 273 128 272 128 c 256,25,26
 271 128 271 128 257.5 126 c 128,-1,27
 244 124 244 124 232 121.5 c 128,-1,28
 220 119 220 119 220 117 c 0,29,30
 220 113 220 113 216.5 66 c 128,-1,31
 213 19 213 19 213 14 c 0,32,33
 213 1 213 1 206 -28 c 0,34,35
 203 -43 203 -43 192 -46 c 0,36,37
 188 -48 188 -48 186 -50 c 0,38,39
 184 -53 184 -53 169 -53 c 0,40,41
 153 -53 153 -53 148 -50 c 0,42,43
 138 -43 138 -43 138 -40 c 0,44,45
 138 -38 138 -38 130 -30 c 0,46,47
 123 -23 123 -23 123 -14 c 128,-1,48
 123 -5 123 -5 125 -3 c 0,49,50
 131 5 131 5 134 55 c 0,51,52
 138 103 138 103 138 105 c 1,53,-1
 125 104 l 2,54,55
 121 104 121 104 100 101.5 c 128,-1,56
 79 99 79 99 66 100 c 128,-1,57
 53 101 53 101 45 106 c 0,58,59
 33 113 33 113 30 134 c 0,60,61
 29 146 29 146 35 153 c 0,62,63
 45 164 45 164 67 169 c 0,64,65
 76 171 76 171 85 175 c 128,-1,66
 94 179 94 179 110 181 c 0,67,68
 136 185 136 185 140 186.5 c 128,-1,69
 144 188 144 188 146 195 c 0,70,71
 149 208 149 208 154 252 c 128,-1,72
 159 296 159 296 155 296 c 0,73,74
 140 296 140 296 85 285 c 0,75,76
 78 283 78 283 69 282.5 c 128,-1,77
 60 282 60 282 54 279 c 0,78,79
 40 271 40 271 28 289 c 0,80,81
 19 301 19 301 20 311 c 0,82,83
 20 322 20 322 22 324 c 0,84,85
 25 327 25 327 46 341 c 128,-1,86
 67 355 67 355 74 355 c 0,87,88
 78 355 78 355 94 359 c 0,89,90
 131 369 131 369 137 369 c 0,91,92
 142 369 142 369 142 371 c 0,93,94
 142 372 142 372 154 374 c 0,95,96
 167 375 167 375 169 379 c 0,97,98
 170 381 170 381 171.5 395 c 128,-1,99
 173 409 173 409 174.5 425.5 c 128,-1,100
 176 442 176 442 177 448 c 0,101,102
 179 458 179 458 183 483.5 c 128,-1,103
 187 509 187 509 189 518 c 0,104,105
 193 540 193 540 193 543 c 0,106,107
 193 547 193 547 197.5 553.5 c 128,-1,108
 202 560 202 560 205 561 c 0,109,110
 207 562 207 562 227 562 c 0,111,112
 246 562 246 562 250 557 c 0,113,114
 256 550 256 550 257 502 c 0,115,116
 257 497 257 497 259 473 c 128,-1,117
 261 449 261 449 257 441 c 0,118,119
 256 431 256 431 254.5 414.5 c 128,-1,120
 253 398 253 398 253 395 c 0,121,122
 252 385 252 385 253.5 383.5 c 128,-1,123
 255 382 255 382 262 385 c 0,124,125
 265 386 265 386 290 388 c 2,126,-1
 314 390 l 1,127,-1
 320 422 l 2,128,129
 324 443 324 443 328 455 c 128,-1,130
 332 467 332 467 335 478 c 0,131,132
 350 534 350 534 362 542 c 2,133,-1
 370 547 l 1,134,-1
 387 542 l 2,135,136
 409 536 409 536 411.5 522 c 128,-1,137
 414 508 414 508 404 444 c 0,138,139
 397 405 397 405 395 389 c 1,140,-1
 406 389 l 2,141,142
 414 389 414 389 440 391 c 0,143,144
 474 394 474 394 476 384 c 2,145,-1
 478 379 l 2,146,147
 480 379 480 379 482.5 374 c 128,-1,148
 485 369 485 369 485 365 c 0,149,150
 485 363 485 363 489 353 c 0,151,152
 500 332 500 332 476 320 c 0,153,154
 464 313 464 313 439 311 c 128,-1,155
 414 309 414 309 399.5 310 c 128,-1,156
 385 311 385 311 381 309 c 0,157,158
 380 308 380 308 374 265.5 c 128,-1,159
 368 223 368 223 369 222 c 0,160,161
 377 223 377 223 387 224 c 0,162,163
 407 226 407 226 436 226 c 0,164,165
 462 226 462 226 469 224 c 128,-1,166
 476 222 476 222 481 211 c 0,167,168
 484 205 484 205 484.5 186 c 128,-1,169
 485 167 485 167 482 162 c 0,170,171
 477 153 477 153 470.5 150.5 c 128,-1,172
 464 148 464 148 441 147 c 0,173,0
 407 145 407 145 400 145 c 128,-1,1
284 211 m 0,174,175
 284 214 284 214 290.5 255.5 c 128,-1,176
 297 297 297 297 298 300 c 0,177,178
 299 308 299 308 295 308 c 0,179,180
 294 308 294 308 290 307.5 c 128,-1,181
 286 307 286 307 279 306 c 128,-1,182
 272 305 272 305 266 305 c 2,183,-1
 241 304 l 1,184,-1
 238 281 l 2,185,186
 237 270 237 270 233.5 250.5 c 128,-1,187
 230 231 230 231 229 219 c 0,188,189
 229 216 229 216 228.5 212.5 c 128,-1,190
 228 209 228 209 227.5 206.5 c 128,-1,191
 227 204 227 204 227 203 c 0,192,193
 226 201 226 201 229 201 c 2,194,195
 229 201 229 201 244 204 c 0,196,197
 284 210 284 210 284 211 c 0,174,175
EndSplineSet
Validated: 33
EndChar

StartChar: dollar
Encoding: 36 36 7
Width: 458
GlyphClass: 2
Flags: W
LayerCount: 2
Fore
SplineSet
181 602 m 0,0,1
 185 608 185 608 194 607 c 0,2,3
 202 606 202 606 207 598 c 0,4,5
 211 590 211 590 211 564 c 2,6,-1
 212 538 l 1,7,-1
 222 538 l 2,8,9
 226 538 226 538 231 537.5 c 128,-1,10
 236 537 236 537 237 537 c 0,11,12
 239 537 239 537 240 541 c 128,-1,13
 241 545 241 545 241.5 549.5 c 128,-1,14
 242 554 242 554 243 555 c 2,15,-1
 244 557 l 2,16,17
 245 559 245 559 245.5 561 c 128,-1,18
 246 563 246 563 247 566 c 128,-1,19
 248 569 248 569 249 572 c 0,20,21
 254 587 254 587 257.5 590.5 c 128,-1,22
 261 594 261 594 271 592 c 0,23,24
 283 589 283 589 285 582 c 128,-1,25
 287 575 287 575 285 548 c 0,26,27
 284 536 284 536 286 533 c 128,-1,28
 288 530 288 530 296 530 c 0,29,30
 305 530 305 530 329 525.5 c 128,-1,31
 353 521 353 521 355 519 c 128,-1,32
 357 517 357 517 360 517 c 0,33,34
 365 517 365 517 371 499 c 0,35,36
 373 493 373 493 365 475 c 128,-1,37
 357 457 357 457 347.5 454.5 c 128,-1,38
 338 452 338 452 298 458 c 2,39,-1
 280 461 l 1,40,-1
 281 451 l 2,41,42
 284 422 284 422 277 402 c 0,43,44
 276 399 276 399 279 399 c 0,45,46
 280 399 280 399 287 399 c 0,47,48
 292 400 292 400 296 400 c 0,49,50
 318 402 318 402 348 390 c 0,51,52
 368 381 368 381 384 363 c 0,53,54
 411 333 411 333 417 294 c 0,55,56
 423 241 423 241 417 202 c 0,57,58
 410 157 410 157 393 129 c 0,59,60
 388 122 388 122 388 120 c 0,61,62
 388 116 388 116 371.5 97.5 c 128,-1,63
 355 79 355 79 345 71 c 0,64,65
 337 65 337 65 324 58 c 0,66,67
 286 41 286 41 284 41 c 0,68,69
 283 41 283 41 279 37 c 0,70,71
 275 34 275 34 276 9 c 0,72,73
 277 -15 277 -15 274 -20 c 0,74,75
 272 -24 272 -24 272 -32.5 c 128,-1,76
 272 -41 272 -41 270.5 -45.5 c 128,-1,77
 269 -50 269 -50 261 -49 c 0,78,79
 255 -48 255 -48 254 -41 c 128,-1,80
 253 -34 253 -34 247 -25.5 c 128,-1,81
 241 -17 241 -17 239 -13 c 0,82,83
 231 5 231 5 231 7 c 0,84,85
 231 12 231 12 230 15 c 128,-1,86
 229 18 229 18 225 19 c 128,-1,87
 221 20 221 20 218 20 c 128,-1,88
 215 20 215 20 207.5 19.5 c 128,-1,89
 200 19 200 19 195 19 c 2,90,-1
 172 19 l 1,91,-1
 172 0 l 2,92,93
 169 -44 169 -44 158 -60 c 0,94,95
 154 -65 154 -65 144 -64 c 1,96,97
 132 -54 132 -54 131 -50 c 0,98,99
 131 -41 131 -41 128 -38 c 0,100,101
 126 -36 126 -36 125 -1 c 2,102,-1
 124 34 l 1,103,-1
 111 43 l 2,104,105
 93 55 93 55 71.5 78 c 128,-1,106
 50 101 50 101 44 117 c 0,107,108
 42 121 42 121 38 126 c 0,109,110
 37 127 37 127 27 155 c 0,111,112
 24 164 24 164 23 168 c 128,-1,113
 22 172 22 172 21 175.5 c 128,-1,114
 20 179 20 179 20 181.5 c 128,-1,115
 20 184 20 184 20.5 186 c 128,-1,116
 21 188 21 188 21.5 192 c 128,-1,117
 22 196 22 196 23 201 c 0,118,119
 23 204 23 204 23.5 206.5 c 128,-1,120
 24 209 24 209 25 211 c 128,-1,121
 26 213 26 213 27 214 c 128,-1,122
 28 215 28 215 30.5 216 c 128,-1,123
 33 217 33 217 34 217.5 c 128,-1,124
 35 218 35 218 39.5 219 c 128,-1,125
 44 220 44 220 46 221 c 0,126,127
 68 229 68 229 68 218 c 0,128,129
 68 210 68 210 80 195 c 0,130,131
 83 192 83 192 89 180 c 0,132,133
 101 158 101 158 117 140 c 0,134,135
 128 129 128 129 129 134 c 0,136,137
 131 139 131 139 131.5 153.5 c 128,-1,138
 132 168 132 168 133 172 c 0,139,140
 136 186 136 186 141 243 c 0,141,142
 142 252 142 252 142 256.5 c 128,-1,143
 142 261 142 261 141.5 263.5 c 128,-1,144
 141 266 141 266 139.5 266 c 128,-1,145
 138 266 138 266 135 266 c 0,146,147
 133 265 133 265 121.5 270 c 128,-1,148
 110 275 110 275 109 275 c 0,149,150
 107 275 107 275 96.5 282 c 128,-1,151
 86 289 86 289 86 290 c 128,-1,152
 86 291 86 291 84 293 c 0,153,154
 82 296 82 296 81 297 c 0,155,156
 66 314 66 314 61 334 c 0,157,158
 58 346 58 346 57 375 c 128,-1,159
 56 404 56 404 58 405 c 0,160,161
 60 407 60 407 60 411 c 0,162,163
 60 414 60 414 61.5 420.5 c 128,-1,164
 63 427 63 427 65 433.5 c 128,-1,165
 67 440 67 440 67 442 c 0,166,167
 68 450 68 450 79 468.5 c 128,-1,168
 90 487 90 487 96 493 c 0,169,170
 99 496 99 496 102.5 502 c 128,-1,171
 106 508 106 508 112 511 c 0,172,173
 113 512 113 512 115 512 c 2,174,-1
 120 517 l 1,175,176
 118 519 118 519 121 519 c 128,-1,177
 124 519 124 519 129 523 c 0,178,179
 134 526 134 526 147.5 531 c 128,-1,180
 161 536 161 536 165 536 c 0,181,182
 170 536 170 536 171 557 c 0,183,184
 173 590 173 590 181 602 c 0,0,1
227 441 m 0,185,186
 227 445 227 445 228 451.5 c 128,-1,187
 229 458 229 458 229.5 461 c 128,-1,188
 230 464 230 464 229 466 c 0,189,190
 227 467 227 467 218 467 c 2,191,-1
 210 467 l 1,192,-1
 210 457 l 2,193,194
 210 446 210 446 207.5 427.5 c 128,-1,195
 205 409 205 409 205 395 c 2,196,-1
 203 367 l 1,197,-1
 212 372 l 2,198,199
 221 376 221 376 221 380 c 0,200,201
 221 392 221 392 224 411 c 128,-1,202
 227 430 227 430 227 441 c 0,185,186
156 400 m 2,203,-1
 161 456 l 1,204,205
 156 456 156 456 144 429 c 0,206,207
 135 409 135 409 134 388 c 0,208,209
 133 366 133 366 137 359 c 0,210,211
 143 346 143 346 149 346 c 0,212,213
 153 346 153 346 156 400 c 2,203,-1
328 305 m 0,214,215
 319 316 319 316 314 318.5 c 128,-1,216
 309 321 309 321 298 320 c 0,217,218
 270 317 270 317 270 307 c 0,219,220
 270 249 270 249 268 241 c 0,221,222
 265 236 265 236 267 130 c 2,223,-1
 267 118 l 1,224,-1
 279 124 l 2,225,226
 291 130 291 130 307 146 c 128,-1,227
 323 162 323 162 328 180 c 0,228,229
 340 217 340 217 337 272 c 0,230,231
 337 275 337 275 336.5 278.5 c 128,-1,232
 336 282 336 282 336 285 c 128,-1,233
 336 288 336 288 335.5 290 c 128,-1,234
 335 292 335 292 335 294 c 2,235,-1
 335 295 l 2,236,237
 335 296 335 296 328 305 c 0,214,215
213 152 m 0,238,239
 213 165 213 165 213.5 196.5 c 128,-1,240
 214 228 214 228 214 239 c 2,241,-1
 213 281 l 2,242,243
 209 281 209 281 204 279 c 0,244,245
 196 276 196 276 194.5 269.5 c 128,-1,246
 193 263 193 263 188 217 c 0,247,248
 180 120 180 120 176 98 c 1,249,-1
 194 97 l 2,250,251
 201 97 201 97 205.5 97 c 128,-1,252
 210 97 210 97 212 98 c 128,-1,253
 214 99 214 99 214.5 100.5 c 128,-1,254
 215 102 215 102 214 104 c 128,-1,255
 213 106 213 106 213 152 c 0,238,239
EndSplineSet
Validated: 33
EndChar

StartChar: percent
Encoding: 37 37 8
Width: 556
GlyphClass: 2
Flags: W
LayerCount: 2
Fore
SplineSet
113 499 m 0,0,1
 131 506 131 506 158 505 c 0,2,3
 164 505 164 505 169.5 504 c 128,-1,4
 175 503 175 503 180 501.5 c 128,-1,5
 185 500 185 500 188.5 498.5 c 128,-1,6
 192 497 192 497 197 494 c 128,-1,7
 202 491 202 491 204 490 c 128,-1,8
 206 489 206 489 211.5 485 c 128,-1,9
 217 481 217 481 218 480 c 0,10,11
 221 478 221 478 221.5 475.5 c 128,-1,12
 222 473 222 473 225 470 c 0,13,14
 230 465 230 465 230 464 c 0,15,16
 230 461 230 461 235 451 c 0,17,18
 250 420 250 420 226 365 c 0,19,20
 219 348 219 348 193 316 c 0,21,22
 166 281 166 281 133 263 c 0,23,24
 126 259 126 259 109.5 255.5 c 128,-1,25
 93 252 93 252 85 254 c 0,26,27
 8 271 8 271 22 387 c 0,28,29
 24 400 24 400 33.5 425.5 c 128,-1,30
 43 451 43 451 47 454 c 0,31,32
 49 456 49 456 52 462 c 0,33,34
 56 469 56 469 67 479 c 128,-1,35
 78 489 78 489 84 491 c 0,36,37
 88 492 88 492 94.5 494.5 c 128,-1,38
 101 497 101 497 104 497 c 128,-1,39
 107 497 107 497 113 499 c 0,0,1
171 421 m 1,40,41
 158 432 158 432 151 432 c 0,42,43
 130 432 130 432 117 419 c 0,44,45
 112 415 112 415 105 415 c 128,-1,46
 98 415 98 415 95.5 410.5 c 128,-1,47
 93 406 93 406 89 390 c 0,48,49
 86 377 86 377 87 353 c 0,50,51
 88 325 88 325 94 322 c 0,52,53
 105 316 105 316 134.5 350.5 c 128,-1,54
 164 385 164 385 169 410 c 2,55,-1
 171 421 l 1,40,41
446 462 m 0,56,57
 455 462 455 462 460.5 449 c 128,-1,58
 466 436 466 436 465 425 c 0,59,60
 465 424 465 424 464.5 420.5 c 128,-1,61
 464 417 464 417 464 415 c 0,62,63
 464 410 464 410 460.5 403.5 c 128,-1,64
 457 397 457 397 454 397 c 128,-1,65
 451 397 451 397 439 383 c 2,66,-1
 344 288 l 2,67,68
 342 286 342 286 312.5 255 c 128,-1,69
 283 224 283 224 256.5 195.5 c 128,-1,70
 230 167 230 167 224 159 c 0,71,72
 217 150 217 150 190.5 119 c 128,-1,73
 164 88 164 88 157 79 c 0,74,75
 126 38 126 38 113 36 c 0,76,77
 109 35 109 35 91 46 c 0,78,79
 76 56 76 56 73 59.5 c 128,-1,80
 70 63 70 63 70 71 c 0,81,82
 70 89 70 89 120 156 c 0,83,84
 150 196 150 196 179.5 230.5 c 128,-1,85
 209 265 209 265 217 270 c 0,86,87
 224 274 224 274 230 284 c 0,88,89
 234 290 234 290 283 339 c 0,90,91
 378 434 378 434 379 441 c 0,92,93
 382 456 382 456 389 456 c 0,94,95
 391 456 391 456 400 462.5 c 128,-1,96
 409 469 409 469 410 469 c 0,97,98
 424 473 424 473 438 465 c 0,99,100
 442 462 442 462 446 462 c 0,56,57
383 235 m 0,101,102
 386 235 386 235 397 228.5 c 128,-1,103
 408 222 408 222 410 222 c 0,104,105
 413 222 413 222 417 216 c 0,106,107
 420 210 420 210 433 208 c 0,108,109
 443 207 443 207 462 199.5 c 128,-1,110
 481 192 481 192 486 187 c 0,111,112
 520 159 520 159 516 146 c 1,113,-1
 516 142 l 2,114,115
 515 138 515 138 515 135 c 0,116,117
 513 100 513 100 488 75 c 0,118,119
 466 50 466 50 438 29 c 0,120,121
 419 14 419 14 398 5.5 c 128,-1,122
 377 -3 377 -3 353.5 -1.5 c 128,-1,123
 330 0 330 0 313 16 c 0,124,125
 305 23 305 23 296 35.5 c 128,-1,126
 287 48 287 48 287 52 c 0,127,128
 287 53 287 53 286.5 55.5 c 128,-1,129
 286 58 286 58 286 59 c 0,130,131
 280 92 280 92 283 112 c 0,132,133
 289 157 289 157 311.5 194 c 128,-1,134
 334 231 334 231 367 234 c 0,135,136
 374 235 374 235 383 235 c 0,101,102
439 127 m 0,137,138
 439 133 439 133 376 143 c 0,139,140
 366 145 366 145 365 146 c 256,141,142
 364 147 364 147 361 143 c 0,143,144
 355 131 355 131 352 109 c 0,145,146
 349 79 349 79 356 70 c 0,147,148
 360 66 360 66 369 69 c 0,149,150
 394 78 394 78 414 97 c 0,151,152
 439 124 439 124 439 127 c 0,137,138
EndSplineSet
Validated: 33
EndChar

StartChar: ampersand
Encoding: 38 38 9
Width: 506
GlyphClass: 2
Flags: W
LayerCount: 2
Fore
SplineSet
151 571 m 0,0,1
 161 571 161 571 188 568 c 0,2,3
 226 562 226 562 265 528 c 128,-1,4
 304 494 304 494 307 451 c 0,5,6
 309 414 309 414 304 406 c 0,7,8
 304 405 304 405 302 399 c 0,9,10
 298 374 298 374 262 326 c 0,11,12
 258 322 258 322 248 310 c 2,13,-1
 238 300 l 1,14,-1
 250 290 l 2,15,16
 262 281 262 281 312 238 c 2,17,-1
 330 223 l 1,18,-1
 333 231 l 2,19,20
 344 255 344 255 345 256 c 0,21,22
 354 265 354 265 356 268 c 0,23,24
 362 276 362 276 384 269 c 2,25,-1
 398 265 l 1,26,-1
 401 255 l 2,27,28
 404 238 404 238 401 212 c 128,-1,29
 398 186 398 186 392 173 c 0,30,31
 390 167 390 167 401 157 c 0,32,33
 406 152 406 152 417 143.5 c 128,-1,34
 428 135 428 135 433 129 c 0,35,36
 438 124 438 124 439 124 c 128,-1,37
 440 124 440 124 445.5 117 c 128,-1,38
 451 110 451 110 456 102.5 c 128,-1,39
 461 95 461 95 462 94 c 0,40,41
 471 83 471 83 464 69 c 0,42,43
 462 64 462 64 441.5 51.5 c 128,-1,44
 421 39 421 39 416 39 c 0,45,46
 402 39 402 39 389 57 c 0,47,48
 381 68 381 68 365 82 c 2,49,-1
 352 93 l 1,50,51
 293 10 293 10 222 -8 c 0,52,53
 207 -11 207 -11 204 -14 c 0,54,55
 202 -16 202 -16 178.5 -16 c 128,-1,56
 155 -16 155 -16 155 -14 c 0,57,58
 155 -13 155 -13 142 -9 c 0,59,60
 126 -5 126 -5 101 10 c 0,61,62
 46 42 46 42 30 104 c 0,63,64
 7 194 7 194 37 251 c 0,65,66
 39 255 39 255 39 256 c 0,67,68
 39 260 39 260 54 276 c 128,-1,69
 69 292 69 292 76 296 c 0,70,71
 77 297 77 297 83 300.5 c 128,-1,72
 89 304 89 304 92 306 c 0,73,74
 100 311 100 311 100.5 314 c 128,-1,75
 101 317 101 317 94 324 c 0,76,77
 77 341 77 341 63 372 c 0,78,79
 41 422 41 422 45 468 c 0,80,81
 49 502 49 502 57 516 c 0,82,83
 62 526 62 526 73.5 540 c 128,-1,84
 85 554 85 554 87 554 c 0,85,86
 91 554 91 554 96 558 c 0,87,88
 110 568 110 568 151 571 c 0,0,1
170 492 m 0,89,90
 158 494 158 494 157 494 c 0,91,92
 155 494 155 494 148.5 492.5 c 128,-1,93
 142 491 142 491 138 491 c 0,94,95
 127 490 127 490 121.5 473.5 c 128,-1,96
 116 457 116 457 120 436 c 0,97,98
 124 416 124 416 141.5 388 c 128,-1,99
 159 360 159 360 171 355 c 0,100,101
 176 352 176 352 188 363 c 0,102,103
 211 386 211 386 222 408 c 0,104,105
 227 417 227 417 227 432 c 0,106,107
 227 454 227 454 210 470 c 0,108,109
 192 488 192 488 170 492 c 0,89,90
247 187 m 0,110,111
 237 195 237 195 215 215 c 128,-1,112
 193 235 193 235 184 242 c 2,113,-1
 164 258 l 1,114,-1
 154 252 l 2,115,116
 118 233 118 233 107.5 210.5 c 128,-1,117
 97 188 97 188 106 138 c 0,118,119
 113 102 113 102 122 93 c 0,120,121
 136 77 136 77 167 68 c 0,122,123
 179 65 179 65 195 68 c 0,124,125
 225 74 225 74 257 106 c 0,126,127
 283 132 283 132 286 137 c 2,128,-1
 292 146 l 1,129,-1
 274 163 l 2,130,131
 256 181 256 181 247 187 c 0,110,111
EndSplineSet
Validated: 33
EndChar

StartChar: quotesingle
Encoding: 39 39 10
Width: 148
GlyphClass: 2
Flags: W
LayerCount: 2
Fore
SplineSet
51 704 m 0,0,1
 83 709 83 709 91 703 c 0,2,3
 95 700 95 700 101 661 c 0,4,5
 106 624 106 624 106.5 613 c 128,-1,6
 107 602 107 602 105.5 587 c 128,-1,7
 104 572 104 572 104 546 c 0,8,9
 104 500 104 500 107 496 c 0,10,11
 111 491 111 491 108 484 c 128,-1,12
 105 477 105 477 100 475 c 0,13,14
 98 475 98 475 95.5 471.5 c 128,-1,15
 93 468 93 468 91 468 c 128,-1,16
 89 468 89 468 87 464 c 0,17,18
 84 458 84 458 70 456 c 128,-1,19
 56 454 56 454 49 457 c 0,20,21
 44 459 44 459 36.5 467.5 c 128,-1,22
 29 476 29 476 28 481 c 0,23,24
 28 483 28 483 26 486.5 c 128,-1,25
 24 490 24 490 24 491 c 0,26,27
 23 494 23 494 24 620 c 0,28,29
 24 624 24 624 23.5 629.5 c 128,-1,30
 23 635 23 635 22 643 c 128,-1,31
 21 651 21 651 21 655 c 0,32,33
 19 677 19 677 23 683 c 0,34,35
 31 697 31 697 34.5 700 c 128,-1,36
 38 703 38 703 51 704 c 0,0,1
EndSplineSet
Validated: 33
EndChar

StartChar: parenleft
Encoding: 40 40 11
Width: 288
GlyphClass: 2
Flags: W
LayerCount: 2
Fore
SplineSet
232 -79 m 0,0,1
 232 -85 232 -85 220.5 -93.5 c 128,-1,2
 209 -102 209 -102 199 -102 c 0,3,4
 190 -102 190 -102 177 -91 c 0,5,6
 140 -61 140 -61 116 -27 c 0,7,8
 86 16 86 16 65 66 c 0,9,10
 44 119 44 119 39 137 c 0,11,12
 38 141 38 141 35.5 150.5 c 128,-1,13
 33 160 33 160 32 162.5 c 128,-1,14
 31 165 31 165 29 174 c 128,-1,15
 27 183 27 183 26.5 185 c 128,-1,16
 26 187 26 187 24 196 c 128,-1,17
 22 205 22 205 22.5 208 c 128,-1,18
 23 211 23 211 21.5 221.5 c 128,-1,19
 20 232 20 232 20.5 236.5 c 128,-1,20
 21 241 21 241 20 254 c 128,-1,21
 19 267 19 267 20 274 c 0,22,23
 22 329 22 329 24 343 c 0,24,25
 36 410 36 410 43 417 c 0,26,27
 45 419 45 419 45 422 c 128,-1,28
 45 425 45 425 49 433 c 0,29,30
 50 435 50 435 54 444 c 128,-1,31
 58 453 58 453 60 459 c 0,32,33
 71 487 71 487 93.5 526 c 128,-1,34
 116 565 116 565 126 574 c 0,35,36
 130 578 130 578 130 581 c 0,37,38
 130 583 130 583 140.5 597 c 128,-1,39
 151 611 151 611 158 618 c 0,40,41
 163 625 163 625 183 635 c 0,42,43
 206 647 206 647 215.5 643.5 c 128,-1,44
 225 640 225 640 238 617 c 2,45,-1
 248 597 l 1,46,-1
 245 588 l 2,47,48
 242 582 242 582 236 576.5 c 128,-1,49
 230 571 230 571 228 567 c 0,50,51
 224 561 224 561 218 558 c 0,52,53
 208 553 208 553 185.5 521 c 128,-1,54
 163 489 163 489 147 457 c 0,55,56
 126 414 126 414 120 395 c 0,57,58
 81 265 81 265 121 148 c 0,59,60
 129 124 129 124 135 108 c 0,61,62
 147 72 147 72 179 23 c 0,63,64
 196 -4 196 -4 235 -36 c 0,65,66
 252 -49 252 -49 238 -69 c 0,67,68
 232 -77 232 -77 232 -79 c 0,0,1
EndSplineSet
Validated: 33
EndChar

StartChar: parenright
Encoding: 41 41 12
Width: 279
GlyphClass: 2
Flags: W
LayerCount: 2
Fore
SplineSet
40 637 m 0,0,1
 44 640 44 640 52 640 c 0,2,3
 58 640 58 640 78 634 c 128,-1,4
 98 628 98 628 101 625 c 0,5,6
 103 623 103 623 106 623 c 0,7,8
 107 623 107 623 112 614 c 0,9,10
 113 612 113 612 129 591 c 0,11,12
 147 569 147 569 167 537 c 128,-1,13
 187 505 187 505 193 488 c 0,14,15
 211 443 211 443 218 415 c 0,16,17
 234 354 234 354 236 342 c 0,18,19
 241 315 241 315 239 256 c 128,-1,20
 237 197 237 197 231 181 c 0,21,22
 229 173 229 173 230 171 c 0,23,24
 232 168 232 168 224 135 c 128,-1,25
 216 102 216 102 213 99 c 0,26,27
 212 98 212 98 212 94 c 0,28,29
 212 84 212 84 185 33 c 0,30,31
 160 -11 160 -11 112 -66 c 0,32,33
 107 -72 107 -72 103 -78.5 c 128,-1,34
 99 -85 99 -85 96.5 -87 c 128,-1,35
 94 -89 94 -89 86 -92 c 128,-1,36
 78 -95 78 -95 60 -99 c 0,37,38
 47 -102 47 -102 38 -94 c 0,39,40
 20 -79 20 -79 20 -68 c 2,41,-1
 27 -40 l 2,42,43
 30 -29 30 -29 42 -20.5 c 128,-1,44
 54 -12 54 -12 58 -6 c 0,45,46
 60 -3 60 -3 68 7 c 128,-1,47
 76 17 76 17 79 20 c 0,48,49
 134 84 134 84 149 178 c 0,50,51
 151 189 151 189 155 212 c 128,-1,52
 159 235 159 235 159 241 c 128,-1,53
 159 247 159 247 159 280 c 0,54,55
 155 351 155 351 150 362 c 0,56,57
 149 363 149 363 136 412 c 0,58,59
 124 452 124 452 104 485 c 0,60,61
 96 498 96 498 96 502 c 128,-1,62
 96 506 96 506 72.5 533.5 c 128,-1,63
 49 561 49 561 37 573 c 0,64,65
 27 583 27 583 24 589 c 0,66,67
 21 594 21 594 26 611 c 0,68,69
 33 633 33 633 40 637 c 0,0,1
EndSplineSet
Validated: 33
EndChar

StartChar: asterisk
Encoding: 42 42 13
Width: 514
GlyphClass: 2
Flags: W
LayerCount: 2
Fore
SplineSet
226 518 m 0,0,1
 234 524 234 524 235 524 c 0,2,3
 239 524 239 524 255.5 520.5 c 128,-1,4
 272 517 272 517 275 515 c 0,5,6
 280 513 280 513 284.5 496.5 c 128,-1,7
 289 480 289 480 288 472 c 0,8,9
 287 466 287 466 289 457 c 0,10,11
 291 451 291 451 296 385 c 2,12,-1
 298 370 l 1,13,14
 317 393 317 393 341 419 c 0,15,16
 362 442 362 442 373 447 c 0,17,18
 388 454 388 454 395.5 450.5 c 128,-1,19
 403 447 403 447 416 429 c 0,20,21
 433 404 433 404 427 392 c 0,22,23
 427 391 427 391 423 387 c 128,-1,24
 419 383 419 383 412 375.5 c 128,-1,25
 405 368 405 368 400 363 c 0,26,27
 349 311 349 311 352 303 c 0,28,29
 353 303 353 303 358.5 302.5 c 128,-1,30
 364 302 364 302 373 301 c 128,-1,31
 382 300 382 300 391 300 c 0,32,33
 425 298 425 298 438 301 c 0,34,35
 446 300 446 300 449.5 301.5 c 128,-1,36
 453 303 453 303 457.5 297.5 c 128,-1,37
 462 292 462 292 463 290.5 c 128,-1,38
 464 289 464 289 467 281.5 c 128,-1,39
 470 274 470 274 471 272 c 0,40,41
 476 259 476 259 475 253 c 0,42,43
 471 230 471 230 460 230 c 0,44,45
 456 230 456 230 456 228 c 0,46,47
 456 224 456 224 432.5 222 c 128,-1,48
 409 220 409 220 382 222 c 2,49,-1
 363 224 l 1,50,51
 404 175 404 175 414 168 c 0,52,53
 418 165 418 165 421 162.5 c 128,-1,54
 424 160 424 160 425 156.5 c 128,-1,55
 426 153 426 153 427 152 c 128,-1,56
 428 151 428 151 426.5 147 c 128,-1,57
 425 143 425 143 425 142 c 128,-1,58
 425 141 425 141 422.5 136 c 128,-1,59
 420 131 420 131 419 130 c 0,60,61
 417 126 417 126 413.5 120.5 c 128,-1,62
 410 115 410 115 407 111 c 2,63,-1
 404 107 l 2,64,65
 401 107 401 107 398 105 c 0,66,67
 390 100 390 100 374 102 c 0,68,69
 364 102 364 102 332 138 c 0,70,71
 325 146 325 146 315.5 156.5 c 128,-1,72
 306 167 306 167 300 175 c 1,73,-1
 298 162 l 1,74,75
 292 73 292 73 291 53 c 0,76,77
 291 47 291 47 290.5 39 c 128,-1,78
 290 31 290 31 289.5 28 c 128,-1,79
 289 25 289 25 288.5 20.5 c 128,-1,80
 288 16 288 16 287 14 c 128,-1,81
 286 12 286 12 284.5 9.5 c 128,-1,82
 283 7 283 7 280 4 c 0,83,84
 276 0 276 0 255 1 c 0,85,86
 231 3 231 3 223.5 6.5 c 128,-1,87
 216 10 216 10 213 23 c 128,-1,88
 210 36 210 36 212 84.5 c 128,-1,89
 214 133 214 133 218 152 c 0,90,91
 220 157 220 157 217.5 158.5 c 128,-1,92
 215 160 215 160 212 155 c 0,93,94
 210 153 210 153 195 138.5 c 128,-1,95
 180 124 180 124 166 111 c 128,-1,96
 152 98 152 98 152 99 c 0,97,98
 152 102 152 102 144 92 c 0,99,100
 122 70 122 70 100 86 c 0,101,102
 84 96 84 96 80.5 101 c 128,-1,103
 77 106 77 106 77 115 c 0,104,105
 77 125 77 125 82 133 c 0,106,107
 87 140 87 140 87 142 c 0,108,109
 87 145 87 145 88 145 c 0,110,111
 90 145 90 145 127 184 c 2,112,-1
 164 222 l 1,113,-1
 131 222 l 2,114,115
 40 222 40 222 32 228 c 0,116,117
 20 236 20 236 20 259 c 0,118,119
 20 278 20 278 31 284 c 0,120,121
 52 295 52 295 146 302 c 0,122,123
 174 304 174 304 175 305 c 0,124,125
 175 307 175 307 164 316 c 0,126,127
 118 355 118 355 105 375 c 0,128,129
 89 397 89 397 86 413 c 0,130,131
 85 421 85 421 95 431 c 0,132,133
 106 442 106 442 112.5 442.5 c 128,-1,134
 119 443 119 443 131 434 c 0,135,136
 137 429 137 429 152 419 c 128,-1,137
 167 409 167 409 177 400 c 0,138,139
 198 382 198 382 212 374 c 0,140,141
 215 372 215 372 215.5 373 c 128,-1,142
 216 374 216 374 215 380 c 0,143,144
 215 384 215 384 213 430 c 0,145,146
 212 470 212 470 216 493 c 0,147,148
 219 512 219 512 226 518 c 0,0,1
EndSplineSet
Validated: 33
EndChar

StartChar: plus
Encoding: 43 43 14
Width: 503
GlyphClass: 2
Flags: W
LayerCount: 2
Fore
SplineSet
281 71 m 128,-1,1
 281 70 281 70 274 65.5 c 128,-1,2
 267 61 267 61 267 60 c 2,3,-1
 264 59 l 2,4,5
 262 58 262 58 259 58 c 2,6,-1
 256 57 l 2,7,8
 255 56 255 56 253 55 c 0,9,10
 243 46 243 46 229 62 c 0,11,12
 225 66 225 66 220.5 68.5 c 128,-1,13
 216 71 216 71 213.5 73.5 c 128,-1,14
 211 76 211 76 208 82 c 0,15,16
 204 91 204 91 206 98 c 0,17,18
 208 108 208 108 210 175 c 2,19,-1
 211 246 l 1,20,-1
 176 245 l 2,21,22
 149 244 149 244 113.5 238 c 128,-1,23
 78 232 78 232 52 231 c 0,24,25
 36 231 36 231 29 246 c 0,26,27
 17 270 17 270 24 283 c 0,28,29
 28 292 28 292 49 303 c 0,30,31
 54 306 54 306 72 310 c 0,32,33
 87 313 87 313 88 314 c 0,34,35
 90 317 90 317 121 320.5 c 128,-1,36
 152 324 152 324 182 324 c 0,37,38
 213 324 213 324 214 325 c 0,39,40
 215 327 215 327 214.5 371 c 128,-1,41
 214 415 214 415 212 427 c 0,42,43
 210 442 210 442 215 454 c 0,44,45
 221 468 221 468 224.5 471.5 c 128,-1,46
 228 475 228 475 239 477 c 0,47,48
 272 483 272 483 279 476 c 0,49,50
 287 468 287 468 293 421 c 0,51,52
 296 388 296 388 296 361 c 2,53,-1
 296 320 l 1,54,55
 324 315 324 315 405 312 c 0,56,57
 449 310 449 310 453 306 c 128,-1,58
 457 302 457 302 462 270 c 0,59,60
 465 257 465 257 462 251 c 0,61,62
 453 229 453 229 394 232 c 0,63,64
 310 234 310 234 298 238 c 0,65,66
 295 239 295 239 294 236.5 c 128,-1,67
 293 234 293 234 292 224 c 0,68,69
 290 208 290 208 290 161 c 0,70,71
 289 80 289 80 284 75 c 0,72,73
 284 74 284 74 282.5 73 c 128,-1,0
 281 72 281 72 281 71 c 128,-1,1
EndSplineSet
Validated: 33
EndChar

StartChar: comma
Encoding: 44 44 15
Width: 217
GlyphClass: 2
Flags: W
LayerCount: 2
Fore
SplineSet
140 93 m 0,0,1
 149 95 149 95 157 88 c 0,2,3
 165 80 165 80 171 59 c 0,4,5
 180 28 180 28 174 -14 c 0,6,7
 171 -35 171 -35 157 -65 c 128,-1,8
 143 -95 143 -95 133 -108 c 0,9,10
 131 -110 131 -110 129 -114 c 2,11,-1
 127 -117 l 2,12,13
 125 -123 125 -123 106 -142.5 c 128,-1,14
 87 -162 87 -162 83 -163 c 0,15,16
 70 -163 70 -163 58 -168 c 0,17,18
 56 -170 56 -170 48 -166 c 128,-1,19
 40 -162 40 -162 36 -157 c 0,20,21
 20 -140 20 -140 20 -132 c 0,22,23
 20 -129 20 -129 23 -122 c 128,-1,24
 26 -115 26 -115 25 -112 c 0,25,26
 23 -107 23 -107 30 -98.5 c 128,-1,27
 37 -90 37 -90 42 -90 c 128,-1,28
 47 -90 47 -90 62.5 -68.5 c 128,-1,29
 78 -47 78 -47 85 -29 c 0,30,31
 96 -3 96 -3 93 37 c 0,32,33
 91 63 91 63 95 71 c 0,34,35
 100 78 100 78 102 81 c 0,36,37
 115 87 115 87 140 93 c 0,0,1
EndSplineSet
Validated: 33
EndChar

StartChar: hyphen
Encoding: 45 45 16
Width: 482
GlyphClass: 2
Flags: W
LayerCount: 2
Fore
SplineSet
250 316 m 0,0,1
 265 318 265 318 326 319.5 c 128,-1,2
 387 321 387 321 407 320 c 128,-1,3
 427 319 427 319 433 313 c 0,4,5
 440 305 440 305 442 278 c 0,6,7
 443 255 443 255 431 246 c 0,8,9
 424 240 424 240 397 239 c 0,10,11
 380 238 380 238 331.5 236.5 c 128,-1,12
 283 235 283 235 281 235 c 0,13,14
 230 232 230 232 136 229 c 0,15,16
 109 229 109 229 85 226 c 0,17,18
 54 221 54 221 43 225.5 c 128,-1,19
 32 230 32 230 24 252 c 0,20,21
 11 284 11 284 45 297 c 0,22,23
 56 301 56 301 56 303 c 0,24,25
 56 308 56 308 119 310 c 0,26,27
 221 312 221 312 250 316 c 0,0,1
EndSplineSet
Validated: 33
EndChar

StartChar: period
Encoding: 46 46 17
Width: 175
GlyphClass: 2
Flags: W
LayerCount: 2
Fore
SplineSet
50 95 m 0,0,1
 67 110 67 110 73.5 111.5 c 128,-1,2
 80 113 80 113 97 101 c 0,3,4
 107 93 107 93 111 93 c 128,-1,5
 115 93 115 93 120 88 c 128,-1,6
 125 83 125 83 125 80 c 0,7,8
 125 76 125 76 130 68 c 0,9,10
 143 45 143 45 131 23 c 0,11,12
 112 -14 112 -14 100 -16 c 1,13,-1
 90 -22 l 2,14,15
 77 -30 77 -30 56 -23 c 0,16,17
 40 -18 40 -18 35 -12.5 c 128,-1,18
 30 -7 30 -7 24 11 c 0,19,20
 19 26 19 26 21 31 c 0,21,22
 21 32 21 32 21.5 34 c 128,-1,23
 22 36 22 36 22.5 37.5 c 128,-1,24
 23 39 23 39 23.5 40.5 c 128,-1,25
 24 42 24 42 24 43 c 0,26,27
 24 48 24 48 28 64 c 0,28,29
 31 75 31 75 34 79 c 128,-1,30
 37 83 37 83 50 95 c 0,0,1
EndSplineSet
Validated: 33
EndChar

StartChar: slash
Encoding: 47 47 18
Width: 403
GlyphClass: 2
Flags: W
LayerCount: 2
Fore
SplineSet
162 91 m 2,0,-1
 145 56 l 1,1,-1
 137 40 l 2,2,3
 129 23 129 23 120 6 c 2,4,-1
 112 -10 l 1,5,6
 113 -10 113 -10 111.5 -12.5 c 128,-1,7
 110 -15 110 -15 108 -19 c 0,8,9
 100 -36 100 -36 98 -46 c 0,10,11
 97 -50 97 -50 88 -56.5 c 128,-1,12
 79 -63 79 -63 73 -65 c 0,13,14
 63 -68 63 -68 50 -61 c 0,15,16
 36 -54 36 -54 33 -54 c 128,-1,17
 30 -54 30 -54 25 -49 c 0,18,19
 13 -38 13 -38 33 8 c 0,20,21
 40 26 40 26 44 32 c 2,22,-1
 72 88 l 1,23,-1
 76 96 l 2,24,25
 80 105 80 105 84 114 c 2,26,-1
 89 122 l 1,27,-1
 103 155 l 2,28,29
 102 156 102 156 109 171 c 0,30,31
 114 181 114 181 122 205 c 128,-1,32
 130 229 130 229 136 241 c 0,33,34
 142 255 142 255 142 256 c 0,35,36
 142 259 142 259 149 273 c 0,37,38
 154 285 154 285 162 308 c 128,-1,39
 170 331 170 331 176 341 c 0,40,41
 183 353 183 353 183 356 c 0,42,43
 183 358 183 358 191 375.5 c 128,-1,44
 199 393 199 393 208 411.5 c 128,-1,45
 217 430 217 430 218 431 c 0,46,47
 220 437 220 437 227 448 c 0,48,49
 231 454 231 454 232 458 c 128,-1,50
 233 462 233 462 238 469 c 0,51,52
 255 492 255 492 251 492 c 1,53,54
 271 523 271 523 272 525 c 0,55,56
 273 526 273 526 279.5 539 c 128,-1,57
 286 552 286 552 287 557 c 0,58,59
 292 589 292 589 332 573 c 0,60,61
 345 568 345 568 348 568 c 0,62,63
 351 567 351 567 356 562 c 128,-1,64
 361 557 361 557 362 553 c 0,65,66
 367 541 367 541 351.5 506.5 c 128,-1,67
 336 472 336 472 327 464 c 2,68,-1
 306 427 l 2,69,70
 288 393 288 393 288 392 c 128,-1,71
 288 391 288 391 284 383.5 c 128,-1,72
 280 376 280 376 276 368 c 2,73,-1
 273 360 l 1,74,-1
 269 352 l 2,75,76
 265 343 265 343 260 334 c 2,77,-1
 256 325 l 1,78,-1
 248 309 l 2,79,80
 241 293 241 293 241 291 c 0,81,82
 241 290 241 290 235 275 c 128,-1,83
 229 260 229 260 229 258 c 0,84,85
 229 254 229 254 222 240 c 0,86,87
 203 197 203 197 203 192 c 0,88,89
 203 189 203 189 196.5 175 c 128,-1,90
 190 161 190 161 190 159 c 0,91,92
 190 156 190 156 184 142 c 128,-1,93
 178 128 178 128 177 125 c 0,94,95
 177 124 177 124 169.5 108.5 c 128,-1,96
 162 93 162 93 162 91 c 2,0,-1
EndSplineSet
Validated: 33
EndChar

StartChar: zero
Encoding: 48 48 19
Width: 483
GlyphClass: 2
Flags: W
LayerCount: 2
Fore
SplineSet
298 27 m 0,0,1
 296 27 296 27 282 21 c 128,-1,2
 268 15 268 15 266 15 c 0,3,4
 260 15 260 15 253 12 c 0,5,6
 244 9 244 9 215 9 c 0,7,8
 185 9 185 9 175 13 c 0,9,10
 146 23 146 23 121 38 c 0,11,12
 110 45 110 45 91.5 63.5 c 128,-1,13
 73 82 73 82 70 89 c 0,14,15
 68 94 68 94 57.5 112 c 128,-1,16
 47 130 47 130 47 134 c 0,17,18
 47 135 47 135 43 145 c 0,19,20
 20 196 20 196 20 252 c 0,21,22
 20 322 20 322 33 364 c 0,23,24
 35 372 35 372 35 378 c 0,25,26
 35 388 35 388 50 430 c 128,-1,27
 65 472 65 472 74 488 c 0,28,29
 99 531 99 531 107 539 c 0,30,31
 116 550 116 550 116 552 c 128,-1,32
 116 554 116 554 128.5 566.5 c 128,-1,33
 141 579 141 579 143 579 c 0,34,35
 147 579 147 579 156 585 c 0,36,37
 168 593 168 593 177 595 c 0,38,39
 185 597 185 597 201.5 596.5 c 128,-1,40
 218 596 218 596 220 594 c 128,-1,41
 222 592 222 592 228 592 c 0,42,43
 233 592 233 592 245 586 c 128,-1,44
 257 580 257 580 257 578 c 0,45,46
 263 576 263 576 267 572 c 0,47,48
 273 566 273 566 297 560 c 0,49,50
 328 553 328 553 336 545 c 0,51,52
 340 540 340 540 348 536 c 0,53,54
 369 524 369 524 386 502 c 0,55,56
 393 493 393 493 404 472.5 c 128,-1,57
 415 452 415 452 417 444 c 0,58,59
 419 434 419 434 421 432 c 0,60,61
 427 421 427 421 435.5 372 c 128,-1,62
 444 323 444 323 443 308 c 2,63,-1
 443 292 l 2,64,65
 445 285 445 285 443 255 c 0,66,67
 441 224 441 224 430 191 c 0,68,69
 420 161 420 161 415 151 c 0,70,71
 412 145 412 145 412 142 c 0,72,73
 412 140 412 140 401 122.5 c 128,-1,74
 390 105 390 105 387 102 c 0,75,76
 369 80 369 80 356 66 c 0,77,78
 343 51 343 51 323 40 c 0,79,80
 307 32 307 32 304 29 c 0,81,82
 302 27 302 27 298 27 c 0,0,1
197 496 m 128,-1,84
 191 502 191 502 189 506 c 0,85,86
 186 510 186 510 176 499 c 128,-1,87
 166 488 166 488 162 482 c 0,88,89
 152 467 152 467 134 424 c 0,90,91
 127 403 127 403 123 397 c 0,92,93
 113 375 113 375 104 314 c 0,94,95
 97 256 97 256 108 204 c 0,96,97
 113 176 113 176 124 156 c 0,98,99
 134 137 134 137 151.5 118.5 c 128,-1,100
 169 100 169 100 185 95 c 0,101,102
 247 76 247 76 299 124 c 0,103,104
 336 158 336 158 353 213 c 2,105,-1
 360 236 l 1,106,-1
 360 277 l 2,107,108
 360 365 360 365 335 426 c 0,109,110
 327 447 327 447 320 455.5 c 128,-1,111
 313 464 313 464 299 472 c 0,112,113
 270 488 270 488 227 489 c 0,114,83
 203 490 203 490 197 496 c 128,-1,84
EndSplineSet
Validated: 33
EndChar

StartChar: one
Encoding: 49 49 20
Width: 150
GlyphClass: 2
Flags: W
LayerCount: 2
Fore
SplineSet
62 567 m 0,0,1
 85 571 85 571 91.5 568 c 128,-1,2
 98 565 98 565 101 551 c 0,3,4
 111 495 111 495 111.5 469 c 128,-1,5
 112 443 112 443 109 273 c 0,6,7
 105 45 105 45 100 34 c 0,8,9
 94 21 94 21 83 19 c 0,10,11
 79 18 79 18 59 21 c 128,-1,12
 39 24 39 24 33 27 c 0,13,14
 28 29 28 29 24 37 c 0,15,16
 19 46 19 46 21 63 c 0,17,18
 23 82 23 82 29 344 c 0,19,20
 31 397 31 397 29 444 c 0,21,22
 25 545 25 545 31 554 c 0,23,24
 35 562 35 562 62 567 c 0,0,1
EndSplineSet
Validated: 33
EndChar

StartChar: two
Encoding: 50 50 21
Width: 460
GlyphClass: 2
Flags: W
LayerCount: 2
Fore
SplineSet
230 603 m 0,0,1
 234 603 234 603 247 604 c 128,-1,2
 260 605 260 605 271 605.5 c 128,-1,3
 282 606 282 606 286 607 c 0,4,5
 287 607 287 607 287 605 c 128,-1,6
 287 603 287 603 291 603 c 128,-1,7
 295 603 295 603 312.5 598.5 c 128,-1,8
 330 594 330 594 331 593 c 0,9,10
 334 590 334 590 341 587 c 0,11,12
 354 581 354 581 372 567 c 128,-1,13
 390 553 390 553 388 547 c 1,14,15
 392 540 392 540 396 531 c 0,16,17
 414 494 414 494 409 489 c 0,18,19
 408 488 408 488 410 483 c 0,20,21
 417 464 417 464 414 422 c 0,22,23
 412 390 412 390 411 389 c 0,24,25
 408 386 408 386 406 374 c 0,26,27
 399 341 399 341 391 333 c 0,28,29
 388 330 388 330 388 328 c 128,-1,30
 388 326 388 326 384 320 c 0,31,32
 377 313 377 313 375 309 c 0,33,34
 364 291 364 291 353 278 c 2,35,-1
 347 270 l 2,36,37
 347 266 347 266 320 239 c 0,38,39
 318 237 318 237 299 216.5 c 128,-1,40
 280 196 280 196 271 188 c 0,41,42
 255 174 255 174 249 166 c 0,43,44
 240 155 240 155 201.5 116.5 c 128,-1,45
 163 78 163 78 152 68 c 2,46,-1
 142 59 l 1,47,-1
 152 61 l 2,48,49
 158 62 158 62 168 62 c 0,50,51
 176 62 176 62 301 59 c 0,52,53
 354 59 354 59 363 56 c 0,54,55
 369 54 369 54 374 55 c 128,-1,56
 379 56 379 56 382 55 c 128,-1,57
 385 54 385 54 389 54 c 0,58,59
 404 54 404 54 404 48 c 0,60,61
 404 45 404 45 417 32 c 1,62,63
 424 31 424 31 419 15 c 128,-1,64
 414 -1 414 -1 414 -3 c 0,65,66
 414 -16 414 -16 398 -24 c 0,67,68
 381 -32 381 -32 380 -29 c 0,69,70
 380 -27 380 -27 370.5 -25.5 c 128,-1,71
 361 -24 361 -24 349.5 -23 c 128,-1,72
 338 -22 338 -22 337 -22 c 0,73,74
 332 -21 332 -21 304.5 -22.5 c 128,-1,75
 277 -24 277 -24 273 -22 c 0,76,77
 263 -20 263 -20 244 -20 c 0,78,79
 140 -20 140 -20 133 -22 c 0,80,81
 124 -25 124 -25 105 -27 c 0,82,83
 101 -27 101 -27 96 -27.5 c 128,-1,84
 91 -28 91 -28 88 -28 c 2,85,-1
 85 -29 l 2,86,87
 83 -30 83 -30 73 -30 c 0,88,89
 71 -30 71 -30 68 -27 c 0,90,91
 67 -25 67 -25 54 -21 c 0,92,93
 43 -18 43 -18 37 -11 c 0,94,95
 32 -6 32 -6 27 6.5 c 128,-1,96
 22 19 22 19 22 26 c 0,97,98
 22 31 22 31 20 33 c 0,99,100
 19 33 19 33 21.5 39 c 128,-1,101
 24 45 24 45 27 52 c 2,102,-1
 30 58 l 2,103,104
 30 60 30 60 62 92.5 c 128,-1,105
 94 125 94 125 116 146 c 0,106,107
 123 153 123 153 137.5 168 c 128,-1,108
 152 183 152 183 161 191 c 0,109,110
 193 223 193 223 232 265 c 0,111,112
 247 281 247 281 252 284 c 0,113,114
 255 285 255 285 272 305 c 128,-1,115
 289 325 289 325 293 331 c 0,116,117
 296 336 296 336 297 336 c 128,-1,118
 298 336 298 336 308.5 354.5 c 128,-1,119
 319 373 319 373 323 382 c 0,120,121
 341 428 341 428 332 464 c 0,122,123
 331 469 331 469 325 487 c 0,124,125
 323 494 323 494 324 495 c 0,126,127
 325 497 325 497 320 504.5 c 128,-1,128
 315 512 315 512 311 514 c 0,129,130
 302 520 302 520 271 524 c 0,131,132
 257 526 257 526 232.5 521 c 128,-1,133
 208 516 208 516 195 509 c 0,134,135
 194 509 194 509 177 501 c 128,-1,136
 160 493 160 493 155 488 c 2,137,-1
 88 427 l 1,138,139
 88 429 88 429 85 426 c 0,140,141
 81 422 81 422 75 426 c 0,142,143
 72 429 72 429 56 437 c 0,144,145
 41 445 41 445 38 452 c 0,146,147
 35 460 35 460 40 474 c 0,148,149
 45 489 45 489 52 497.5 c 128,-1,150
 59 506 59 506 80 527 c 0,151,152
 110 557 110 557 155 578 c 0,153,154
 201 600 201 600 230 603 c 0,0,1
EndSplineSet
Validated: 33
EndChar

StartChar: three
Encoding: 51 51 22
Width: 479
GlyphClass: 2
Flags: W
LayerCount: 2
Fore
SplineSet
352 158 m 0,0,1
 352 163 352 163 355 179.5 c 128,-1,2
 358 196 358 196 358 203 c 0,3,4
 358 218 358 218 354.5 244 c 128,-1,5
 351 270 351 270 348 275 c 0,6,7
 342 286 342 286 296 302 c 0,8,9
 256 316 256 316 230 313 c 0,10,11
 223 312 223 312 213.5 310.5 c 128,-1,12
 204 309 204 309 200.5 308.5 c 128,-1,13
 197 308 197 308 191.5 310.5 c 128,-1,14
 186 313 186 313 179 319 c 0,15,16
 164 333 164 333 161.5 340.5 c 128,-1,17
 159 348 159 348 163 366 c 0,18,19
 165 376 165 376 180 397 c 0,20,21
 184 403 184 403 192 413 c 128,-1,22
 200 423 200 423 207 434 c 0,23,24
 217 449 217 449 224 456 c 0,25,26
 230 462 230 462 230 464 c 128,-1,27
 230 466 230 466 243.5 484.5 c 128,-1,28
 257 503 257 503 261 507 c 0,29,30
 264 510 264 510 259 510 c 0,31,32
 257 510 257 510 248 510 c 0,33,34
 239 509 239 509 232 509 c 0,35,36
 173 507 173 507 139 503 c 0,37,38
 129 501 129 501 116 503 c 128,-1,39
 103 505 103 505 96 505 c 0,40,41
 74 505 74 505 67.5 509 c 128,-1,42
 61 513 61 513 57 530 c 0,43,44
 52 551 52 551 57 558 c 0,45,46
 63 568 63 568 85 572 c 0,47,48
 138 585 138 585 171 586 c 0,49,50
 241 589 241 589 316 597 c 0,51,52
 326 599 326 599 326 600 c 0,53,54
 327 601 327 601 330 600.5 c 128,-1,55
 333 600 333 600 340 599.5 c 128,-1,56
 347 599 347 599 350 599 c 0,57,58
 372 598 372 598 383 588 c 0,59,60
 385 586 385 586 389 584 c 0,61,62
 398 580 398 580 400.5 563 c 128,-1,63
 403 546 403 546 397 536 c 0,64,65
 394 532 394 532 394 527 c 0,66,67
 394 524 394 524 387.5 518.5 c 128,-1,68
 381 513 381 513 381 511 c 128,-1,69
 381 509 381 509 368 503 c 0,70,71
 357 498 357 498 304 430 c 0,72,73
 295 418 295 418 285.5 405.5 c 128,-1,74
 276 393 276 393 275 392 c 1,75,-1
 287 388 l 2,76,77
 287 387 287 387 300 383.5 c 128,-1,78
 313 380 313 380 328 376 c 128,-1,79
 343 372 343 372 346 369 c 0,80,81
 348 368 348 368 360 363 c 128,-1,82
 372 358 372 358 374 356 c 0,83,84
 378 352 378 352 386 349 c 0,85,86
 397 344 397 344 409 330 c 0,87,88
 422 316 422 316 425 305 c 0,89,90
 426 301 426 301 427 298 c 0,91,92
 433 280 433 280 437.5 248.5 c 128,-1,93
 442 217 442 217 439 213 c 0,94,95
 437 211 437 211 437 192 c 0,96,97
 439 122 439 122 408 85 c 1,98,-1
 406 82 l 1,99,100
 407 82 407 82 401 73 c 128,-1,101
 395 64 395 64 387 52.5 c 128,-1,102
 379 41 379 41 375 36 c 0,103,104
 369 29 369 29 354.5 17 c 128,-1,105
 340 5 340 5 337 4 c 0,106,107
 335 4 335 4 331 0 c 0,108,109
 326 -4 326 -4 313 -7.5 c 128,-1,110
 300 -11 300 -11 280 -13.5 c 128,-1,111
 260 -16 260 -16 256 -17 c 0,112,113
 221 -24 221 -24 167 -7 c 0,114,115
 122 7 122 7 106.5 14.5 c 128,-1,116
 91 22 91 22 77 36 c 0,117,118
 65 48 65 48 52 70 c 0,119,120
 47 78 47 78 43 83.5 c 128,-1,121
 39 89 39 89 38 91 c 128,-1,122
 37 93 37 93 34.5 98 c 128,-1,123
 32 103 32 103 28 113 c 0,124,125
 5 172 5 172 55 182 c 2,126,-1
 72 185 l 1,127,-1
 81 181 l 2,128,129
 88 178 88 178 91 173 c 0,130,131
 96 158 96 158 111.5 129.5 c 128,-1,132
 127 101 127 101 132 96 c 0,133,134
 143 85 143 85 185 70 c 2,135,-1
 209 62 l 1,136,-1
 236 63 l 2,137,138
 279 65 279 65 296 73 c 0,139,140
 304 78 304 78 320 97.5 c 128,-1,141
 336 117 336 117 343 132 c 0,142,143
 352 152 352 152 352 158 c 0,0,1
EndSplineSet
Validated: 33
EndChar

StartChar: four
Encoding: 52 52 23
Width: 449
GlyphClass: 2
Flags: W
LayerCount: 2
Fore
SplineSet
95 593 m 0,0,1
 105 593 105 593 112 592.5 c 128,-1,2
 119 592 119 592 124 588.5 c 128,-1,3
 129 585 129 585 131.5 583.5 c 128,-1,4
 134 582 134 582 135 574.5 c 128,-1,5
 136 567 136 567 136 564 c 128,-1,6
 136 561 136 561 136 548.5 c 128,-1,7
 136 536 136 536 136 531 c 0,8,9
 136 499 136 499 132 496 c 0,10,11
 130 494 130 494 128 483 c 0,12,13
 127 466 127 466 115 419 c 0,14,15
 112 407 112 407 106 373.5 c 128,-1,16
 100 340 100 340 100 335 c 0,17,18
 100 334 100 334 104.5 334 c 128,-1,19
 109 334 109 334 115.5 335 c 128,-1,20
 122 336 122 336 127 337 c 0,21,22
 160 346 160 346 198 357 c 0,23,24
 253 372 253 372 298 372 c 2,25,-1
 316 372 l 1,26,-1
 318 387 l 2,27,28
 320 403 320 403 320 452.5 c 128,-1,29
 320 502 320 502 319 517 c 0,30,31
 319 519 319 519 318 527 c 128,-1,32
 317 535 317 535 316 542.5 c 128,-1,33
 315 550 315 550 314.5 557.5 c 128,-1,34
 314 565 314 565 315 570 c 128,-1,35
 316 575 316 575 319 575 c 1,36,-1
 319 579 l 1,37,38
 332 581 332 581 346 584 c 0,39,40
 369 588 369 588 375 587 c 128,-1,41
 381 586 381 586 386 577 c 0,42,43
 389 570 389 570 397 536 c 0,44,45
 404 504 404 504 403 484 c 0,46,47
 402 473 402 473 399.5 411.5 c 128,-1,48
 397 350 397 350 397 339 c 0,49,50
 387 184 387 184 395 112 c 0,51,52
 395 110 395 110 398.5 83.5 c 128,-1,53
 402 57 402 57 404 44 c 2,54,-1
 409 3 l 1,55,56
 403 -6 403 -6 392 -10 c 0,57,58
 365 -19 365 -19 351 -19 c 0,59,60
 347 -19 347 -19 337 -9 c 0,61,62
 327 0 327 0 325 15 c 0,63,64
 323 33 323 33 323 43 c 0,65,66
 323 55 323 55 319 67 c 0,67,68
 311 91 311 91 311 204 c 2,69,-1
 311 280 l 2,70,71
 311 289 311 289 310 290 c 0,72,73
 308 292 308 292 283.5 291 c 128,-1,74
 259 290 259 290 249 287 c 0,75,76
 198 273 198 273 194 273 c 128,-1,77
 190 273 190 273 188 271 c 0,78,79
 185 269 185 269 159.5 262.5 c 128,-1,80
 134 256 134 256 120 254 c 0,81,82
 61 244 61 244 33 288 c 0,83,84
 19 311 19 311 20 343 c 0,85,86
 21 368 21 368 28 394.5 c 128,-1,87
 35 421 35 421 37 435 c 0,88,89
 46 497 46 497 51 509 c 0,90,91
 53 512 53 512 55 533 c 0,92,93
 57 571 57 571 72 588 c 0,94,95
 77 593 77 593 95 593 c 0,0,1
EndSplineSet
Validated: 33
EndChar

StartChar: five
Encoding: 53 53 24
Width: 522
GlyphClass: 2
Flags: W
LayerCount: 2
Fore
SplineSet
436 610 m 0,0,1
 451 615 451 615 460 610 c 0,2,3
 465 608 465 608 467.5 602 c 128,-1,4
 470 596 470 596 473 594 c 128,-1,5
 476 592 476 592 478 582 c 128,-1,6
 480 572 480 572 481 570 c 0,7,8
 485 563 485 563 478 551.5 c 128,-1,9
 471 540 471 540 460 535 c 0,10,11
 443 528 443 528 351 517 c 0,12,13
 313 513 313 513 253 511 c 0,14,15
 216 511 216 511 195 504 c 0,16,17
 189 502 189 502 188 496 c 128,-1,18
 187 490 187 490 186 456 c 0,19,20
 187 424 187 424 189 423 c 0,21,22
 194 431 194 431 236 438 c 0,23,24
 255 442 255 442 280 440 c 128,-1,25
 305 438 305 438 315 433 c 0,26,27
 318 432 318 432 325 430 c 128,-1,28
 332 428 332 428 335 427 c 0,29,30
 340 424 340 424 341 424 c 2,31,-1
 351 418 l 2,32,33
 375 402 375 402 387 384 c 0,34,35
 404 360 404 360 404 351 c 0,36,37
 404 348 404 348 405 348 c 0,38,39
 408 348 408 348 415 315 c 0,40,41
 420 298 420 298 418 241 c 128,-1,42
 416 184 416 184 410 170 c 0,43,44
 401 149 401 149 403 147 c 0,45,46
 405 143 405 143 392 115 c 128,-1,47
 379 87 379 87 370 75 c 2,48,-1
 364 67 l 2,49,50
 364 65 364 65 346.5 48.5 c 128,-1,51
 329 32 329 32 325 30 c 128,-1,52
 321 28 321 28 321 26 c 0,53,54
 321 21 321 21 291 6 c 0,55,56
 267 -8 267 -8 222.5 -11.5 c 128,-1,57
 178 -15 178 -15 146 -5 c 0,58,59
 124 3 124 3 118 6 c 0,60,61
 115 7 115 7 106 10 c 128,-1,62
 97 13 97 13 95 16 c 0,63,64
 94 18 94 18 90 18 c 0,65,66
 88 18 88 18 78 26 c 0,67,68
 69 33 69 33 54.5 48 c 128,-1,69
 40 63 40 63 40 65 c 0,70,71
 40 66 40 66 36 70 c 0,72,73
 34 72 34 72 32 79 c 128,-1,74
 30 86 30 86 28 88 c 128,-1,75
 26 90 26 90 26 94 c 0,76,77
 26 101 26 101 23 110 c 0,78,79
 18 126 18 126 27 154 c 0,80,81
 30 162 30 162 33 177 c 0,82,83
 35 187 35 187 38 189.5 c 128,-1,84
 41 192 41 192 51 192 c 0,85,86
 64 192 64 192 68 189 c 128,-1,87
 72 186 72 186 72 176 c 0,88,89
 72 169 72 169 73 165.5 c 128,-1,90
 74 162 74 162 77 158 c 128,-1,91
 80 154 80 154 82 151 c 0,92,93
 96 122 96 122 111 105 c 0,94,95
 121 93 121 93 124 93 c 128,-1,96
 127 93 127 93 136 87 c 0,97,98
 148 79 148 79 170 73 c 0,99,100
 194 66 194 66 214 68 c 0,101,102
 257 73 257 73 275 91 c 2,103,-1
 278 94 l 2,104,105
 281 96 281 96 282 97 c 0,106,107
 289 103 289 103 301 120 c 128,-1,108
 313 137 313 137 317 147 c 0,109,110
 328 172 328 172 333 200 c 0,111,112
 339 233 339 233 338 265 c 0,113,114
 335 319 335 319 318 339 c 0,115,116
 288 374 288 374 232 353 c 0,117,118
 198 339 198 339 190 330 c 0,119,120
 184 323 184 323 163 319 c 128,-1,121
 142 315 142 315 138 320 c 0,122,123
 135 323 135 323 131 323 c 0,124,125
 123 323 123 323 112 344 c 0,126,127
 102 365 102 365 104 423 c 0,128,129
 109 554 109 554 110 563 c 0,130,131
 112 584 112 584 121 589 c 1,132,-1
 149 591 l 2,133,134
 173 592 173 592 178 589 c 0,135,136
 180 587 180 587 189 587 c 0,137,138
 400 600 400 600 436 610 c 0,0,1
EndSplineSet
Validated: 33
EndChar

StartChar: six
Encoding: 54 54 25
Width: 460
GlyphClass: 2
Flags: W
LayerCount: 2
Fore
SplineSet
232 610 m 0,0,1
 240 613 240 613 277 606 c 0,2,3
 282 605 282 605 290 599 c 128,-1,4
 298 593 298 593 298 589 c 0,5,6
 298 587 298 587 300.5 583.5 c 128,-1,7
 303 580 303 580 303 578 c 0,8,9
 303 568 303 568 299 546 c 0,10,11
 298 540 298 540 286 538 c 128,-1,12
 274 536 274 536 272 535 c 0,13,14
 266 531 266 531 259 531 c 0,15,16
 246 531 246 531 207 497 c 0,17,18
 162 458 162 458 141 403 c 0,19,20
 137 393 137 393 130.5 376.5 c 128,-1,21
 124 360 124 360 121 352 c 128,-1,22
 118 344 118 344 114 327.5 c 128,-1,23
 110 311 110 311 106 287 c 0,24,25
 105 279 105 279 104 271 c 128,-1,26
 103 263 103 263 103 257.5 c 128,-1,27
 103 252 103 252 104 252 c 0,28,29
 111 254 111 254 120 258 c 0,30,31
 165 278 165 278 213 289 c 0,32,33
 288 306 288 306 339 280 c 0,34,35
 357 270 357 270 362 270 c 0,36,37
 365 270 365 270 379 256 c 128,-1,38
 393 242 393 242 394 238 c 0,39,40
 396 234 396 234 401 228 c 0,41,42
 407 222 407 222 414 204 c 128,-1,43
 421 186 421 186 421 176 c 0,44,45
 421 152 421 152 420 141 c 0,46,47
 418 123 418 123 408 98.5 c 128,-1,48
 398 74 398 74 388 64 c 0,49,50
 385 61 385 61 385 58 c 0,51,52
 385 48 385 48 348 19 c 2,53,-1
 331 6 l 2,54,55
 329 6 329 6 316 -2 c 0,56,57
 282 -22 282 -22 240 -26.5 c 128,-1,58
 198 -31 198 -31 156 -15 c 1,59,60
 115 6 115 6 104 14 c 0,61,62
 84 30 84 30 65 59 c 128,-1,63
 46 88 46 88 39 113 c 0,64,65
 24 167 24 167 22 179 c 0,66,67
 20 194 20 194 20 224.5 c 128,-1,68
 20 255 20 255 21 266 c 0,69,70
 28 324 28 324 38 356 c 0,71,72
 43 372 43 372 45 383 c 0,73,74
 50 414 50 414 81 466 c 0,75,76
 115 525 115 525 150 557 c 0,77,78
 180 583 180 583 187 583 c 0,79,80
 189 583 189 583 189 585 c 0,81,82
 190 587 190 587 208 598 c 128,-1,83
 226 609 226 609 232 610 c 0,0,1
330 190 m 0,84,85
 296 231 296 231 216 208 c 0,86,87
 191 201 191 201 157 188 c 0,88,89
 110 171 110 171 108 164 c 0,90,91
 107 161 107 161 115 140 c 128,-1,92
 123 119 123 119 130 106 c 0,93,94
 141 87 141 87 165 71 c 0,95,96
 220 35 220 35 277 68 c 0,97,98
 309 87 309 87 328 120 c 0,99,100
 338 139 338 139 337 164 c 0,101,102
 336 182 336 182 330 190 c 0,84,85
EndSplineSet
Validated: 33
EndChar

StartChar: seven
Encoding: 55 55 26
Width: 441
GlyphClass: 2
Flags: W
LayerCount: 2
Fore
SplineSet
168 591 m 0,0,1
 379 591 379 591 379 585 c 0,2,3
 379 583 379 583 382 583 c 128,-1,4
 385 583 385 583 385 581 c 2,5,-1
 393 575 l 2,6,7
 400 570 400 570 401.5 566.5 c 128,-1,8
 403 563 403 563 402 550 c 0,9,10
 401 527 401 527 399 527 c 0,11,12
 398 527 398 527 391.5 516 c 128,-1,13
 385 505 385 505 385 504 c 0,14,15
 385 501 385 501 383 499 c 0,16,17
 373 489 373 489 341 425 c 0,18,19
 315 370 315 370 297 319 c 0,20,21
 294 311 294 311 290.5 303 c 128,-1,22
 287 295 287 295 283 280 c 0,23,24
 281 272 281 272 273 245 c 128,-1,25
 265 218 265 218 262 202 c 0,26,27
 256 175 256 175 245 130.5 c 128,-1,28
 234 86 234 86 231 69 c 0,29,30
 221 22 221 22 201 -23 c 0,31,32
 197 -29 197 -29 196 -29 c 128,-1,33
 195 -29 195 -29 191 -33 c 0,34,35
 182 -45 182 -45 158 -32 c 0,36,37
 131 -17 131 -17 128 -9 c 0,38,39
 124 2 124 2 135 25 c 0,40,41
 144 43 144 43 160 112 c 0,42,43
 166 140 166 140 166 146 c 0,44,45
 167 154 167 154 176 192 c 128,-1,46
 185 230 185 230 187 235 c 0,47,48
 188 238 188 238 207 309 c 0,49,50
 208 313 208 313 229 373 c 1,51,-1
 241 401 l 2,52,53
 242 403 242 403 243.5 406 c 128,-1,54
 245 409 245 409 246 410.5 c 128,-1,55
 247 412 247 412 247.5 413.5 c 128,-1,56
 248 415 248 415 248 416 c 2,57,-1
 249 417 l 2,58,59
 249 419 249 419 267 455 c 128,-1,60
 285 491 285 491 289 498 c 0,61,62
 295 507 295 507 293 509 c 128,-1,63
 291 511 291 511 248 511 c 0,64,65
 208 511 208 511 170 513 c 0,66,67
 138 514 138 514 121 511 c 0,68,69
 109 508 109 508 96 508 c 0,70,71
 87 508 87 508 79 506.5 c 128,-1,72
 71 505 71 505 60 505 c 0,73,74
 38 504 38 504 32.5 509 c 128,-1,75
 27 514 27 514 22 539 c 0,76,77
 17 562 17 562 31 573 c 0,78,79
 38 579 38 579 64 584 c 0,80,81
 71 586 71 586 124 593 c 0,82,83
 133 595 133 595 133 593 c 128,-1,84
 133 591 133 591 168 591 c 0,0,1
EndSplineSet
Validated: 33
EndChar

StartChar: eight
Encoding: 56 56 27
Width: 421
GlyphClass: 2
Flags: W
LayerCount: 2
Fore
SplineSet
185 596 m 0,0,1
 190 596 190 596 195.5 598 c 128,-1,2
 201 600 201 600 208 601 c 0,3,4
 231 602 231 602 248 597 c 0,5,6
 277 588 277 588 284 579 c 0,7,8
 286 576 286 576 289 574 c 0,9,10
 291 573 291 573 301 557.5 c 128,-1,11
 311 542 311 542 311 539 c 2,12,-1
 323 532 l 1,13,-1
 330 524 l 2,14,15
 331 522 331 522 333 519 c 0,16,17
 337 512 337 512 338 511 c 0,18,19
 344 505 344 505 352 470 c 0,20,21
 355 453 355 453 356 442 c 0,22,23
 357 424 357 424 350 402 c 0,24,25
 347 392 347 392 344.5 387 c 128,-1,26
 342 382 342 382 340 380 c 128,-1,27
 338 378 338 378 334 374 c 128,-1,28
 330 370 330 370 326 365 c 0,29,30
 315 351 315 351 303 342 c 0,31,32
 287 330 287 330 287 329 c 128,-1,33
 287 328 287 328 304 315 c 0,34,35
 314 307 314 307 332 289 c 128,-1,36
 350 271 350 271 350 269 c 0,37,38
 350 268 350 268 354 262 c 0,39,40
 370 239 370 239 377 197 c 0,41,42
 379 186 379 186 381 181 c 0,43,44
 383 178 383 178 380.5 157 c 128,-1,45
 378 136 378 136 374 125 c 0,46,47
 372 117 372 117 361 92.5 c 128,-1,48
 350 68 350 68 347 65 c 0,49,50
 341 59 341 59 335 50 c 0,51,52
 328 41 328 41 312 27 c 128,-1,53
 296 13 296 13 287 9 c 0,54,55
 282 7 282 7 275.5 3 c 128,-1,56
 269 -1 269 -1 259 -4 c 0,57,58
 206 -20 206 -20 154.5 -16 c 128,-1,59
 103 -12 103 -12 73 11 c 2,60,-1
 65 17 l 2,61,62
 62 17 62 17 55 24 c 0,63,64
 49 30 49 30 38.5 50 c 128,-1,65
 28 70 28 70 28 75 c 128,-1,66
 28 80 28 80 25 82 c 0,67,68
 21 86 21 86 20 113 c 128,-1,69
 19 140 19 140 22 162 c 0,70,71
 23 168 23 168 30 187 c 128,-1,72
 37 206 37 206 39 208 c 2,73,-1
 49 228 l 2,74,75
 59 251 59 251 66 261 c 0,76,77
 73 273 73 273 93.5 294 c 128,-1,78
 114 315 114 315 126 324 c 2,79,-1
 133 330 l 1,80,-1
 123 336 l 2,81,82
 105 346 105 346 82 370 c 0,83,84
 24 430 24 430 65 503 c 0,85,86
 74 519 74 519 85 531.5 c 128,-1,87
 96 544 96 544 102 549 c 128,-1,88
 108 554 108 554 127 569 c 0,89,90
 136 576 136 576 157 586 c 128,-1,91
 178 596 178 596 185 596 c 0,0,1
237 512 m 0,92,93
 229 521 229 521 220 521 c 0,94,95
 202 521 202 521 190 515 c 0,96,97
 173 506 173 506 153.5 486.5 c 128,-1,98
 134 467 134 467 130 454 c 0,99,100
 124 439 124 439 144 419 c 0,101,102
 150 413 150 413 178.5 395.5 c 128,-1,103
 207 378 207 378 211 378 c 0,104,105
 213 378 213 378 230.5 389.5 c 128,-1,106
 248 401 248 401 256 408 c 0,107,108
 275 423 275 423 273 439 c 0,109,110
 270 470 270 470 261 475 c 128,-1,111
 252 480 252 480 252 494 c 0,112,113
 252 502 252 502 249 503 c 256,114,115
 246 504 246 504 246 504 c 1,116,117
 246 503 246 503 244 505 c 128,-1,118
 242 507 242 507 237 512 c 0,92,93
229 272 m 0,119,120
 215 283 215 283 211.5 283 c 128,-1,121
 208 283 208 283 193 273 c 0,122,123
 116 223 116 223 104 138 c 2,124,-1
 100 113 l 1,125,-1
 106 99 l 2,126,127
 113 80 113 80 124.5 74 c 128,-1,128
 136 68 136 68 168 66 c 0,129,130
 229 63 229 63 259 87 c 0,131,132
 281 105 281 105 294 136 c 0,133,134
 302 154 302 154 296 188 c 0,135,136
 293 207 293 207 285 219.5 c 128,-1,137
 277 232 277 232 255 251 c 0,138,139
 245 260 245 260 229 272 c 0,119,120
EndSplineSet
Validated: 33
EndChar

StartChar: nine
Encoding: 57 57 28
Width: 444
GlyphClass: 2
Flags: W
LayerCount: 2
Fore
SplineSet
201 615 m 0,0,1
 236 620 236 620 239 619 c 0,2,3
 240 619 240 619 243 618 c 128,-1,4
 246 617 246 617 250.5 616 c 128,-1,5
 255 615 255 615 259 614 c 0,6,7
 271 612 271 612 288.5 604 c 128,-1,8
 306 596 306 596 311 591 c 0,9,10
 312 590 312 590 319 586.5 c 128,-1,11
 326 583 326 583 327 580 c 256,12,13
 328 577 328 577 330 577 c 256,14,15
 332 577 332 577 352 555 c 0,16,17
 362 543 362 543 369 536 c 128,-1,18
 376 529 376 529 377 515 c 2,19,-1
 378 502 l 1,20,-1
 390 496 l 2,21,22
 392 495 392 495 395 493.5 c 128,-1,23
 398 492 398 492 399 491.5 c 128,-1,24
 400 491 400 491 401.5 490 c 128,-1,25
 403 489 403 489 403 488 c 128,-1,26
 403 487 403 487 404 485 c 128,-1,27
 405 483 405 483 405 481 c 128,-1,28
 405 479 405 479 405 474 c 0,29,30
 406 463 406 463 400 451 c 0,31,32
 395 441 395 441 395 438 c 128,-1,33
 395 435 395 435 392 429.5 c 128,-1,34
 389 424 389 424 389 421 c 0,35,36
 386 400 386 400 371 370 c 0,37,38
 366 361 366 361 342 281 c 0,39,40
 337 264 337 264 327.5 230.5 c 128,-1,41
 318 197 318 197 312 176 c 0,42,43
 285 87 285 87 280 62 c 0,44,45
 268 14 268 14 265 9 c 0,46,47
 263 7 263 7 263 2 c 0,48,49
 263 -4 263 -4 257.5 -11.5 c 128,-1,50
 252 -19 252 -19 247 -21 c 0,51,52
 239 -24 239 -24 215 -16 c 2,53,-1
 190 -8 l 2,54,55
 189 -5 189 -5 186 2 c 128,-1,56
 183 9 183 9 181 12 c 2,57,-1
 189 37 l 2,58,59
 195 58 195 58 198 67 c 0,60,61
 204 79 204 79 206 99 c 0,62,63
 207 113 207 113 215 137.5 c 128,-1,64
 223 162 223 162 224 165 c 0,65,66
 243 243 243 243 250 253 c 0,67,68
 259 268 259 268 259 283 c 1,69,-1
 271 326 l 1,70,71
 254 316 254 316 221.5 304 c 128,-1,72
 189 292 189 292 176 290 c 0,73,74
 174 290 174 290 171.5 289.5 c 128,-1,75
 169 289 169 289 167 288 c 2,76,-1
 165 288 l 2,77,78
 162 286 162 286 139.5 287 c 128,-1,79
 117 288 117 288 108 290 c 0,80,81
 55 304 55 304 32 350 c 0,82,83
 6 408 6 408 31 462 c 0,84,85
 31 463 31 463 32.5 465.5 c 128,-1,86
 34 468 34 468 35.5 472 c 128,-1,87
 37 476 37 476 38 479 c 0,88,89
 55 521 55 521 104 567 c 0,90,91
 128 588 128 588 146 595 c 2,92,-1
 158 601 l 2,93,94
 178 613 178 613 201 615 c 0,0,1
238 537 m 0,95,96
 223 540 223 540 207 535 c 0,97,98
 178 526 178 526 150.5 500.5 c 128,-1,99
 123 475 123 475 110 445 c 0,100,101
 104 432 104 432 102.5 412.5 c 128,-1,102
 101 393 101 393 107 381 c 0,103,104
 116 367 116 367 144 368 c 0,105,106
 180 369 180 369 231 395 c 0,107,108
 275 417 275 417 298 444 c 0,109,110
 308 457 308 457 309.5 460 c 128,-1,111
 311 463 311 463 309 468 c 0,112,113
 287 528 287 528 238 537 c 0,95,96
EndSplineSet
Validated: 33
EndChar

StartChar: colon
Encoding: 58 58 29
Width: 173
GlyphClass: 2
Flags: W
LayerCount: 2
Fore
SplineSet
60 485 m 0,0,1
 63 490 63 490 79 487.5 c 128,-1,2
 95 485 95 485 98 485 c 0,3,4
 107 486 107 486 114 481.5 c 128,-1,5
 121 477 121 477 121 472 c 0,6,7
 121 469 121 469 123 469 c 0,8,9
 126 469 126 469 129 462 c 0,10,11
 135 450 135 450 132 433 c 0,12,13
 126 406 126 406 113 393 c 0,14,15
 98 378 98 378 93 378 c 128,-1,16
 88 378 88 378 81.5 375 c 128,-1,17
 75 372 75 372 73 371 c 0,18,19
 60 367 60 367 39 382 c 2,20,-1
 21 396 l 2,21,22
 16 404 16 404 31.5 440.5 c 128,-1,23
 47 477 47 477 60 485 c 0,0,1
47 150 m 0,24,25
 66 170 66 170 93 161 c 0,26,27
 117 152 117 152 118 148 c 0,28,29
 119 146 119 146 124 141 c 0,30,31
 129 137 129 137 130 124 c 128,-1,32
 131 111 131 111 127 101 c 0,33,34
 120 83 120 83 106 75 c 0,35,36
 99 71 99 71 97 67 c 0,37,38
 95 62 95 62 92 62 c 128,-1,39
 89 62 89 62 89 60 c 0,40,41
 89 54 89 54 70 54 c 0,42,43
 66 54 66 54 47 62 c 0,44,45
 19 72 19 72 21 108 c 0,46,47
 22 115 22 115 28 128 c 128,-1,48
 34 141 34 141 37 141 c 128,-1,49
 40 141 40 141 47 150 c 0,24,25
EndSplineSet
Validated: 33
EndChar

StartChar: semicolon
Encoding: 59 59 30
Width: 224
GlyphClass: 2
Flags: W
LayerCount: 2
Fore
SplineSet
173 370 m 2,0,-1
 159 351 l 1,1,2
 162 351 162 351 152 345 c 0,3,4
 150 344 150 344 147 342 c 2,5,-1
 140 337 l 2,6,7
 126 323 126 323 96 332 c 0,8,9
 84 335 84 335 78 347 c 0,10,11
 75 355 75 355 72 355 c 128,-1,12
 69 355 69 355 68 362.5 c 128,-1,13
 67 370 67 370 66 379 c 128,-1,14
 65 388 65 388 63 391 c 0,15,16
 62 393 62 393 64 402 c 128,-1,17
 66 411 66 411 67 411 c 128,-1,18
 68 411 68 411 70 416 c 128,-1,19
 72 421 72 421 77 428 c 0,20,21
 83 436 83 436 83 437 c 0,22,23
 83 439 83 439 97 449.5 c 128,-1,24
 111 460 111 460 116 462 c 0,25,26
 125 464 125 464 138 457 c 0,27,28
 142 454 142 454 147 454 c 0,29,30
 161 454 161 454 171 444 c 0,31,32
 185 427 185 427 185 400 c 0,33,34
 185 390 185 390 178 380 c 0,35,36
 173 372 173 372 173 370 c 2,0,-1
121 91 m 0,37,38
 137 95 137 95 142 95 c 0,39,40
 158 95 158 95 162 84 c 0,41,42
 164 80 164 80 165 78 c 2,43,-1
 171 53 l 2,44,45
 180 11 180 11 173 3 c 0,46,47
 170 -3 170 -3 170 -5 c 0,48,49
 163 -47 163 -47 158 -52 c 0,50,51
 157 -53 157 -53 153 -65 c 0,52,53
 149 -76 149 -76 136.5 -102.5 c 128,-1,54
 124 -129 124 -129 119 -136 c 0,55,56
 118 -138 118 -138 116.5 -140 c 128,-1,57
 115 -142 115 -142 114 -143.5 c 128,-1,58
 113 -145 113 -145 112 -146.5 c 128,-1,59
 111 -148 111 -148 111 -149 c 0,60,61
 110 -152 110 -152 106.5 -155 c 128,-1,62
 103 -158 103 -158 103 -159 c 0,63,64
 103 -161 103 -161 81 -176 c 0,65,66
 76 -180 76 -180 64.5 -180 c 128,-1,67
 53 -180 53 -180 47 -176 c 0,68,69
 45 -175 45 -175 39 -172 c 128,-1,70
 33 -169 33 -169 29.5 -165.5 c 128,-1,71
 26 -162 26 -162 24 -157 c 0,72,73
 16 -138 16 -138 23 -131 c 0,74,75
 25 -129 25 -129 26 -124.5 c 128,-1,76
 27 -120 27 -120 28 -119 c 2,77,-1
 29 -118 l 2,78,79
 30 -116 30 -116 30.5 -114 c 128,-1,80
 31 -112 31 -112 32 -110 c 0,81,82
 35 -101 35 -101 44 -97 c 128,-1,83
 53 -93 53 -93 64 -69 c 0,84,85
 87 -22 87 -22 88 32 c 0,86,87
 88 66 88 66 93 75 c 0,88,89
 97 82 97 82 102 85 c 128,-1,90
 107 88 107 88 121 91 c 0,37,38
EndSplineSet
Validated: 33
EndChar

StartChar: less
Encoding: 60 60 31
Width: 398
GlyphClass: 2
Flags: W
LayerCount: 2
Fore
SplineSet
298 549 m 0,0,1
 310 556 310 556 316 555 c 128,-1,2
 322 554 322 554 337 539 c 0,3,4
 353 523 353 523 356 517 c 0,5,6
 361 507 361 507 351.5 495 c 128,-1,7
 342 483 342 483 269 409 c 0,8,9
 160 300 160 300 153 300 c 0,10,11
 151 300 151 300 136.5 288.5 c 128,-1,12
 122 277 122 277 121 275 c 0,13,14
 121 272 121 272 134 261 c 0,15,16
 142 254 142 254 174.5 220.5 c 128,-1,17
 207 187 207 187 213 181 c 0,18,19
 234 162 234 162 245.5 146.5 c 128,-1,20
 257 131 257 131 269 118 c 0,21,22
 279 107 279 107 289 95 c 128,-1,23
 299 83 299 83 313 69 c 0,24,25
 331 51 331 51 335 45 c 0,26,27
 341 36 341 36 344 33 c 0,28,29
 355 21 355 21 339 -3 c 0,30,31
 329 -16 329 -16 326 -19 c 128,-1,32
 323 -22 323 -22 315 -24 c 0,33,34
 297 -29 297 -29 277 -12 c 0,35,36
 263 2 263 2 261 6 c 0,37,38
 257 15 257 15 253 16 c 128,-1,39
 249 17 249 17 235 33 c 0,40,41
 197 76 197 76 182 96 c 0,42,43
 175 105 175 105 154.5 123.5 c 128,-1,44
 134 142 134 142 126 154 c 0,45,46
 113 174 113 174 64 217 c 0,47,48
 24 254 24 254 21 268 c 0,49,50
 20 271 20 271 22 286 c 0,51,52
 25 306 25 306 43 314 c 0,53,54
 47 316 47 316 54 323 c 0,55,56
 66 335 66 335 85 348 c 0,57,58
 126 378 126 378 186 438 c 0,59,60
 209 463 209 463 213 463 c 0,61,62
 214 463 214 463 220 469 c 0,63,64
 235 488 235 488 263 516.5 c 128,-1,65
 291 545 291 545 298 549 c 0,0,1
EndSplineSet
Validated: 33
EndChar

StartChar: equal
Encoding: 61 61 32
Width: 535
GlyphClass: 2
Flags: W
LayerCount: 2
Fore
SplineSet
328 440 m 0,0,1
 360 440 360 440 415 450 c 0,2,3
 457 458 457 458 469 446 c 0,4,5
 475 440 475 440 477 423 c 0,6,7
 482 393 482 393 475 385 c 0,8,9
 463 372 463 372 451 375 c 0,10,11
 446 377 446 377 441 374 c 128,-1,12
 436 371 436 371 405 366 c 0,13,14
 369 360 369 360 336 360 c 0,15,16
 216 358 216 358 202 357.5 c 128,-1,17
 188 357 188 357 155 352 c 0,18,19
 123 348 123 348 87.5 346.5 c 128,-1,20
 52 345 52 345 49 348 c 0,21,22
 43 351 43 351 41 351 c 0,23,24
 36 351 36 351 28 359 c 2,25,-1
 20 366 l 1,26,-1
 20 384 l 1,27,-1
 20 404 l 2,28,29
 20 411 20 411 32 415 c 128,-1,30
 44 419 44 419 59.5 421 c 128,-1,31
 75 423 75 423 77 424 c 0,32,33
 92 429 92 429 175.5 434.5 c 128,-1,34
 259 440 259 440 328 440 c 0,0,1
410 260 m 0,35,36
 415 261 415 261 428 263 c 128,-1,37
 441 265 441 265 448 266 c 128,-1,38
 455 267 455 267 465 266.5 c 128,-1,39
 475 266 475 266 480.5 263 c 128,-1,40
 486 260 486 260 489 253 c 0,41,42
 490 249 490 249 492.5 246.5 c 128,-1,43
 495 244 495 244 495 243 c 128,-1,44
 495 242 495 242 495 234 c 0,45,46
 493 224 493 224 493 215 c 0,47,48
 494 201 494 201 488 195.5 c 128,-1,49
 482 190 482 190 466 188 c 0,50,51
 442 185 442 185 430 182 c 0,52,53
 389 172 389 172 310 179 c 0,54,55
 264 183 264 183 252 183 c 0,56,57
 218 183 218 183 110 173 c 0,58,59
 66 169 66 169 55 169 c 0,60,61
 40 169 40 169 35 174 c 128,-1,62
 30 179 30 179 30 180 c 0,63,64
 30 183 30 183 29 183 c 0,65,66
 27 183 27 183 23.5 202 c 128,-1,67
 20 221 20 221 22 222 c 0,68,69
 24 222 24 222 24 224 c 0,70,71
 24 228 24 228 30.5 231.5 c 128,-1,72
 37 235 37 235 47.5 238.5 c 128,-1,73
 58 242 58 242 60 243 c 0,74,75
 66 246 66 246 72 246 c 0,76,77
 76 246 76 246 76 248 c 0,78,79
 78 255 78 255 172.5 260 c 128,-1,80
 267 265 267 265 305 260 c 0,81,82
 370 253 370 253 410 260 c 0,35,36
EndSplineSet
Validated: 33
EndChar

StartChar: greater
Encoding: 62 62 33
Width: 398
GlyphClass: 2
Flags: W
LayerCount: 2
Fore
SplineSet
42 539 m 0,0,1
 57 554 57 554 63 555 c 128,-1,2
 69 556 69 556 81 549 c 0,3,4
 88 545 88 545 116 516.5 c 128,-1,5
 144 488 144 488 159 469 c 0,6,7
 165 463 165 463 166 463 c 0,8,9
 170 463 170 463 193 438 c 0,10,11
 253 378 253 378 294 348 c 0,12,13
 313 335 313 335 325 323 c 0,14,15
 332 316 332 316 336 314 c 0,16,17
 341 312 341 312 344 309.5 c 128,-1,18
 347 307 347 307 349 305.5 c 128,-1,19
 351 304 351 304 352.5 300 c 128,-1,20
 354 296 354 296 354.5 294.5 c 128,-1,21
 355 293 355 293 356.5 286.5 c 128,-1,22
 358 280 358 280 359 277 c 0,23,24
 359 272 359 272 358 268 c 0,25,26
 355 254 355 254 315 217 c 0,27,28
 266 174 266 174 253 154 c 0,29,30
 245 142 245 142 224.5 123 c 128,-1,31
 204 104 204 104 197 96 c 0,32,33
 182 76 182 76 144 33 c 0,34,35
 130 17 130 17 126 16 c 128,-1,36
 122 15 122 15 118 6 c 0,37,38
 116 2 116 2 102 -12 c 0,39,40
 82 -29 82 -29 64 -24 c 0,41,42
 56 -22 56 -22 53 -19.5 c 128,-1,43
 50 -17 50 -17 40 -3 c 0,44,45
 24 21 24 21 35 33 c 0,46,47
 38 36 38 36 44 45 c 0,48,49
 46 49 46 49 67 70 c 128,-1,50
 88 91 88 91 89 93 c 128,-1,51
 90 95 90 95 109.5 117 c 128,-1,52
 129 139 129 139 131 143 c 0,53,54
 137 155 137 155 166 181 c 0,55,56
 172 187 172 187 204.5 220.5 c 128,-1,57
 237 254 237 254 245 261 c 0,58,59
 258 272 258 272 258 275 c 0,60,61
 257 277 257 277 242.5 288.5 c 128,-1,62
 228 300 228 300 226 300 c 0,63,64
 218 300 218 300 110 409 c 0,65,66
 37 483 37 483 27.5 495 c 128,-1,67
 18 507 18 507 23 517 c 0,68,69
 26 523 26 523 42 539 c 0,0,1
EndSplineSet
Validated: 33
EndChar

StartChar: question
Encoding: 63 63 34
Width: 428
GlyphClass: 2
Flags: W
LayerCount: 2
Fore
SplineSet
155 596 m 0,0,1
 159 600 159 600 197 606 c 128,-1,2
 235 612 235 612 253 611 c 0,3,4
 263 611 263 611 283 606 c 128,-1,5
 303 601 303 601 307 597 c 128,-1,6
 311 593 311 593 312 593 c 0,7,8
 317 592 317 592 332.5 582.5 c 128,-1,9
 348 573 348 573 349 572 c 0,10,11
 353 571 353 571 360.5 561.5 c 128,-1,12
 368 552 368 552 368 549 c 0,13,14
 368 548 368 548 372 544 c 0,15,16
 382 534 382 534 387 504 c 0,17,18
 391 475 391 475 383 443 c 0,19,20
 378 428 378 428 367.5 405 c 128,-1,21
 357 382 357 382 351 375 c 0,22,23
 349 373 349 373 347 369 c 0,24,25
 345 364 345 364 327.5 345 c 128,-1,26
 310 326 310 326 298 316 c 0,27,28
 249 275 249 275 207 255 c 0,29,30
 197 250 197 250 193 246 c 0,31,32
 188 242 188 242 190 232 c 0,33,34
 191 227 191 227 199 207.5 c 128,-1,35
 207 188 207 188 207.5 180.5 c 128,-1,36
 208 173 208 173 205 157 c 0,37,38
 202 151 202 151 179 143 c 0,39,40
 157 135 157 135 152 137 c 0,41,42
 147 138 147 138 140.5 145 c 128,-1,43
 134 152 134 152 132 157 c 0,44,45
 131 162 131 162 127.5 168.5 c 128,-1,46
 124 175 124 175 123 180 c 0,47,48
 109 227 109 227 108 247 c 0,49,50
 108 265 108 265 119 286 c 0,51,52
 125 298 125 298 177 329 c 0,53,54
 232 363 232 363 254 383 c 0,55,56
 265 393 265 393 280 415 c 128,-1,57
 295 437 295 437 300 449 c 0,58,59
 302 454 302 454 304 463.5 c 128,-1,60
 306 473 306 473 306.5 480 c 128,-1,61
 307 487 307 487 306 488 c 0,62,63
 304 488 304 488 302 498 c 0,64,65
 298 515 298 515 269 525 c 0,66,67
 242 534 242 534 198 524 c 0,68,69
 159 515 159 515 127 483 c 0,70,71
 106 462 106 462 98 444 c 0,72,73
 93 432 93 432 84 423 c 0,74,75
 82 421 82 421 82 419 c 0,76,77
 82 418 82 418 76 412 c 0,78,79
 71 407 71 407 56 408 c 0,80,81
 31 410 31 410 20 427 c 1,82,-1
 24 454 l 2,83,84
 27 480 27 480 31 487 c 0,85,86
 44 512 44 512 62 532 c 0,87,88
 70 540 70 540 70 541 c 0,89,90
 70 543 70 543 87 556 c 128,-1,91
 104 569 104 569 112 573 c 0,92,93
 116 575 116 575 118 577.5 c 128,-1,94
 120 580 120 580 121 581 c 128,-1,95
 122 582 122 582 124.5 583.5 c 128,-1,96
 127 585 127 585 131 586 c 0,97,98
 153 593 153 593 155 596 c 0,0,1
171 90 m 0,99,100
 177 92 177 92 186 92 c 0,101,102
 200 91 200 91 234 53 c 0,103,104
 244 41 244 41 244 31 c 2,105,-1
 244 21 l 1,106,-1
 225 -1 l 2,107,108
 205 -23 205 -23 196 -26 c 0,109,110
 186 -29 186 -29 175 -29 c 0,111,112
 173 -29 173 -29 151 -9 c 0,113,114
 147 -5 147 -5 142 -0.5 c 128,-1,115
 137 4 137 4 135.5 5.5 c 128,-1,116
 134 7 134 7 131.5 9.5 c 128,-1,117
 129 12 129 12 128.5 14 c 128,-1,118
 128 16 128 16 127.5 19 c 128,-1,119
 127 22 127 22 126 27 c 0,120,121
 124 34 124 34 138 55 c 0,122,123
 144 64 144 64 155 76 c 128,-1,124
 166 88 166 88 171 90 c 0,99,100
EndSplineSet
Validated: 33
EndChar

StartChar: at
Encoding: 64 64 35
Width: 536
GlyphClass: 2
Flags: W
LayerCount: 2
Fore
SplineSet
217 391 m 0,0,1
 218 391 218 391 228 398 c 128,-1,2
 238 405 238 405 239 405 c 0,3,4
 241 405 241 405 241 407 c 128,-1,5
 241 409 241 409 265 418 c 0,6,7
 276 422 276 422 301.5 419.5 c 128,-1,8
 327 417 327 417 336 411 c 0,9,10
 342 407 342 407 343 407 c 0,11,12
 345 407 345 407 353.5 399.5 c 128,-1,13
 362 392 362 392 362 390 c 0,14,15
 362 389 362 389 369 380 c 0,16,17
 376 372 376 372 375 360 c 0,18,19
 373 341 373 341 376 338 c 0,20,21
 388 325 388 325 390 269 c 0,22,23
 390 256 390 256 393 253 c 0,24,25
 394 252 394 252 398 255.5 c 128,-1,26
 402 259 402 259 406.5 266 c 128,-1,27
 411 273 411 273 413 279 c 0,28,29
 430 320 430 320 404 387 c 0,30,31
 396 407 396 407 389 418 c 0,32,33
 382 428 382 428 366 444.5 c 128,-1,34
 350 461 350 461 344 464 c 0,35,36
 300 487 300 487 257 475 c 0,37,38
 225 465 225 465 202 445 c 0,39,40
 178 424 178 424 149 378.5 c 128,-1,41
 120 333 120 333 106 297 c 0,42,43
 90 253 90 253 99 197 c 0,44,45
 104 167 104 167 121 139.5 c 128,-1,46
 138 112 138 112 160 101 c 128,-1,47
 182 90 182 90 232 92 c 0,48,49
 293 96 293 96 366 122 c 0,50,51
 396 133 396 133 405 120 c 0,52,53
 410 113 410 113 411 113 c 0,54,55
 413 113 413 113 413 111 c 128,-1,56
 413 109 413 109 418 102 c 0,57,58
 427 89 427 89 418 82 c 0,59,60
 416 79 416 79 414 75 c 0,61,62
 412 64 412 64 377 50 c 0,63,64
 299 18 299 18 218 16 c 0,65,66
 171 14 171 14 161 20 c 0,67,68
 159 21 159 21 151 23 c 0,69,70
 134 27 134 27 107 44 c 0,71,72
 89 55 89 55 71 79 c 0,73,74
 64 88 64 88 63 88 c 0,75,76
 61 88 61 88 52.5 102 c 128,-1,77
 44 116 44 116 44 120 c 128,-1,78
 44 124 44 124 42 126 c 0,79,80
 38 130 38 130 26 172 c 0,81,82
 20 196 20 196 20 241 c 0,83,84
 20 267 20 267 33 316 c 0,85,86
 40 344 40 344 69 393.5 c 128,-1,87
 98 443 98 443 127 480 c 0,88,89
 133 488 133 488 153 505.5 c 128,-1,90
 173 523 173 523 179 526 c 0,91,92
 230 553 230 553 284 557 c 0,93,94
 316 558 316 558 337 551 c 0,95,96
 372 539 372 539 379 534 c 0,97,98
 380 534 380 534 385 531 c 128,-1,99
 390 528 390 528 392 527 c 0,100,101
 398 525 398 525 416 507.5 c 128,-1,102
 434 490 434 490 445 475 c 0,103,104
 462 453 462 453 474 421 c 0,105,106
 476 413 476 413 478 413 c 0,107,108
 479 413 479 413 483.5 398.5 c 128,-1,109
 488 384 488 384 488 383 c 0,110,111
 501 354 501 354 495 297 c 128,-1,112
 489 240 489 240 471 222 c 2,113,-1
 468 219 l 2,114,115
 466 216 466 216 464.5 214 c 128,-1,116
 463 212 463 212 459.5 208.5 c 128,-1,117
 456 205 456 205 454 202 c 128,-1,118
 452 199 452 199 448.5 195.5 c 128,-1,119
 445 192 445 192 442.5 190 c 128,-1,120
 440 188 440 188 438 186 c 128,-1,121
 436 184 436 184 434.5 183 c 128,-1,122
 433 182 433 182 432 183 c 128,-1,123
 431 184 431 184 417 178 c 128,-1,124
 403 172 403 172 387 172 c 0,125,126
 360 172 360 172 354 180 c 0,127,128
 351 183 351 183 348 185 c 0,129,130
 341 189 341 189 333 200 c 128,-1,131
 325 211 325 211 324 217 c 0,132,133
 322 225 322 225 321 225 c 0,134,135
 320 226 320 226 309.5 217 c 128,-1,136
 299 208 299 208 283 197.5 c 128,-1,137
 267 187 267 187 257 184 c 0,138,139
 217 176 217 176 209 177 c 0,140,141
 198 178 198 178 181 190 c 0,142,143
 174 195 174 195 170.5 198.5 c 128,-1,144
 167 202 167 202 165.5 203.5 c 128,-1,145
 164 205 164 205 161.5 211 c 128,-1,146
 159 217 159 217 157 221 c 0,147,148
 153 228 153 228 153 254 c 0,149,150
 153 308 153 308 182 351 c 0,151,152
 210 391 210 391 217 391 c 0,0,1
305 349 m 0,153,154
 294 353 294 353 273 340 c 0,155,156
 260 332 260 332 256 327.5 c 128,-1,157
 252 323 252 323 241 305 c 0,158,159
 231 288 231 288 227 271 c 0,160,161
 223 255 223 255 225 253 c 0,162,163
 226 252 226 252 234 255 c 0,164,165
 258 266 258 266 275 287 c 0,166,167
 283 298 283 298 288 303 c 0,168,169
 292 307 292 307 294 315 c 0,170,171
 297 326 297 326 302 335 c 0,172,173
 309 348 309 348 305 349 c 0,153,154
EndSplineSet
Validated: 33
EndChar

StartChar: A
Encoding: 65 65 36
Width: 452
GlyphClass: 2
Flags: W
LayerCount: 2
Fore
SplineSet
220 598 m 0,0,1
 237 601 237 601 258.5 598 c 128,-1,2
 280 595 280 595 289 588 c 0,3,4
 295 584 295 584 297 584 c 0,5,6
 300 584 300 584 316 569 c 128,-1,7
 332 554 332 554 338 545 c 0,8,9
 359 511 359 511 361 507 c 0,10,11
 363 502 363 502 366.5 494 c 128,-1,12
 370 486 370 486 371 484 c 0,13,14
 378 468 378 468 389 414.5 c 128,-1,15
 400 361 400 361 404 327 c 2,16,-1
 408 291 l 2,17,18
 418 205 418 205 411 107 c 0,19,20
 408 72 408 72 402 66 c 2,21,-1
 400 63 l 2,22,23
 399 60 399 60 398 59 c 0,24,25
 389 44 389 44 372 44 c 0,26,27
 365 44 365 44 347 55 c 0,28,29
 329 65 329 65 327 71.5 c 128,-1,30
 325 78 325 78 329 109 c 0,31,32
 334 160 334 160 331 220 c 2,33,-1
 330 244 l 1,34,35
 298 248 298 248 239.5 250.5 c 128,-1,36
 181 253 181 253 149 250 c 0,37,38
 144 250 144 250 138 249 c 128,-1,39
 132 248 132 248 128 248 c 2,40,-1
 124 247 l 1,41,-1
 113 203 l 2,42,43
 111 195 111 195 108.5 170.5 c 128,-1,44
 106 146 106 146 106 142 c 0,45,46
 99 97 99 97 99 86 c 0,47,48
 99 66 99 66 94 46 c 0,49,50
 92 35 92 35 83.5 31 c 128,-1,51
 75 27 75 27 54 27 c 128,-1,52
 33 27 33 27 28 32 c 128,-1,53
 23 37 23 37 22 57 c 0,54,55
 17 115 17 115 29 192 c 0,56,57
 48 310 48 310 56 333 c 0,58,59
 59 342 59 342 61 350 c 0,60,61
 62 364 62 364 79 407 c 0,62,63
 120 521 120 521 164 566 c 0,64,65
 193 595 193 595 220 598 c 0,0,1
260 512 m 0,66,67
 240 526 240 526 223 511 c 0,68,69
 189 480 189 480 170 421 c 0,70,71
 168 414 168 414 158 391 c 0,72,73
 154 384 154 384 152.5 378.5 c 128,-1,74
 151 373 151 373 149.5 365.5 c 128,-1,75
 148 358 148 358 146 351 c 0,76,77
 141 338 141 338 141 334 c 0,78,79
 141 333 141 333 180.5 331.5 c 128,-1,80
 220 330 220 330 261 328.5 c 128,-1,81
 302 327 302 327 304 327 c 2,82,-1
 321 326 l 2,83,84
 322 327 322 327 315 367.5 c 128,-1,85
 308 408 308 408 307 409 c 0,86,87
 301 418 301 418 298 447 c 0,88,89
 298 452 298 452 296 455.5 c 128,-1,90
 294 459 294 459 291.5 462.5 c 128,-1,91
 289 466 289 466 287 471 c 0,92,93
 274 503 274 503 260 512 c 0,66,67
EndSplineSet
Validated: 33
EndChar

StartChar: B
Encoding: 66 66 37
Width: 431
GlyphClass: 2
Flags: W
LayerCount: 2
Fore
SplineSet
344 540 m 128,-1,1
 345 540 345 540 349 536 c 128,-1,2
 353 532 353 532 355 532 c 0,3,4
 358 532 358 532 360 527 c 0,5,6
 368 512 368 512 374 512 c 0,7,8
 378 512 378 512 382.5 488.5 c 128,-1,9
 387 465 387 465 384 461 c 0,10,11
 383 460 383 460 381 447 c 0,12,13
 378 417 378 417 351 382 c 0,14,15
 323 349 323 349 311 343 c 0,16,17
 309 342 309 342 306 339 c 128,-1,18
 303 336 303 336 286 326 c 128,-1,19
 269 316 269 316 263 314 c 2,20,-1
 256 310 l 2,21,22
 256 309 256 309 266.5 303.5 c 128,-1,23
 277 298 277 298 288 292 c 2,24,-1
 300 286 l 2,25,26
 303 284 303 284 311 279.5 c 128,-1,27
 319 275 319 275 326 270.5 c 128,-1,28
 333 266 333 266 337 262 c 0,29,30
 345 254 345 254 346 254 c 0,31,32
 348 254 348 254 358 241 c 128,-1,33
 368 228 368 228 371 222 c 0,34,35
 377 213 377 213 384 196 c 0,36,37
 388 188 388 188 390 156 c 128,-1,38
 392 124 392 124 390 107 c 2,39,-1
 383 70 l 2,40,41
 375 43 375 43 372 39 c 0,42,43
 367 32 367 32 367 30 c 0,44,45
 367 27 367 27 354.5 15 c 128,-1,46
 342 3 342 3 333 -1 c 0,47,48
 321 -7 321 -7 285 -16 c 0,49,50
 276 -18 276 -18 245 -19 c 128,-1,51
 214 -20 214 -20 204 -18 c 0,52,53
 201 -18 201 -18 193.5 -17 c 128,-1,54
 186 -16 186 -16 183 -15 c 0,55,56
 169 -13 169 -13 142 -0.5 c 128,-1,57
 115 12 115 12 105 20 c 0,58,59
 102 23 102 23 87 23 c 0,60,61
 66 23 66 23 59 31 c 0,62,63
 50 41 50 41 48 150 c 0,64,65
 46 227 46 227 44 259 c 0,66,67
 36 333 36 333 38 341 c 0,68,69
 39 346 39 346 36.5 373.5 c 128,-1,70
 34 401 34 401 31 414 c 0,71,72
 24 454 24 454 24 466 c 0,73,74
 24 497 24 497 21 506 c 0,75,76
 19 515 19 515 21 519 c 0,77,78
 23 526 23 526 43 533 c 0,79,80
 46 534 46 534 54 541.5 c 128,-1,81
 62 549 62 549 70 549 c 0,82,83
 74 549 74 549 80.5 551 c 128,-1,84
 87 553 87 553 87 555 c 2,85,-1
 116 565 l 2,86,87
 166 582 166 582 193 578 c 0,88,89
 198 577 198 577 204 579 c 128,-1,90
 210 581 210 581 214 580 c 0,91,92
 215 580 215 580 218.5 579.5 c 128,-1,93
 222 579 222 579 227.5 578.5 c 128,-1,94
 233 578 233 578 237 578 c 0,95,96
 273 576 273 576 303 562 c 0,97,98
 321 554 321 554 322 553 c 0,99,100
 328 549 328 549 329 549 c 128,-1,101
 330 549 330 549 336.5 544.5 c 128,-1,0
 343 540 343 540 344 540 c 128,-1,1
236 501 m 0,102,103
 212 505 212 505 176 502 c 0,104,105
 128 497 128 497 99 487 c 0,106,107
 96 484 96 484 97 480.5 c 128,-1,108
 98 477 98 477 99.5 470.5 c 128,-1,109
 101 464 101 464 101 461 c 0,110,111
 101 452 101 452 104 442 c 0,112,113
 108 427 108 427 111.5 365.5 c 128,-1,114
 115 304 115 304 117 289 c 0,115,116
 126 194 126 194 124 158 c 0,117,118
 124 132 124 132 125 119 c 2,119,-1
 127 95 l 1,120,121
 139 91 139 91 139 88 c 0,122,123
 139 84 139 84 161 72 c 128,-1,124
 183 60 183 60 193 59 c 0,125,126
 196 58 196 58 231 56 c 0,127,128
 263 55 263 55 278 60 c 128,-1,129
 293 65 293 65 299 69 c 0,130,131
 307 76 307 76 312.5 102.5 c 128,-1,132
 318 129 318 129 315 146 c 0,133,134
 309 177 309 177 304 186 c 0,135,136
 299 196 299 196 291 202 c 0,137,138
 267 221 267 221 199 254 c 0,139,140
 157 275 157 275 143 287 c 0,141,142
 134 296 134 296 132.5 300 c 128,-1,143
 131 304 131 304 132 323 c 0,144,145
 132 333 132 333 135 339 c 0,146,147
 138 344 138 344 152 352 c 128,-1,148
 166 360 166 360 170 360 c 0,149,150
 179 360 179 360 221 377 c 0,151,152
 245 387 245 387 272 410.5 c 128,-1,153
 299 434 299 434 305 455 c 0,154,155
 308 467 308 467 305 473 c 0,156,157
 302 478 302 478 284 488 c 0,158,159
 266 497 266 497 261 497 c 0,160,161
 258 497 258 497 236 501 c 0,102,103
EndSplineSet
Validated: 33
EndChar

StartChar: C
Encoding: 67 67 38
Width: 468
GlyphClass: 2
Flags: W
LayerCount: 2
Fore
SplineSet
241 618 m 0,0,1
 253 620 253 620 271.5 617.5 c 128,-1,2
 290 615 290 615 295 611 c 0,3,4
 296 610 296 610 306 607 c 0,5,6
 315 605 315 605 344 585 c 0,7,8
 366 568 366 568 373 554 c 0,9,10
 374 553 374 553 380 542.5 c 128,-1,11
 386 532 386 532 389 524.5 c 128,-1,12
 392 517 392 517 391 511 c 0,13,14
 390 501 390 501 377 493 c 0,15,16
 368 487 368 487 362 484 c 0,17,18
 359 483 359 483 353.5 484.5 c 128,-1,19
 348 486 348 486 348 488 c 128,-1,20
 348 490 348 490 345 490 c 128,-1,21
 342 490 342 490 337 495 c 0,22,23
 314 518 314 518 284 534 c 0,24,25
 259 549 259 549 237 537 c 0,26,27
 227 532 227 532 209.5 513 c 128,-1,28
 192 494 192 494 181 478 c 0,29,30
 140 417 140 417 124 366 c 0,31,32
 121 359 121 359 118.5 350 c 128,-1,33
 116 341 116 341 114 336 c 128,-1,34
 112 331 112 331 112 330 c 0,35,36
 96 296 96 296 98 216 c 0,37,38
 99 177 99 177 105 159 c 0,39,40
 110 144 110 144 118 128 c 0,41,42
 134 100 134 100 159 88 c 0,43,44
 180 80 180 80 208.5 82 c 128,-1,45
 237 84 237 84 258 92 c 0,46,47
 314 115 314 115 347 146 c 0,48,49
 370 166 370 166 375 167 c 0,50,51
 377 167 377 167 383 170 c 0,52,53
 395 177 395 177 410 164 c 0,54,55
 426 151 426 151 428 143 c 0,56,57
 430 133 430 133 417 112 c 0,58,59
 413 105 413 105 395 87.5 c 128,-1,60
 377 70 377 70 374 70 c 0,61,62
 372 70 372 70 359.5 62.5 c 128,-1,63
 347 55 347 55 343 51 c 0,64,65
 336 45 336 45 302 29.5 c 128,-1,66
 268 14 268 14 262 14 c 0,67,68
 260 14 260 14 246 10 c 0,69,70
 227 4 227 4 194 5.5 c 128,-1,71
 161 7 161 7 140 14 c 0,72,73
 65 41 65 41 37 125 c 0,74,75
 36 129 36 129 31.5 140 c 128,-1,76
 27 151 27 151 24 161 c 128,-1,77
 21 171 21 171 20 181 c 0,78,79
 19 186 19 186 19 203.5 c 128,-1,80
 19 221 19 221 20 229 c 2,81,-1
 20 238 l 2,82,83
 21 246 21 246 21 252 c 0,84,85
 21 281 21 281 30 317 c 0,86,87
 40 360 40 360 43 365 c 0,88,89
 45 369 45 369 45 372 c 0,90,91
 45 376 45 376 50 389.5 c 128,-1,92
 55 403 55 403 58 407 c 0,93,94
 60 409 60 409 63 418 c 0,95,96
 67 434 67 434 101 492 c 0,97,98
 154 579 154 579 197 601 c 0,99,100
 220 613 220 613 241 618 c 0,0,1
EndSplineSet
Validated: 33
EndChar

StartChar: D
Encoding: 68 68 39
Width: 500
GlyphClass: 2
Flags: W
LayerCount: 2
Fore
SplineSet
365 520 m 128,-1,1
 366 520 366 520 375 511.5 c 128,-1,2
 384 503 384 503 386 503 c 2,3,-1
 391 498 l 2,4,5
 392 498 392 498 396.5 492 c 128,-1,6
 401 486 401 486 404 482 c 0,7,8
 420 464 420 464 433 438 c 0,9,10
 450 405 450 405 451 399 c 0,11,12
 452 395 452 395 453.5 388.5 c 128,-1,13
 455 382 455 382 456 372 c 0,14,15
 458 358 458 358 460 356 c 0,16,17
 462 353 462 353 461.5 349.5 c 128,-1,18
 461 346 461 346 459 336.5 c 128,-1,19
 457 327 457 327 457 322 c 0,20,21
 454 294 454 294 447 273 c 0,22,23
 445 267 445 267 442.5 260 c 128,-1,24
 440 253 440 253 438.5 248 c 128,-1,25
 437 243 437 243 437 242 c 0,26,27
 436 237 436 237 424.5 217.5 c 128,-1,28
 413 198 413 198 411 197 c 0,29,30
 410 197 410 197 410 195 c 0,31,32
 410 194 410 194 406 188.5 c 128,-1,33
 402 183 402 183 403 182 c 128,-1,34
 404 181 404 181 384 160.5 c 128,-1,35
 364 140 364 140 350 128 c 0,36,37
 312 95 312 95 270 75 c 0,38,39
 250 64 250 64 248 62 c 0,40,41
 243 55 243 55 195 41 c 128,-1,42
 147 27 147 27 130 27 c 0,43,44
 123 27 123 27 115 25 c 0,45,46
 87 19 87 19 65 26 c 0,47,48
 61 27 61 27 52 29.5 c 128,-1,49
 43 32 43 32 38 35 c 128,-1,50
 33 38 33 38 31 42 c 0,51,52
 29 48 29 48 28 48 c 0,53,54
 26 48 26 48 23 54 c 0,55,56
 20 62 20 62 20 95 c 0,57,58
 20 120 20 120 22.5 138.5 c 128,-1,59
 25 157 25 157 25 181 c 0,60,61
 26 200 26 200 31 317.5 c 128,-1,62
 36 435 36 435 36 499 c 0,63,64
 36 501 36 501 35.5 507.5 c 128,-1,65
 35 514 35 514 35 518 c 0,66,67
 34 535 34 535 56 565 c 0,68,69
 63 575 63 575 66.5 577.5 c 128,-1,70
 70 580 70 580 75.5 581 c 128,-1,71
 81 582 81 582 88 585 c 0,72,73
 94 587 94 587 124 595 c 1,74,-1
 159 595 l 2,75,76
 229 593 229 593 272 572 c 0,77,78
 277 570 277 570 292.5 563.5 c 128,-1,79
 308 557 308 557 320 549 c 0,80,81
 339 537 339 537 342 537 c 2,82,-1
 353 528 l 2,83,0
 364 520 364 520 365 520 c 128,-1,1
239 505 m 0,84,85
 215 516 215 516 178.5 523 c 128,-1,86
 142 530 142 530 120 525 c 0,87,88
 112 523 112 523 108 521.5 c 128,-1,89
 104 520 104 520 103 518 c 128,-1,90
 102 516 102 516 103 514.5 c 128,-1,91
 104 513 104 513 105.5 508.5 c 128,-1,92
 107 504 107 504 107 499 c 0,93,94
 107 497 107 497 110 467 c 0,95,96
 113 438 113 438 107 262 c 0,97,98
 105 142 105 142 98 115 c 0,99,100
 94 101 94 101 103 101 c 0,101,102
 123 101 123 101 195 124 c 0,103,104
 228 135 228 135 271 163 c 0,105,106
 293 178 293 178 322 210 c 128,-1,107
 351 242 351 242 362 266 c 0,108,109
 375 296 375 296 380 339 c 0,110,111
 382 366 382 366 367 398 c 0,112,113
 364 405 364 405 359.5 412 c 128,-1,114
 355 419 355 419 346.5 428 c 128,-1,115
 338 437 338 437 334.5 440.5 c 128,-1,116
 331 444 331 444 319 454.5 c 128,-1,117
 307 465 307 465 306 466 c 0,118,119
 271 495 271 495 264 495 c 0,120,121
 252 499 252 499 239 505 c 0,84,85
EndSplineSet
Validated: 33
EndChar

StartChar: E
Encoding: 69 69 40
Width: 474
GlyphClass: 2
Flags: W
LayerCount: 2
Fore
SplineSet
296 572 m 2,0,-1
 343 572 l 2,1,2
 396 571 396 571 411 563 c 0,3,4
 428 555 428 555 430 547 c 0,5,6
 431 543 431 543 431 538 c 0,7,8
 431 532 431 532 433 526 c 0,9,10
 439 511 439 511 424 503 c 0,11,12
 417 500 417 500 415 495 c 0,13,14
 406 479 406 479 376 490 c 0,15,16
 372 491 372 491 363 491 c 128,-1,17
 354 491 354 491 352 493 c 0,18,19
 341 501 341 501 273 490 c 0,20,21
 211 480 211 480 156 462 c 0,22,23
 151 460 151 460 145.5 458.5 c 128,-1,24
 140 457 140 457 135.5 455.5 c 128,-1,25
 131 454 131 454 130 454 c 0,26,27
 124 453 124 453 124 444 c 0,28,29
 124 443 124 443 124.5 426.5 c 128,-1,30
 125 410 125 410 125 398 c 2,31,-1
 125 361 l 1,32,33
 197 374 197 374 247 368 c 0,34,35
 251 368 251 368 274 361 c 0,36,37
 294 354 294 354 296 350 c 0,38,39
 297 349 297 349 301 345.5 c 128,-1,40
 305 342 305 342 307.5 339 c 128,-1,41
 310 336 310 336 309 333 c 2,42,-1
 311 331 l 2,43,44
 314 330 314 330 313 316.5 c 128,-1,45
 312 303 312 303 308 299 c 0,46,47
 305 295 305 295 291.5 288.5 c 128,-1,48
 278 282 278 282 274 282 c 0,49,50
 272 282 272 282 262 286 c 0,51,52
 243 295 243 295 172 294 c 2,53,-1
 122 294 l 1,54,-1
 121 262 l 2,55,56
 120 235 120 235 116.5 198.5 c 128,-1,57
 113 162 113 162 112 130 c 0,58,59
 110 72 110 72 112 65 c 0,60,61
 113 63 113 63 113.5 61 c 128,-1,62
 114 59 114 59 115 57 c 2,63,-1
 116 55 l 2,64,65
 119 52 119 52 236 81 c 0,66,67
 248 84 248 84 273 88.5 c 128,-1,68
 298 93 298 93 310 97 c 0,69,70
 318 100 318 100 338.5 102.5 c 128,-1,71
 359 105 359 105 374.5 105 c 128,-1,72
 390 105 390 105 392 103 c 0,73,74
 392 102 392 102 398 102 c 0,75,76
 411 102 411 102 422 91 c 0,77,78
 428 85 428 85 428 69 c 0,79,80
 428 48 428 48 419 41 c 128,-1,81
 410 34 410 34 387 32 c 0,82,83
 340 29 340 29 259 8 c 0,84,85
 210 -5 210 -5 197 -9 c 0,86,87
 189 -13 189 -13 154 -19.5 c 128,-1,88
 119 -26 119 -26 107 -26 c 0,89,90
 94 -26 94 -26 71 -22.5 c 128,-1,91
 48 -19 48 -19 43 -16 c 0,92,93
 39 -14 39 -14 37 -14 c 128,-1,94
 35 -14 35 -14 29 -6.5 c 128,-1,95
 23 1 23 1 21 6 c 128,-1,96
 19 11 19 11 21 26 c 0,97,98
 23 40 23 40 29 46 c 128,-1,99
 35 52 35 52 34 65 c 0,100,101
 31 97 31 97 42 246 c 0,102,103
 46 298 46 298 46 375 c 2,104,-1
 46 453 l 1,105,-1
 41 465 l 2,106,107
 36 477 36 477 36 482 c 0,108,109
 36 494 36 494 51 513 c 0,110,111
 60 522 60 522 77 522 c 0,112,113
 84 522 84 522 104 528 c 0,114,115
 137 538 137 538 154 542 c 0,116,117
 162 544 162 544 174.5 548.5 c 128,-1,118
 187 553 187 553 196.5 555.5 c 128,-1,119
 206 558 206 558 219 559 c 0,120,121
 237 560 237 560 268 566 c 0,122,123
 277 567 277 567 282.5 569 c 128,-1,124
 288 571 288 571 296 572 c 2,0,-1
EndSplineSet
Validated: 33
EndChar

StartChar: F
Encoding: 70 70 41
Width: 493
GlyphClass: 2
Flags: W
LayerCount: 2
Fore
SplineSet
158 579 m 0,0,1
 171 581 171 581 216 577.5 c 128,-1,2
 261 574 261 574 277 570 c 0,3,4
 282 568 282 568 335 564 c 0,5,6
 433 556 433 556 436 554 c 2,7,-1
 442 551 l 2,8,9
 449 551 449 551 453 531 c 0,10,11
 455 520 455 520 446.5 502.5 c 128,-1,12
 438 485 438 485 430 483 c 0,13,14
 410 483 410 483 391 484 c 0,15,16
 334 487 334 487 330 487 c 0,17,18
 315 488 315 488 305 489.5 c 128,-1,19
 295 491 295 491 289 491 c 128,-1,20
 283 491 283 491 265 494 c 128,-1,21
 247 497 247 497 244 497 c 0,22,23
 188 504 188 504 178.5 503 c 128,-1,24
 169 502 169 502 162 489 c 0,25,26
 159 484 159 484 149 446 c 0,27,28
 132 373 132 373 128 317 c 2,29,-1
 127 297 l 1,30,-1
 136 298 l 2,31,32
 137 298 137 298 179 301.5 c 128,-1,33
 221 305 221 305 235 307 c 0,34,35
 255 309 255 309 281 307 c 0,36,37
 302 305 302 305 304 304 c 0,38,39
 309 302 309 302 314.5 288.5 c 128,-1,40
 320 275 320 275 319 270 c 0,41,42
 318 266 318 266 314 261.5 c 128,-1,43
 310 257 310 257 308 257 c 0,44,45
 304 257 304 257 300 251 c 0,46,47
 286 236 286 236 222 228 c 2,48,-1
 162 223 l 1,49,-1
 119 220 l 1,50,-1
 116 188 l 2,51,52
 114 172 114 172 111 153 c 128,-1,53
 108 134 108 134 107 124 c 0,54,55
 105 98 105 98 98 76 c 0,56,57
 97 73 97 73 96 66.5 c 128,-1,58
 95 60 95 60 93.5 55.5 c 128,-1,59
 92 51 92 51 90 49 c 128,-1,60
 88 47 88 47 86 41.5 c 128,-1,61
 84 36 84 36 78 33 c 0,62,63
 70 30 70 30 55 32 c 0,64,65
 38 34 38 34 32.5 36.5 c 128,-1,66
 27 39 27 39 24 46 c 0,67,68
 17 59 17 59 25 109 c 0,69,70
 35 169 35 169 38 201 c 0,71,72
 40 228 40 228 43.5 271 c 128,-1,73
 47 314 47 314 48.5 328 c 128,-1,74
 50 342 50 342 53.5 369 c 128,-1,75
 57 396 57 396 64 429 c 0,76,77
 73 476 73 476 80 489 c 0,78,79
 82 493 82 493 87.5 510 c 128,-1,80
 93 527 93 527 96 532 c 0,81,82
 97 533 97 533 99 537 c 128,-1,83
 101 541 101 541 102 542 c 0,84,85
 106 552 106 552 124 564 c 128,-1,86
 142 576 142 576 158 579 c 0,0,1
EndSplineSet
Validated: 33
EndChar

StartChar: G
Encoding: 71 71 42
Width: 482
GlyphClass: 2
Flags: W
LayerCount: 2
Fore
SplineSet
197 581 m 0,0,1
 238 584 238 584 270 576 c 0,2,3
 304 567 304 567 320 561 c 2,4,-1
 364 545 l 2,5,6
 377 540 377 540 386 535.5 c 128,-1,7
 395 531 395 531 402 528 c 0,8,9
 419 522 419 522 421 510.5 c 128,-1,10
 423 499 423 499 414 481 c 0,11,12
 405 462 405 462 402 461 c 0,13,14
 390 456 390 456 382 460 c 128,-1,15
 374 464 374 464 353 470 c 0,16,17
 298 487 298 487 293 490 c 0,18,19
 279 496 279 496 243 504 c 0,20,21
 229 507 229 507 210.5 504.5 c 128,-1,22
 192 502 192 502 183 497 c 0,23,24
 176 493 176 493 163 481 c 128,-1,25
 150 469 150 469 150 467 c 0,26,27
 150 464 150 464 143 454 c 0,28,29
 125 428 125 428 125 423 c 0,30,31
 125 421 125 421 124 420 c 0,32,33
 119 413 119 413 111.5 390.5 c 128,-1,34
 104 368 104 368 103 359 c 0,35,36
 103 354 103 354 99 334 c 0,37,38
 96 316 96 316 98 286 c 0,39,40
 99 267 99 267 103.5 240 c 128,-1,41
 108 213 108 213 109 206 c 0,42,43
 110 194 110 194 122 171 c 0,44,45
 133 149 133 149 152 132 c 0,46,47
 186 102 186 102 228 97 c 0,48,49
 245 95 245 95 257 99 c 0,50,51
 284 108 284 108 314 142 c 0,52,53
 342 173 342 173 355 208 c 0,54,55
 366 237 366 237 366 260 c 0,56,57
 366 265 366 265 336 267 c 0,58,59
 329 267 329 267 304 265.5 c 128,-1,60
 279 264 279 264 262 263 c 128,-1,61
 245 262 245 262 238 264 c 0,62,63
 231 269 231 269 228.5 272 c 128,-1,64
 226 275 226 275 224 282 c 128,-1,65
 222 289 222 289 221 301 c 0,66,67
 220 317 220 317 224 323 c 0,68,69
 227 329 227 329 232 329 c 0,70,71
 235 329 235 329 235 331 c 0,72,73
 235 334 235 334 271 338.5 c 128,-1,74
 307 343 307 343 331 343 c 0,75,76
 372 343 372 343 380 337 c 0,77,78
 383 335 383 335 392 332 c 128,-1,79
 401 329 401 329 404 327 c 0,80,81
 406 326 406 326 412 323 c 128,-1,82
 418 320 418 320 421.5 318 c 128,-1,83
 425 316 425 316 428 312 c 128,-1,84
 431 308 431 308 431 303 c 2,85,-1
 434 300 l 2,86,87
 440 297 440 297 442 265 c 0,88,89
 443 251 443 251 437 213 c 0,90,91
 436 203 436 203 429 184 c 128,-1,92
 422 165 422 165 420 163 c 128,-1,93
 418 161 418 161 413 150 c 0,94,95
 409 140 409 140 399 128 c 0,96,97
 392 119 392 119 392 117 c 0,98,99
 392 111 392 111 358 77 c 128,-1,100
 324 43 324 43 319 44 c 0,101,102
 316 45 316 45 305.5 38.5 c 128,-1,103
 295 32 295 32 293 31 c 0,104,105
 286 28 286 28 284 27 c 0,106,107
 281 24 281 24 262 22 c 0,108,109
 221 16 221 16 181 30 c 0,110,111
 169 34 169 34 162 37.5 c 128,-1,112
 155 41 155 41 148 43 c 0,113,114
 142 45 142 45 133.5 50 c 128,-1,115
 125 55 125 55 122 57 c 0,116,117
 114 62 114 62 93.5 82 c 128,-1,118
 73 102 73 102 69 110 c 0,119,120
 67 114 67 114 66 114 c 2,121,-1
 62 120 l 2,122,123
 59 127 59 127 55 134 c 2,124,-1
 51 141 l 2,125,126
 41 151 41 151 33 196 c 0,127,128
 31 204 31 204 29 211.5 c 128,-1,129
 27 219 27 219 26 223 c 128,-1,130
 25 227 25 227 24 235 c 128,-1,131
 23 243 23 243 22 256 c 0,132,133
 19 286 19 286 21 310 c 0,134,135
 21 312 21 312 23.5 334.5 c 128,-1,136
 26 357 26 357 28 372 c 128,-1,137
 30 387 30 387 33 387 c 0,138,139
 34 387 34 387 34 390 c 128,-1,140
 34 393 34 393 38.5 405.5 c 128,-1,141
 43 418 43 418 43 420 c 0,142,143
 45 434 45 434 70.5 477.5 c 128,-1,144
 96 521 96 521 109 533 c 0,145,146
 121 544 121 544 146 559.5 c 128,-1,147
 171 575 171 575 177 575 c 0,148,149
 181 575 181 575 183 577 c 0,150,151
 185 581 185 581 197 581 c 0,0,1
EndSplineSet
Validated: 33
EndChar

StartChar: H
Encoding: 72 72 43
Width: 432
GlyphClass: 2
Flags: W
LayerCount: 2
Fore
SplineSet
306 333 m 1,0,-1
 306 346 l 2,1,2
 306 355 306 355 309 391 c 0,3,4
 313 439 313 439 313 460 c 0,5,6
 315 507 315 507 318 522 c 128,-1,7
 321 537 321 537 333 547 c 1,8,-1
 355 545 l 2,9,10
 377 543 377 543 383 537 c 0,11,12
 386 533 386 533 388 530 c 128,-1,13
 390 527 390 527 390.5 521 c 128,-1,14
 391 515 391 515 391.5 510.5 c 128,-1,15
 392 506 392 506 392 494.5 c 128,-1,16
 392 483 392 483 392 474 c 0,17,18
 393 424 393 424 386 307 c 128,-1,19
 379 190 379 190 378 158 c 0,20,21
 376 67 376 67 383 43 c 0,22,23
 388 28 388 28 372 20 c 0,24,25
 350 8 350 8 343 6 c 0,26,27
 328 0 328 0 319 11 c 0,28,29
 307 23 307 23 304 30.5 c 128,-1,30
 301 38 301 38 298 63 c 0,31,32
 296 74 296 74 296 127 c 128,-1,33
 296 180 296 180 297 182 c 0,34,35
 297 199 297 199 298 218 c 2,36,-1
 300 253 l 1,37,-1
 290 254 l 2,38,39
 266 257 266 257 174 241 c 0,40,41
 142 236 142 236 141 236 c 0,42,43
 128 236 128 236 116 231 c 1,44,-1
 114 204 l 2,45,46
 113 186 113 186 111.5 161.5 c 128,-1,47
 110 137 110 137 108 119 c 0,48,49
 100 32 100 32 99 29 c 0,50,51
 95 15 95 15 88 15 c 0,52,53
 86 15 86 15 83 12 c 0,54,55
 81 10 81 10 56 11 c 0,56,57
 33 13 33 13 33 14 c 128,-1,58
 33 15 33 15 30 18 c 128,-1,59
 27 21 27 21 23 31 c 0,60,61
 19 40 19 40 22 69 c 0,62,63
 22 76 22 76 23 84.5 c 128,-1,64
 24 93 24 93 25.5 101.5 c 128,-1,65
 27 110 27 110 27 113 c 0,66,67
 28 122 28 122 28 130 c 0,68,69
 27 131 27 131 31 188.5 c 128,-1,70
 35 246 35 246 38 266 c 0,71,72
 41 290 41 290 48 434 c 0,73,74
 53 528 53 528 58 536 c 0,75,76
 68 548 68 548 95 548 c 0,77,78
 111 548 111 548 115 546 c 128,-1,79
 119 544 119 544 121 536 c 0,80,81
 123 529 123 529 124 528 c 0,82,83
 128 525 128 525 129 465 c 128,-1,84
 130 405 130 405 126 343 c 2,85,-1
 124 315 l 2,86,87
 124 314 124 314 153 319.5 c 128,-1,88
 182 325 182 325 222 330 c 128,-1,89
 262 335 262 335 283 334 c 2,90,-1
 306 333 l 1,0,-1
EndSplineSet
Validated: 33
EndChar

StartChar: I
Encoding: 73 73 44
Width: 156
GlyphClass: 2
Flags: W
LayerCount: 2
Fore
SplineSet
43 563 m 0,0,1
 44 563 44 563 52 564 c 128,-1,2
 60 565 60 565 66 565 c 0,3,4
 82 565 82 565 87.5 562.5 c 128,-1,5
 93 560 93 560 95 551 c 0,6,7
 98 536 98 536 98 452 c 0,8,9
 98 403 98 403 100.5 343.5 c 128,-1,10
 103 284 103 284 103 240 c 0,11,12
 103 185 103 185 106.5 125.5 c 128,-1,13
 110 66 110 66 114 58 c 0,14,15
 116 53 116 53 116.5 41.5 c 128,-1,16
 117 30 117 30 115 23 c 0,17,18
 111 11 111 11 103.5 8 c 128,-1,19
 96 5 96 5 73 5 c 0,20,21
 62 5 62 5 57.5 7.5 c 128,-1,22
 53 10 53 10 46 21 c 0,23,24
 41 30 41 30 37 52 c 0,25,26
 30 91 30 91 27 219 c 0,27,28
 25 323 25 323 23 325 c 0,29,30
 22 326 22 326 20.5 408 c 128,-1,31
 19 490 19 490 20 499 c 0,32,33
 23 560 23 560 43 563 c 0,0,1
EndSplineSet
Validated: 33
EndChar

StartChar: J
Encoding: 74 74 45
Width: 551
GlyphClass: 2
Flags: W
LayerCount: 2
Fore
SplineSet
320 574 m 0,0,1
 358 582 358 582 362 582.5 c 128,-1,2
 366 583 366 583 391 587 c 128,-1,3
 416 591 416 591 419.5 589 c 128,-1,4
 423 587 423 587 460 589 c 0,5,6
 491 588 491 588 498.5 586.5 c 128,-1,7
 506 585 506 585 510 577 c 0,8,9
 514 571 514 571 510 541 c 0,10,11
 508 523 508 523 501 519 c 0,12,13
 492 513 492 513 469 514 c 0,14,15
 445 515 445 515 400.5 511.5 c 128,-1,16
 356 508 356 508 352 504 c 0,17,18
 351 504 351 504 345 502.5 c 128,-1,19
 339 501 339 501 333.5 499.5 c 128,-1,20
 328 498 328 498 328 497 c 2,21,-1
 329 494 l 2,22,23
 330 490 330 490 331.5 483.5 c 128,-1,24
 333 477 333 477 334 472 c 0,25,26
 349 410 349 410 349 376 c 0,27,28
 349 358 349 358 351 354 c 128,-1,29
 353 350 353 350 352 314 c 128,-1,30
 351 278 351 278 349 268 c 0,31,32
 349 266 349 266 346 251 c 128,-1,33
 343 236 343 236 340.5 223.5 c 128,-1,34
 338 211 338 211 336 208 c 0,35,36
 334 202 334 202 334 198 c 0,37,38
 334 190 334 190 322 163.5 c 128,-1,39
 310 137 310 137 299 122 c 0,40,41
 292 113 292 113 294 113 c 1,42,-1
 293 111 l 2,43,44
 292 109 292 109 290 106 c 2,45,-1
 289 104 l 2,46,47
 288 102 288 102 270.5 84 c 128,-1,48
 253 66 253 66 248 62 c 0,49,50
 244 60 244 60 240 56 c 0,51,52
 237 52 237 52 219.5 43.5 c 128,-1,53
 202 35 202 35 189 31 c 0,54,55
 143 17 143 17 116 27 c 0,56,57
 88 37 88 37 77 43 c 0,58,59
 75 44 75 44 73 45.5 c 128,-1,60
 71 47 71 47 69.5 47.5 c 128,-1,61
 68 48 68 48 66.5 49 c 128,-1,62
 65 50 65 50 64 50 c 2,63,-1
 63 51 l 2,64,65
 61 51 61 51 47.5 66 c 128,-1,66
 34 81 34 81 32 85 c 0,67,68
 18 110 18 110 21 132 c 0,69,70
 23 143 23 143 27 147 c 128,-1,71
 31 151 31 151 47 155 c 0,72,73
 65 159 65 159 69 158 c 0,74,75
 81 153 81 153 89 139 c 0,76,77
 102 117 102 117 124 105 c 2,78,-1
 139 97 l 1,79,-1
 157 102 l 2,80,81
 178 107 178 107 187 111.5 c 128,-1,82
 196 116 196 116 212 133 c 0,83,84
 234 157 234 157 244 176 c 0,85,86
 275 236 275 236 275 316 c 0,87,88
 275 343 275 343 273.5 364.5 c 128,-1,89
 272 386 272 386 271 394 c 128,-1,90
 270 402 270 402 264.5 428.5 c 128,-1,91
 259 455 259 455 257 465 c 0,92,93
 253 485 253 485 250 485 c 0,94,95
 243 485 243 485 195 474 c 0,96,97
 180 471 180 471 157.5 474 c 128,-1,98
 135 477 135 477 125 484 c 0,99,100
 118 488 118 488 116.5 493.5 c 128,-1,101
 115 499 115 499 117 515 c 0,102,103
 119 532 119 532 125 538 c 0,104,105
 136 548 136 548 172 550 c 0,106,107
 237 556 237 556 320 574 c 0,0,1
EndSplineSet
Validated: 33
EndChar

StartChar: K
Encoding: 75 75 46
Width: 469
GlyphClass: 2
Flags: W
LayerCount: 2
Fore
SplineSet
317 591 m 0,0,1
 335 593 335 593 339 588 c 0,2,3
 359 565 359 565 361 555.5 c 128,-1,4
 363 546 363 546 354 531 c 0,5,6
 351 523 351 523 333.5 508 c 128,-1,7
 316 493 316 493 306 488 c 0,8,9
 296 482 296 482 244 426 c 128,-1,10
 192 370 192 370 176 349 c 0,11,12
 166 336 166 336 169 334 c 0,13,14
 176 330 176 330 180 321 c 0,15,16
 184 313 184 313 204 296 c 128,-1,17
 224 279 224 279 242 266 c 2,18,-1
 261 252 l 2,19,20
 267 252 267 252 301 218 c 0,21,22
 363 158 363 158 363 155 c 0,23,24
 363 154 363 154 372.5 141.5 c 128,-1,25
 382 129 382 129 386 125 c 0,26,27
 400 113 400 113 424 61 c 0,28,29
 432 43 432 43 428 13 c 0,30,31
 428 11 428 11 423.5 6 c 128,-1,32
 419 1 419 1 417 1 c 128,-1,33
 415 1 415 1 412 -2 c 128,-1,34
 409 -5 409 -5 394.5 -6 c 128,-1,35
 380 -7 380 -7 378 -4 c 0,36,37
 375 -1 375 -1 371 -1 c 0,38,39
 356 -1 356 -1 352 27 c 2,40,-1
 349 44 l 1,41,42
 323 93 323 93 259 152 c 0,43,44
 242 168 242 168 240 171 c 0,45,46
 239 173 239 173 226.5 184.5 c 128,-1,47
 214 196 214 196 212 196 c 0,48,49
 211 196 211 196 188.5 213 c 128,-1,50
 166 230 166 230 163 233 c 0,51,52
 142 254 142 254 122 264 c 1,53,-1
 122 217 l 1,54,-1
 122 114 l 2,55,56
 122 60 122 60 119 52 c 0,57,58
 115 43 115 43 109.5 41 c 128,-1,59
 104 39 104 39 85 37 c 128,-1,60
 66 35 66 35 59 38 c 128,-1,61
 52 41 52 41 48 52 c 0,62,63
 45 58 45 58 46 109 c 0,64,65
 47 276 47 276 31 394 c 0,66,67
 29 408 29 408 29 419 c 0,68,69
 29 456 29 456 22 472 c 0,70,71
 18 482 18 482 21 517.5 c 128,-1,72
 24 553 24 553 32 562 c 0,73,74
 36 566 36 566 54 565 c 0,75,76
 82 563 82 563 85 557 c 0,77,78
 88 553 88 553 88 543 c 0,79,80
 88 532 88 532 95 508 c 0,81,82
 98 496 98 496 97 487 c 0,83,84
 97 485 97 485 102 446 c 0,85,86
 103 439 103 439 105 424 c 2,87,-1
 107 408 l 2,88,89
 109 393 109 393 108 392 c 0,90,91
 106 390 106 390 108 388 c 0,92,93
 108 387 108 387 112 390.5 c 128,-1,94
 116 394 116 394 120.5 399.5 c 128,-1,95
 125 405 125 405 128 409 c 0,96,97
 138 425 138 425 181.5 470.5 c 128,-1,98
 225 516 225 516 262 549 c 0,99,100
 283 568 283 568 283 570 c 128,-1,101
 283 572 283 572 297.5 581 c 128,-1,102
 312 590 312 590 317 591 c 0,0,1
EndSplineSet
Validated: 33
EndChar

StartChar: L
Encoding: 76 76 47
Width: 449
GlyphClass: 2
Flags: W
LayerCount: 2
Fore
SplineSet
45 549 m 0,0,1
 53 555 53 555 77 555 c 0,2,3
 99 555 99 555 103 551 c 0,4,5
 110 545 110 545 112 495 c 0,6,7
 114 469 114 469 111.5 414 c 128,-1,8
 109 359 109 359 105 336 c 0,9,10
 104 332 104 332 98 214 c 0,11,12
 93 116 93 116 110 82 c 0,13,14
 114 74 114 74 121 73 c 0,15,16
 133 71 133 71 172 80 c 128,-1,17
 211 89 211 89 232 99 c 0,18,19
 256 110 256 110 290 115 c 0,20,21
 296 116 296 116 315.5 119.5 c 128,-1,22
 335 123 335 123 338.5 123 c 128,-1,23
 342 123 342 123 363 122 c 0,24,25
 396 116 396 116 397 112 c 0,26,27
 398 109 398 109 400 109 c 0,28,29
 405 109 405 109 409 90 c 0,30,31
 411 83 411 83 402 65 c 0,32,33
 394 48 394 48 388 45 c 128,-1,34
 382 42 382 42 362 44 c 0,35,36
 318 47 318 47 245 22 c 0,37,38
 234 19 234 19 210.5 12.5 c 128,-1,39
 187 6 187 6 178 3 c 0,40,41
 158 -5 158 -5 112 -5 c 0,42,43
 106 -5 106 -5 90 1.5 c 128,-1,44
 74 8 74 8 70 12 c 0,45,46
 61 22 61 22 58 25 c 0,47,48
 36 45 36 45 26 91 c 0,49,50
 13 145 13 145 24 283 c 0,51,52
 25 297 25 297 27 332.5 c 128,-1,53
 29 368 29 368 31 394 c 0,54,55
 34 423 34 423 36 475 c 0,56,57
 38 545 38 545 45 549 c 0,0,1
EndSplineSet
Validated: 33
EndChar

StartChar: M
Encoding: 77 77 48
Width: 517
GlyphClass: 2
Flags: W
LayerCount: 2
Fore
SplineSet
371 601 m 128,-1,1
 375 603 375 603 392.5 602 c 128,-1,2
 410 601 410 601 417 598 c 128,-1,3
 424 595 424 595 439.5 580 c 128,-1,4
 455 565 455 565 455 561 c 0,5,6
 455 558 455 558 468 523 c 0,7,8
 476 505 476 505 478 423 c 0,9,10
 479 351 479 351 470 267 c 0,11,12
 468 253 468 253 466 223 c 128,-1,13
 464 193 464 193 461 174 c 0,14,15
 456 140 456 140 456 100.5 c 128,-1,16
 456 61 456 61 461 49 c 0,17,18
 464 40 464 40 461 33 c 0,19,20
 457 25 457 25 456 25 c 0,21,22
 453 25 453 25 443 13 c 0,23,24
 441 10 441 10 431 8 c 128,-1,25
 421 6 421 6 415 7 c 0,26,27
 406 10 406 10 398 18 c 0,28,29
 387 28 387 28 383 44 c 0,30,31
 379 58 379 58 379 98 c 0,32,33
 379 172 379 172 386 200 c 0,34,35
 390 216 390 216 397 336 c 1,36,-1
 399 356 l 2,37,38
 402 360 402 360 400.5 415 c 128,-1,39
 399 470 399 470 395 492 c 0,40,41
 389 526 389 526 383 526 c 0,42,43
 378 526 378 526 354.5 497 c 128,-1,44
 331 468 331 468 309 435 c 0,45,46
 272 381 272 381 240 355 c 0,47,48
 235 351 235 351 220 345.5 c 128,-1,49
 205 340 205 340 199 340 c 0,50,51
 168 340 168 340 160 346 c 0,52,53
 157 349 157 349 148 355.5 c 128,-1,54
 139 362 139 362 134 367 c 2,55,-1
 124 376 l 2,56,57
 122 376 122 376 106 395 c 2,58,-1
 96 407 l 1,59,-1
 97 346 l 1,60,-1
 99 279 l 2,61,62
 100 275 100 275 103 227.5 c 128,-1,63
 106 180 106 180 106 174 c 0,64,65
 106 173 106 173 107 159.5 c 128,-1,66
 108 146 108 146 108.5 132.5 c 128,-1,67
 109 119 109 119 109 117 c 0,68,69
 107 114 107 114 111 91 c 0,70,71
 113 72 113 72 112.5 42.5 c 128,-1,72
 112 13 112 13 109 4 c 2,73,-1
 108 2 l 2,74,75
 109 1 109 1 104 -7 c 128,-1,76
 99 -15 99 -15 97 -16 c 128,-1,77
 95 -17 95 -17 76 -19 c 0,78,79
 58 -21 58 -21 53 -17 c 0,80,81
 48 -14 48 -14 48 -10 c 0,82,83
 48 -9 48 -9 47 -7 c 128,-1,84
 46 -5 46 -5 45 -1 c 128,-1,85
 44 3 44 3 43 6 c 0,86,87
 40 13 40 13 36 45 c 0,88,89
 32 87 32 87 31 118 c 0,90,91
 29 176 29 176 27 186 c 0,92,93
 25 198 25 198 25 221 c 0,94,95
 25 231 25 231 23 259 c 0,96,97
 20 304 20 304 20 380 c 0,98,99
 19 468 19 468 22 492 c 128,-1,100
 25 516 25 516 36 528 c 0,101,102
 46 538 46 538 68 540 c 0,103,104
 73 540 73 540 81 537 c 128,-1,105
 89 534 89 534 90 531 c 0,106,107
 92 529 92 529 93 530 c 128,-1,108
 94 531 94 531 110.5 514.5 c 128,-1,109
 127 498 127 498 127 496 c 0,110,111
 127 495 127 495 138 480 c 0,112,113
 159 452 159 452 161 449 c 0,114,115
 184 418 184 418 194 418 c 0,116,117
 198 418 198 418 215.5 438.5 c 128,-1,118
 233 459 233 459 248 481 c 0,119,120
 259 497 259 497 269 510.5 c 128,-1,121
 279 524 279 524 287 536 c 0,122,123
 294 546 294 546 310 563 c 128,-1,124
 326 580 326 580 328 580 c 0,125,126
 329 580 329 580 340.5 588 c 128,-1,127
 352 596 352 596 353 598 c 0,128,129
 353 599 353 599 361 599 c 0,130,0
 367 599 367 599 371 601 c 128,-1,1
EndSplineSet
Validated: 33
EndChar

StartChar: N
Encoding: 78 78 49
Width: 454
GlyphClass: 2
Flags: W
LayerCount: 2
Fore
SplineSet
346 621 m 0,0,1
 364 638 364 638 390 624 c 0,2,3
 412 612 412 612 414 603 c 0,4,5
 415 589 415 589 413 583 c 0,6,7
 401 556 401 556 399 524 c 0,8,9
 392 437 392 437 396 373 c 0,10,11
 406 250 406 250 398 153 c 0,12,13
 395 113 395 113 385 98 c 0,14,15
 377 87 377 87 374 86 c 0,16,17
 352 80 352 80 350 80 c 0,18,19
 335 80 335 80 324 89 c 0,20,21
 323 90 323 90 319 92.5 c 128,-1,22
 315 95 315 95 312.5 97 c 128,-1,23
 310 99 310 99 310 102 c 0,24,25
 308 108 308 108 285 141 c 128,-1,26
 262 174 262 174 253 184 c 0,27,28
 247 191 247 191 210 238 c 0,29,30
 157 305 157 305 115 375 c 2,31,-1
 99 401 l 1,32,-1
 101 370 l 2,33,34
 101 360 101 360 103.5 318.5 c 128,-1,35
 106 277 106 277 107 250 c 0,36,37
 107 237 107 237 109 204 c 128,-1,38
 111 171 111 171 111 157 c 0,39,40
 111 152 111 152 113 128 c 0,41,42
 121 59 121 59 111 45 c 0,43,44
 107 38 107 38 76 34 c 0,45,46
 59 32 59 32 54 34 c 0,47,48
 42 40 42 40 42 53 c 0,49,50
 42 61 42 61 40 64 c 0,51,52
 29 88 29 88 29 184 c 0,53,54
 29 207 29 207 25.5 252.5 c 128,-1,55
 22 298 22 298 21 312 c 0,56,57
 19 377 19 377 20 495 c 0,58,59
 20 557 20 557 29 565 c 0,60,61
 50 586 50 586 65 584 c 2,62,-1
 77 584 l 2,63,64
 81 584 81 584 90 576 c 2,65,-1
 100 569 l 2,66,67
 102 569 102 569 104 565 c 128,-1,68
 106 561 106 561 108 556 c 128,-1,69
 110 551 110 551 111 550 c 0,70,71
 113 546 113 546 113 545 c 0,72,73
 112 543 112 543 138 495 c 0,74,75
 183 414 183 414 205 381 c 0,76,77
 253 308 253 308 292 263 c 0,78,79
 306 247 306 247 313 238 c 2,80,-1
 319 231 l 1,81,-1
 318 277 l 2,82,83
 318 284 318 284 315 383 c 0,84,85
 310 502 310 502 320 557 c 0,86,87
 328 605 328 605 346 621 c 0,0,1
EndSplineSet
Validated: 33
EndChar

StartChar: O
Encoding: 79 79 50
Width: 489
GlyphClass: 2
Flags: W
LayerCount: 2
Fore
SplineSet
188 577 m 0,0,1
 212 587 212 587 248 572 c 0,2,3
 252 571 252 571 271 567 c 128,-1,4
 290 563 290 563 294 561 c 0,5,6
 295 561 295 561 315.5 550.5 c 128,-1,7
 336 540 336 540 341 536 c 0,8,9
 343 535 343 535 346 533 c 0,10,11
 348 531 348 531 350 530 c 2,12,-1
 351 530 l 2,13,14
 352 530 352 530 366 518 c 128,-1,15
 380 506 380 506 383 502 c 2,16,-1
 390 495 l 2,17,18
 417 470 417 470 438 414 c 0,19,20
 447 390 447 390 449 344 c 0,21,22
 449 288 449 288 443 263 c 0,23,24
 433 219 433 219 409 173 c 0,25,26
 376 109 376 109 369 102 c 0,27,28
 368 101 368 101 356 87 c 0,29,30
 303 21 303 21 246 0 c 0,31,32
 223 -8 223 -8 209 -10 c 0,33,34
 200 -12 200 -12 180 -11 c 128,-1,35
 160 -10 160 -10 156 -8 c 2,36,-1
 132 4 l 2,37,38
 87 27 87 27 63 76 c 0,39,40
 41 121 41 121 32 157 c 0,41,42
 27 176 27 176 24 209 c 0,43,44
 23 225 23 225 20 241 c 0,45,46
 19 251 19 251 21 288.5 c 128,-1,47
 23 326 23 326 25 337 c 0,48,49
 26 342 26 342 29.5 357 c 128,-1,50
 33 372 33 372 34 378 c 0,51,52
 38 407 38 407 46 415 c 2,53,-1
 62 445 l 2,54,55
 99 518 99 518 141 552 c 0,56,57
 153 562 153 562 158 565 c 128,-1,58
 163 568 163 568 171.5 571 c 128,-1,59
 180 574 180 574 188 577 c 0,0,1
203 503 m 0,60,61
 201 505 201 505 199 505 c 0,62,63
 196 505 196 505 179.5 487 c 128,-1,64
 163 469 163 469 155 456 c 0,65,66
 105 380 105 380 97 299 c 0,67,68
 93 260 93 260 102 210 c 0,69,70
 103 207 103 207 106 181 c 0,71,72
 110 150 110 150 132 107 c 0,73,74
 137 98 137 98 147.5 86.5 c 128,-1,75
 158 75 158 75 166 71 c 0,76,77
 187 61 187 61 213 70 c 0,78,79
 216 71 216 71 220.5 72.5 c 128,-1,80
 225 74 225 74 227.5 75 c 128,-1,81
 230 76 230 76 231 76 c 0,82,83
 241 79 241 79 270.5 108.5 c 128,-1,84
 300 138 300 138 313 157 c 0,85,86
 336 190 336 190 353 231 c 0,87,88
 372 275 372 275 372 339 c 0,89,90
 372 365 372 365 366 380 c 0,91,92
 360 398 360 398 360 400 c 0,93,94
 360 404 360 404 348.5 421 c 128,-1,95
 337 438 337 438 327 449 c 0,96,97
 300 478 300 478 270 487 c 0,98,99
 247 494 247 494 239 488 c 0,100,101
 231 483 231 483 219.5 489.5 c 128,-1,102
 208 496 208 496 203 503 c 0,60,61
EndSplineSet
Validated: 33
EndChar

StartChar: P
Encoding: 80 80 51
Width: 459
GlyphClass: 2
Flags: W
LayerCount: 2
Fore
SplineSet
415 384 m 2,0,-1
 406 361 l 1,1,-1
 404 357 l 2,2,3
 403 353 403 353 400 347.5 c 128,-1,4
 397 342 397 342 395 339 c 2,5,-1
 391 332 l 2,6,7
 392 330 392 330 374 312 c 128,-1,8
 356 294 356 294 349 289 c 0,9,10
 309 262 309 262 262 248 c 0,11,12
 246 243 246 243 204.5 241.5 c 128,-1,13
 163 240 163 240 140 243 c 0,14,15
 117 245 117 245 116 244 c 0,16,17
 111 242 111 242 115 165 c 0,18,19
 118 88 118 88 123 79 c 0,20,21
 125 75 125 75 126.5 59 c 128,-1,22
 128 43 128 43 126 36 c 0,23,24
 124 26 124 26 119.5 21.5 c 128,-1,25
 115 17 115 17 100 12 c 0,26,27
 81 6 81 6 74 9 c 0,28,29
 66 13 66 13 60 19 c 128,-1,30
 54 25 54 25 49 44 c 0,31,32
 38 93 38 93 38 208 c 0,33,34
 38 261 38 261 40 307.5 c 128,-1,35
 42 354 42 354 43 380 c 0,36,37
 43 391 43 391 43.5 407.5 c 128,-1,38
 44 424 44 424 44.5 435 c 128,-1,39
 45 446 45 446 45 450 c 2,40,-1
 46 468 l 1,41,-1
 37 471 l 2,42,43
 13 481 13 481 22 509 c 0,44,45
 30 534 30 534 41 541 c 0,46,47
 46 544 46 544 52 550 c 128,-1,48
 58 556 58 556 71 563 c 128,-1,49
 84 570 84 570 101 577.5 c 128,-1,50
 118 585 118 585 124 588 c 0,51,52
 146 598 146 598 189 605 c 0,53,54
 216 609 216 609 254 599 c 0,55,56
 290 588 290 588 291 588 c 0,57,58
 305 582 305 582 308 581 c 0,59,60
 319 576 319 576 341 560 c 128,-1,61
 363 544 363 544 367 539 c 0,62,63
 368 536 368 536 371 536 c 0,64,65
 373 536 373 536 376 531 c 0,66,67
 377 529 377 529 387 518 c 128,-1,68
 397 507 397 507 399 501 c 0,69,70
 403 493 403 493 404 492 c 0,71,72
 409 489 409 489 415 458 c 0,73,74
 417 448 417 448 418 447 c 0,75,76
 419 445 419 445 419 420 c 128,-1,77
 419 395 419 395 417 392 c 0,78,79
 415 388 415 388 415 384 c 2,0,-1
238 526 m 0,80,81
 181 538 181 538 124 515 c 0,82,83
 119 512 119 512 119 506 c 0,84,85
 119 499 119 499 121 497 c 0,86,87
 124 492 124 492 121 416 c 0,88,89
 118 346 118 346 120 323 c 1,90,-1
 132 321 l 2,91,92
 143 319 143 319 177 318.5 c 128,-1,93
 211 318 211 318 229 320 c 0,94,95
 253 323 253 323 282.5 337.5 c 128,-1,96
 312 352 312 352 322 367 c 0,97,98
 333 382 333 382 339.5 399 c 128,-1,99
 346 416 346 416 342 420 c 0,100,101
 340 422 340 422 340 431 c 0,102,103
 340 449 340 449 326 471 c 0,104,105
 314 489 314 489 288 505.5 c 128,-1,106
 262 522 262 522 238 526 c 0,80,81
EndSplineSet
Validated: 33
EndChar

StartChar: Q
Encoding: 81 81 52
Width: 578
GlyphClass: 2
Flags: W
LayerCount: 2
Fore
SplineSet
204 600 m 0,0,1
 225 613 225 613 252 613 c 0,2,3
 266 613 266 613 292 602 c 0,4,5
 293 602 293 602 295 601 c 128,-1,6
 297 600 297 600 298.5 599.5 c 128,-1,7
 300 599 300 599 301 599 c 0,8,9
 306 599 306 599 325 591.5 c 128,-1,10
 344 584 344 584 353 577 c 0,11,12
 379 560 379 560 404 527 c 0,13,14
 433 485 433 485 449 442 c 0,15,16
 470 385 470 385 470 373 c 0,17,18
 470 366 470 366 472.5 351.5 c 128,-1,19
 475 337 475 337 475 329 c 0,20,21
 478 283 478 283 475 277 c 0,22,23
 472 270 472 270 473 265 c 0,24,25
 474 256 474 256 455 195 c 0,26,27
 446 170 446 170 444 168 c 2,28,-1
 433 148 l 2,29,30
 433 147 433 147 443 141.5 c 128,-1,31
 453 136 453 136 456 135 c 2,32,-1
 476 124 l 2,33,34
 496 112 496 112 497 112 c 0,35,36
 499 112 499 112 519 92 c 2,37,-1
 539 73 l 1,38,-1
 538 63 l 2,39,40
 537 53 537 53 528 45 c 0,41,42
 527 44 527 44 519.5 36.5 c 128,-1,43
 512 29 512 29 505 23.5 c 128,-1,44
 498 18 498 18 496 19 c 0,45,46
 479 24 479 24 465 37 c 0,47,48
 442 58 442 58 395 82 c 2,49,-1
 385 87 l 1,50,-1
 376 78 l 2,51,52
 350 52 350 52 334 45 c 0,53,54
 332 44 332 44 307 31 c 128,-1,55
 282 18 282 18 272 16 c 0,56,57
 234 6 234 6 220 9 c 0,58,59
 214 11 214 11 206 11 c 0,60,61
 193 11 193 11 161.5 27 c 128,-1,62
 130 43 130 43 111 60 c 128,-1,63
 92 77 92 77 81 94 c 128,-1,64
 70 111 70 111 51 151 c 0,65,66
 49 155 49 155 43 171.5 c 128,-1,67
 37 188 37 188 34 193 c 0,68,69
 29 204 29 204 22 256 c 0,70,71
 13 321 13 321 29 374 c 0,72,73
 51 452 51 452 100 515 c 0,74,75
 116 536 116 536 147.5 562.5 c 128,-1,76
 179 589 179 589 193 594 c 0,77,78
 194 594 194 594 198 596.5 c 128,-1,79
 202 599 202 599 204 600 c 0,0,1
278 517 m 0,80,81
 269 525 269 525 263 525.5 c 128,-1,82
 257 526 257 526 247 519 c 0,83,84
 225 504 225 504 210 510 c 0,85,86
 204 512 204 512 193 502 c 0,87,88
 166 477 166 477 141 443 c 0,89,90
 131 429 131 429 119 398 c 128,-1,91
 107 367 107 367 102 346 c 0,92,93
 97 319 97 319 98 283 c 0,94,95
 99 240 99 240 104.5 219.5 c 128,-1,96
 110 199 110 199 130 161 c 0,97,98
 141 140 141 140 159 121 c 0,99,100
 185 94 185 94 214 89 c 0,101,102
 230 85 230 85 239.5 86 c 128,-1,103
 249 87 249 87 270 97 c 0,104,105
 283 103 283 103 297 112 c 128,-1,106
 311 121 311 121 311 123 c 0,107,108
 311 124 311 124 308 126.5 c 128,-1,109
 305 129 305 129 301 132 c 2,110,-1
 297 135 l 2,111,112
 257 164 257 164 247 175 c 2,113,-1
 230 192 l 2,114,115
 219 200 219 200 218 212 c 0,116,117
 217 221 217 221 228 234 c 0,118,119
 237 245 237 245 239.5 247 c 128,-1,120
 242 249 242 249 250 250 c 0,121,122
 254 251 254 251 259 251 c 0,123,124
 260 251 260 251 267.5 246 c 128,-1,125
 275 241 275 241 285.5 234.5 c 128,-1,126
 296 228 296 228 302 223 c 0,127,128
 319 211 319 211 339 198 c 2,129,-1
 364 182 l 1,130,-1
 373 198 l 2,131,132
 384 217 384 217 394 252 c 0,133,134
 398 265 398 265 398 302 c 0,135,136
 398 357 398 357 380 406 c 0,137,138
 359 463 359 463 336 491 c 1,139,140
 318 477 318 477 306 490 c 0,141,142
 299 498 299 498 278 517 c 0,80,81
EndSplineSet
Validated: 33
EndChar

StartChar: R
Encoding: 82 82 53
Width: 446
GlyphClass: 2
Flags: W
LayerCount: 2
Fore
SplineSet
253 604 m 0,0,1
 255 606 255 606 279 603 c 128,-1,2
 303 600 303 600 318 596 c 0,3,4
 333 591 333 591 337 591 c 0,5,6
 338 591 338 591 347.5 587 c 128,-1,7
 357 583 357 583 359 583 c 0,8,9
 361 584 361 584 365.5 580 c 128,-1,10
 370 576 370 576 371 576 c 128,-1,11
 372 576 372 576 376 571.5 c 128,-1,12
 380 567 380 567 382 566 c 0,13,14
 385 565 385 565 390.5 554.5 c 128,-1,15
 396 544 396 544 398 543 c 0,16,17
 400 541 400 541 400 537 c 0,18,19
 400 535 400 535 404 526.5 c 128,-1,20
 408 518 408 518 407 515 c 0,21,22
 401 477 401 477 399 473 c 0,23,24
 395 466 395 466 392.5 456.5 c 128,-1,25
 390 447 390 447 385 439 c 0,26,27
 377 426 377 426 366 411 c 0,28,29
 361 405 361 405 357.5 399.5 c 128,-1,30
 354 394 354 394 351 390 c 128,-1,31
 348 386 348 386 338 377 c 0,32,33
 297 339 297 339 260 319 c 0,34,35
 226 300 226 300 191 284 c 1,36,-1
 218 260 l 2,37,38
 244 238 244 238 251 228 c 0,39,40
 255 222 255 222 258 222 c 0,41,42
 260 223 260 223 282 200.5 c 128,-1,43
 304 178 304 178 309 171 c 0,44,45
 311 169 311 169 313 165 c 2,46,-1
 315 162 l 2,47,48
 322 156 322 156 338.5 131 c 128,-1,49
 355 106 355 106 355 102 c 0,50,51
 355 99 355 99 357 101 c 0,52,53
 358 102 358 102 367.5 83.5 c 128,-1,54
 377 65 377 65 385.5 45 c 128,-1,55
 394 25 394 25 394 23 c 0,56,57
 392 11 392 11 388.5 7 c 128,-1,58
 385 3 385 3 368 -6 c 0,59,60
 354 -14 354 -14 349 -12 c 0,61,62
 330 -7 330 -7 326 -2 c 0,63,64
 323 1 323 1 310 27 c 0,65,66
 280 84 280 84 262 106 c 0,67,68
 249 121 249 121 247 125 c 0,69,70
 236 140 236 140 172 197 c 0,71,72
 131 233 131 233 108 261 c 1,73,-1
 106 231 l 2,74,75
 106 223 106 223 105.5 211 c 128,-1,76
 105 199 105 199 104 182.5 c 128,-1,77
 103 166 103 166 103 158 c 0,78,79
 99 132 99 132 102 110.5 c 128,-1,80
 105 89 105 89 106 70 c 0,81,82
 107 42 107 42 96 19 c 0,83,84
 92 12 92 12 88 8 c 128,-1,85
 84 4 84 4 82 5 c 0,86,87
 81 6 81 6 81 4 c 0,88,89
 81 3 81 3 64 3 c 0,90,91
 45 3 45 3 37.5 8 c 128,-1,92
 30 13 30 13 25 29 c 2,93,-1
 20 44 l 1,94,-1
 21 91 l 2,95,96
 24 162 24 162 25 174 c 0,97,98
 39 336 39 336 29 426 c 0,99,100
 28 437 28 437 27.5 450 c 128,-1,101
 27 463 27 463 25 472 c 0,102,103
 21 486 21 486 26 507.5 c 128,-1,104
 31 529 31 529 37 535 c 0,105,106
 39 537 39 537 43 543 c 0,107,108
 46 548 46 548 77 566 c 0,109,110
 127 595 127 595 220 601 c 0,111,112
 252 603 252 603 253 604 c 0,0,1
94 490 m 0,113,114
 94 486 94 486 97 481.5 c 128,-1,115
 100 477 100 477 100 471 c 0,116,117
 100 464 100 464 102 454 c 0,118,119
 109 421 109 421 109 361 c 2,120,-1
 109 343 l 1,121,-1
 123 346 l 2,122,123
 127 347 127 347 137 349 c 128,-1,124
 147 351 147 351 151 352 c 0,125,126
 175 357 175 357 214 380.5 c 128,-1,127
 253 404 253 404 278 427 c 0,128,129
 328 474 328 474 328 506 c 2,130,-1
 328 515 l 1,131,-1
 317 520 l 2,132,133
 292 531 292 531 276 532 c 0,134,135
 268 533 268 533 258 533 c 0,136,137
 252 534 252 534 220 532.5 c 128,-1,138
 188 531 188 531 179 529 c 0,139,140
 94 515 94 515 94 490 c 0,113,114
EndSplineSet
Validated: 33
EndChar

StartChar: S
Encoding: 83 83 54
Width: 467
GlyphClass: 2
Flags: W
LayerCount: 2
Fore
SplineSet
44 127 m 128,-1,1
 44 128 44 128 41 131 c 128,-1,2
 38 134 38 134 38 136 c 0,3,4
 38 139 38 139 33 146 c 0,5,6
 16 173 16 173 36 192 c 0,7,8
 49 204 49 204 56 204 c 128,-1,9
 63 204 63 204 77 191 c 0,10,11
 88 182 88 182 125 140 c 0,12,13
 152 109 152 109 168.5 95.5 c 128,-1,14
 185 82 185 82 205 75 c 0,15,16
 215 71 215 71 237 71 c 0,17,18
 256 71 256 71 268 77 c 0,19,20
 281 83 281 83 303 107 c 0,21,22
 330 138 330 138 339 160 c 128,-1,23
 348 182 348 182 349 231 c 0,24,25
 349 279 349 279 323 304 c 0,26,27
 310 317 310 317 302.5 320 c 128,-1,28
 295 323 295 323 279 323 c 0,29,30
 236 323 236 323 151 297 c 0,31,32
 100 280 100 280 83 287 c 0,33,34
 80 288 80 288 71.5 290.5 c 128,-1,35
 63 293 63 293 57 298 c 0,36,37
 35 319 35 319 32 332 c 2,38,-1
 28 341 l 2,39,40
 26 341 26 341 22 365 c 0,41,42
 18 375 18 375 20.5 391 c 128,-1,43
 23 407 23 407 23 414 c 128,-1,44
 23 421 23 421 28.5 434.5 c 128,-1,45
 34 448 34 448 36.5 453 c 128,-1,46
 39 458 39 458 46 470.5 c 128,-1,47
 53 483 53 483 55 488 c 0,48,49
 62 503 62 503 105 540 c 0,50,51
 114 548 114 548 170 576 c 0,52,53
 173 578 173 578 187.5 582 c 128,-1,54
 202 586 202 586 206 587 c 0,55,56
 213 589 213 589 235 589.5 c 128,-1,57
 257 590 257 590 259 588 c 128,-1,58
 261 586 261 586 265 586 c 0,59,60
 284 586 284 586 322 566 c 0,61,62
 356 547 356 547 356 542 c 0,63,64
 356 541 356 541 359.5 536.5 c 128,-1,65
 363 532 363 532 363 530 c 0,66,67
 364 521 364 521 371 518 c 0,68,69
 381 512 381 512 364 486 c 0,70,71
 357 476 357 476 342 481 c 0,72,73
 338 483 338 483 330 483 c 0,74,75
 327 483 327 483 324.5 484.5 c 128,-1,76
 322 486 322 486 321 486 c 0,77,78
 315 486 315 486 285 500 c 128,-1,79
 255 514 255 514 223 511 c 0,80,81
 188 507 188 507 154 480 c 128,-1,82
 120 453 120 453 105 421 c 0,83,84
 98 407 98 407 99 389 c 0,85,86
 101 363 101 363 106 362 c 0,87,88
 108 361 108 361 111 364 c 0,89,90
 113 366 113 366 128.5 370.5 c 128,-1,91
 144 375 144 375 151 376 c 0,92,93
 152 376 152 376 190 386 c 0,94,95
 246 400 246 400 285 399 c 2,96,-1
 315 399 l 1,97,-1
 340 386 l 2,98,99
 398 353 398 353 411 312 c 0,100,101
 426 265 426 265 427 239 c 0,102,103
 428 198 428 198 420 161 c 0,104,105
 406 99 406 99 342 36 c 0,106,107
 299 -7 299 -7 241 -7 c 2,108,-1
 218 -7 l 2,109,110
 198 -7 198 -7 164.5 9.5 c 128,-1,111
 131 26 131 26 106 49 c 0,112,113
 73 79 73 79 67 92 c 0,114,115
 61 104 61 104 54 112 c 0,116,0
 44 126 44 126 44 127 c 128,-1,1
EndSplineSet
Validated: 33
EndChar

StartChar: T
Encoding: 84 84 55
Width: 485
GlyphClass: 2
Flags: W
LayerCount: 2
Fore
SplineSet
321 618 m 0,0,1
 381 622 381 622 397 622 c 2,2,-1
 429 623 l 2,3,4
 431 620 431 620 436 614.5 c 128,-1,5
 441 609 441 609 444 607 c 2,6,-1
 445 586 l 2,7,8
 446 560 446 560 438 552 c 0,9,10
 434 548 434 548 418 548 c 0,11,12
 404 548 404 548 396 546 c 0,13,14
 391 545 391 545 353 541 c 0,15,16
 297 536 297 536 242 527 c 0,17,18
 236 526 236 526 235.5 525 c 128,-1,19
 235 524 235 524 235 519 c 0,20,21
 238 498 238 498 236 493 c 128,-1,22
 234 488 234 488 233.5 405.5 c 128,-1,23
 233 323 233 323 235 270 c 0,24,25
 238 180 238 180 238 140 c 0,26,27
 239 65 239 65 235 61 c 0,28,29
 232 58 232 58 232 54 c 0,30,31
 232 47 232 47 220 43 c 0,32,33
 218 42 218 42 202 44 c 2,34,-1
 185 45 l 2,35,36
 175 43 175 43 164 54 c 0,37,38
 155 63 155 63 156 80 c 0,39,40
 158 137 158 137 155.5 252.5 c 128,-1,41
 153 368 153 368 153 411 c 2,42,-1
 153 510 l 1,43,44
 146 509 146 509 122.5 503.5 c 128,-1,45
 99 498 99 498 85 496 c 0,46,47
 49 491 49 491 27 510 c 2,48,-1
 20 516 l 1,49,-1
 21 533 l 2,50,51
 22 555 22 555 28.5 562.5 c 128,-1,52
 35 570 35 570 54 572 c 0,53,54
 70 573 70 573 128 586 c 0,55,56
 133 587 133 587 146.5 590 c 128,-1,57
 160 593 160 593 164 594 c 0,58,59
 187 600 187 600 242 608 c 128,-1,60
 297 616 297 616 321 618 c 0,0,1
EndSplineSet
Validated: 33
EndChar

StartChar: U
Encoding: 85 85 56
Width: 454
GlyphClass: 2
Flags: W
LayerCount: 2
Fore
SplineSet
315 588 m 0,0,1
 316 589 316 589 343 588 c 0,2,3
 349 587 349 587 361.5 574 c 128,-1,4
 374 561 374 561 375 552 c 0,5,6
 376 542 376 542 382 525 c 0,7,8
 382 524 382 524 383 521.5 c 128,-1,9
 384 519 384 519 385 515 c 128,-1,10
 386 511 386 511 387 508 c 0,11,12
 406 444 406 444 411 374 c 0,13,14
 411 363 411 363 413 361 c 0,15,16
 415 358 415 358 415 328.5 c 128,-1,17
 415 299 415 299 414 277 c 0,18,19
 410 224 410 224 404 207 c 2,20,-1
 399 192 l 2,21,22
 389 161 389 161 361.5 116.5 c 128,-1,23
 334 72 334 72 310 47 c 0,24,25
 298 35 298 35 293 29 c 0,26,27
 286 21 286 21 271.5 9 c 128,-1,28
 257 -3 257 -3 255 -3 c 0,29,30
 248 -3 248 -3 226 -18 c 0,31,32
 221 -21 221 -21 204 -27 c 0,33,34
 187 -32 187 -32 168 -30 c 0,35,36
 126 -26 126 -26 93 1 c 0,37,38
 89 5 89 5 78 19 c 128,-1,39
 67 33 67 33 67 34 c 2,40,-1
 66 37 l 2,41,42
 64 40 64 40 61.5 45 c 128,-1,43
 59 50 59 50 57 55 c 0,44,45
 33 103 33 103 25 162 c 0,46,47
 17 219 17 219 22 341 c 0,48,49
 25 425 25 425 35 448 c 0,50,51
 37 452 37 452 37 464 c 0,52,53
 37 472 37 472 39 481.5 c 128,-1,54
 41 491 41 491 41 495 c 0,55,56
 43 506 43 506 51 527 c 0,57,58
 62 552 62 552 79 560 c 1,59,-1
 99 550 l 2,60,61
 114 543 114 543 119.5 538 c 128,-1,62
 125 533 125 533 123 529 c 0,63,64
 120 526 120 526 120 516 c 0,65,66
 117 478 117 478 113 470 c 0,67,68
 110 461 110 461 110 456 c 0,69,70
 110 443 110 443 105 410 c 0,71,72
 97 342 97 342 97 259 c 0,73,74
 97 194 97 194 111 127 c 0,75,76
 113 115 113 115 123 93.5 c 128,-1,77
 133 72 133 72 141 63 c 0,78,79
 175 22 175 22 242 89 c 0,80,81
 268 115 268 115 285 140 c 0,82,83
 326 200 326 200 334 255 c 0,84,85
 339 295 339 295 331 377 c 0,86,87
 326 423 326 423 309 500 c 0,88,89
 307 511 307 511 305 511 c 0,90,91
 298 511 298 511 291 533 c 0,92,93
 286 554 286 554 291 570 c 128,-1,94
 296 586 296 586 307 586 c 0,95,96
 311 586 311 586 315 588 c 0,0,1
EndSplineSet
Validated: 33
EndChar

StartChar: V
Encoding: 86 86 57
Width: 426
GlyphClass: 2
Flags: W
LayerCount: 2
Fore
SplineSet
317 567 m 0,0,1
 325 575 325 575 328.5 575.5 c 128,-1,2
 332 576 332 576 350 576 c 0,3,4
 372 576 372 576 372 570 c 0,5,6
 372 568 372 568 375 566 c 128,-1,7
 378 564 378 564 382.5 556.5 c 128,-1,8
 387 549 387 549 387 545 c 0,9,10
 387 538 387 538 377 500 c 0,11,12
 371 477 371 477 361 437 c 0,13,14
 358 426 358 426 354.5 415 c 128,-1,15
 351 404 351 404 348 390 c 0,16,17
 344 371 344 371 327 303.5 c 128,-1,18
 310 236 310 236 307 208 c 0,19,20
 306 193 306 193 297 150 c 128,-1,21
 288 107 288 107 285 100 c 2,22,-1
 284 93 l 2,23,24
 285 92 285 92 278.5 73.5 c 128,-1,25
 272 55 272 55 267 46 c 0,26,27
 262 36 262 36 251 23.5 c 128,-1,28
 240 11 240 11 236 11 c 0,29,30
 234 11 234 11 234 10 c 0,31,32
 234 7 234 7 227.5 5.5 c 128,-1,33
 221 4 221 4 211 5 c 128,-1,34
 201 6 201 6 192 9 c 0,35,36
 172 16 172 16 166 26 c 0,37,38
 162 34 162 34 158 36 c 0,39,40
 153 40 153 40 142 59 c 128,-1,41
 131 78 131 78 126 93 c 0,42,43
 123 100 123 100 120.5 105 c 128,-1,44
 118 110 118 110 116 116 c 0,45,46
 105 147 105 147 97 176 c 0,47,48
 94 185 94 185 94 192 c 0,49,50
 94 212 94 212 83 234 c 0,51,52
 81 237 81 237 73.5 265.5 c 128,-1,53
 66 294 66 294 66 298 c 128,-1,54
 66 302 66 302 59.5 321.5 c 128,-1,55
 53 341 53 341 52 342 c 128,-1,56
 51 343 51 343 46 359.5 c 128,-1,57
 41 376 41 376 41 379 c 0,58,59
 41 381 41 381 37 389 c 0,60,61
 34 394 34 394 30 410 c 128,-1,62
 26 426 26 426 24 430 c 0,63,64
 20 438 20 438 20 445 c 0,65,66
 20 455 20 455 23.5 460 c 128,-1,67
 27 465 27 465 39 472 c 0,68,69
 52 480 52 480 56 481 c 128,-1,70
 60 482 60 482 71 480 c 1,71,-1
 89 453 l 2,72,73
 107 426 107 426 107 424 c 128,-1,74
 107 422 107 422 112 411.5 c 128,-1,75
 117 401 117 401 117 398 c 0,76,77
 118 390 118 390 130 350 c 128,-1,78
 142 310 142 310 143 305 c 0,79,80
 145 296 145 296 152 274.5 c 128,-1,81
 159 253 159 253 161 241 c 0,82,83
 169 199 169 199 192 136 c 2,84,-1
 204 104 l 1,85,-1
 217 149 l 2,86,87
 217 150 217 150 218 154 c 128,-1,88
 219 158 219 158 219.5 164.5 c 128,-1,89
 220 171 220 171 221 176 c 0,90,91
 227 219 227 219 230 222 c 0,92,93
 232 224 232 224 232 230 c 0,94,95
 232 243 232 243 238 262.5 c 128,-1,96
 244 282 244 282 245 290 c 0,97,98
 247 302 247 302 258.5 348.5 c 128,-1,99
 270 395 270 395 272 404 c 0,100,101
 274 416 274 416 278 427 c 0,102,103
 279 431 279 431 302 517 c 0,104,105
 315 565 315 565 317 567 c 0,0,1
EndSplineSet
Validated: 1
EndChar

StartChar: W
Encoding: 87 87 58
Width: 621
GlyphClass: 2
Flags: W
LayerCount: 2
Fore
SplineSet
479 609 m 0,0,1
 481 609 481 609 489.5 616 c 128,-1,2
 498 623 498 623 499 623 c 128,-1,3
 500 623 500 623 502.5 623.5 c 128,-1,4
 505 624 505 624 506 624 c 0,5,6
 510 624 510 624 524 618.5 c 128,-1,7
 538 613 538 613 542 610 c 0,8,9
 557 595 557 595 564 563 c 0,10,11
 566 551 566 551 570.5 516.5 c 128,-1,12
 575 482 575 482 576 476 c 0,13,14
 576 473 576 473 578 422.5 c 128,-1,15
 580 372 580 372 581 365 c 0,16,17
 582 359 582 359 580 335.5 c 128,-1,18
 578 312 578 312 576 307 c 0,19,20
 572 301 572 301 572 291 c 0,21,22
 571 275 571 275 568.5 265.5 c 128,-1,23
 566 256 566 256 559.5 242.5 c 128,-1,24
 553 229 553 229 551 223 c 0,25,26
 535 180 535 180 516 158 c 0,27,28
 512 152 512 152 512 151 c 0,29,30
 512 149 512 149 506 140.5 c 128,-1,31
 500 132 500 132 493 122 c 2,32,-1
 486 113 l 2,33,34
 482 108 482 108 466.5 92 c 128,-1,35
 451 76 451 76 450 76 c 128,-1,36
 449 76 449 76 432 63 c 0,37,38
 384 25 384 25 334 42 c 0,39,40
 326 45 326 45 313 52 c 128,-1,41
 300 59 300 59 300 61 c 0,42,43
 300 64 300 64 295 69 c 0,44,45
 286 81 286 81 282 88 c 0,46,47
 275 101 275 101 274 101 c 0,48,49
 272 101 272 101 265 88 c 0,50,51
 237 38 237 38 219 21 c 0,52,53
 191 -6 191 -6 161 -9 c 0,54,55
 124 -11 124 -11 107 10 c 0,56,57
 101 18 101 18 96 23 c 0,58,59
 92 27 92 27 84 42.5 c 128,-1,60
 76 58 76 58 76 61 c 2,61,-1
 72 71 l 2,62,63
 63 91 63 91 61 109 c 0,64,65
 56 160 56 160 54 162 c 0,66,67
 50 166 50 166 46 254 c 0,68,69
 45 262 45 262 43 322 c 0,70,71
 38 442 38 442 25 473 c 0,72,73
 21 482 21 482 20 498.5 c 128,-1,74
 19 515 19 515 22 519 c 0,75,76
 22 520 22 520 25 522 c 128,-1,77
 28 524 28 524 33.5 527 c 128,-1,78
 39 530 39 530 42 532 c 0,79,80
 63 545 63 545 75 541 c 0,81,82
 77 541 77 541 86 527.5 c 128,-1,83
 95 514 95 514 102 500.5 c 128,-1,84
 109 487 109 487 107 487 c 1,85,86
 112 472 112 472 113 467 c 0,87,88
 117 424 117 424 120 351 c 128,-1,89
 123 278 123 278 127 229 c 0,90,91
 131 175 131 175 131 170 c 0,92,93
 131 160 131 160 133 156 c 0,94,95
 134 154 134 154 138 127 c 0,96,97
 145 85 145 85 155 73 c 0,98,99
 157 70 157 70 163 74 c 0,100,101
 177 85 177 85 229 180 c 0,102,103
 253 224 253 224 264 231 c 0,104,105
 277 239 277 239 291.5 240 c 128,-1,106
 306 241 306 241 311 234 c 0,107,108
 314 231 314 231 320 228 c 0,109,110
 327 225 327 225 328 217 c 0,111,112
 328 215 328 215 329.5 212 c 128,-1,113
 331 209 331 209 332 206.5 c 128,-1,114
 333 204 333 204 333 203 c 0,115,116
 331 198 331 198 341 152 c 0,117,118
 347 123 347 123 355.5 117 c 128,-1,119
 364 111 364 111 381 122 c 0,120,121
 409 140 409 140 439 180.5 c 128,-1,122
 469 221 469 221 480 257 c 0,123,124
 485 272 485 272 487 276 c 0,125,126
 489 279 489 279 492.5 298 c 128,-1,127
 496 317 496 317 496 322 c 0,128,129
 496 326 496 326 499 332 c 0,130,131
 504 340 504 340 501 417 c 0,132,133
 499 463 499 463 491 524 c 0,134,135
 488 553 488 553 484 555 c 0,136,137
 474 563 474 563 472 584 c 0,138,139
 471 592 471 592 473.5 600.5 c 128,-1,140
 476 609 476 609 479 609 c 0,0,1
EndSplineSet
Validated: 33
EndChar

StartChar: X
Encoding: 88 88 59
Width: 470
GlyphClass: 2
Flags: W
LayerCount: 2
Fore
SplineSet
77 21 m 2,0,1
 76 21 76 21 70 18.5 c 128,-1,2
 64 16 64 16 62 16 c 0,3,4
 58 16 58 16 40 28 c 128,-1,5
 22 40 22 40 21 43 c 0,6,7
 21 52 21 52 20.5 56 c 128,-1,8
 20 60 20 60 25 71 c 128,-1,9
 30 82 30 82 32.5 86.5 c 128,-1,10
 35 91 35 91 41.5 101.5 c 128,-1,11
 48 112 48 112 49 114 c 0,12,13
 56 127 56 127 69.5 150 c 128,-1,14
 83 173 83 173 87 180 c 0,15,16
 89 184 89 184 131 257 c 2,17,-1
 166 316 l 1,18,-1
 155 337 l 2,19,20
 143 359 143 359 143 360 c 0,21,22
 143 362 143 362 130 384 c 0,23,24
 111 414 111 414 86 464 c 0,25,26
 83 469 83 469 69.5 494 c 128,-1,27
 56 519 56 519 41 550 c 0,28,29
 39 553 39 553 41 570 c 0,30,31
 42 578 42 578 55 587 c 0,32,33
 64 593 64 593 72 596 c 2,34,-1
 77 598 l 2,35,36
 79 599 79 599 82 598 c 128,-1,37
 85 597 85 597 89.5 593 c 128,-1,38
 94 589 94 589 97.5 585 c 128,-1,39
 101 581 101 581 104.5 577 c 128,-1,40
 108 573 108 573 109 572 c 0,41,42
 120 561 120 561 156 492 c 0,43,44
 170 466 170 466 177.5 453.5 c 128,-1,45
 185 441 185 441 195 422 c 2,46,-1
 212 391 l 1,47,-1
 235 430 l 2,48,49
 268 483 268 483 271 488 c 0,50,51
 313 549 313 549 315 559 c 0,52,53
 316 580 316 580 339 592 c 0,54,55
 351 599 351 599 366 596 c 128,-1,56
 381 593 381 593 383 585 c 0,57,58
 385 580 385 580 390 578 c 0,59,60
 399 574 399 574 398 557 c 0,61,62
 397 543 397 543 370 503 c 0,63,64
 304 403 304 403 285 367 c 0,65,66
 272 342 272 342 256 319 c 0,67,68
 254 316 254 316 279 273 c 0,69,70
 313 215 313 215 359 155 c 0,71,72
 394 109 394 109 409 82 c 0,73,74
 421 61 421 61 423 54 c 0,75,76
 425 45 425 45 428 38 c 0,77,78
 431 29 431 29 427 20 c 0,79,80
 423 12 423 12 420 12 c 0,81,82
 418 12 418 12 402 4 c 0,83,84
 387 -3 387 -3 381 -2 c 0,85,86
 363 1 363 1 357 14 c 0,87,88
 339 54 339 54 309 96 c 0,89,90
 247 179 247 179 225 216 c 2,91,-1
 210 240 l 2,92,93
 209 240 209 240 193.5 213 c 128,-1,94
 178 186 178 186 157.5 150.5 c 128,-1,95
 137 115 137 115 128 101 c 0,96,97
 122 92 122 92 113 74 c 0,98,99
 106 60 106 60 93.5 40.5 c 128,-1,100
 81 21 81 21 79 21 c 2,101,-1
 77 21 l 2,0,1
EndSplineSet
Validated: 33
EndChar

StartChar: Y
Encoding: 89 89 60
Width: 521
GlyphClass: 2
Flags: W
LayerCount: 2
Fore
SplineSet
444 565 m 0,0,1
 457 568 457 568 463.5 564.5 c 128,-1,2
 470 561 470 561 476 548 c 128,-1,3
 482 535 482 535 480 524 c 0,4,5
 472 489 472 489 449 459 c 0,6,7
 404 401 404 401 370 352 c 0,8,9
 360 337 360 337 346.5 319.5 c 128,-1,10
 333 302 333 302 321.5 285.5 c 128,-1,11
 310 269 310 269 297 246 c 0,12,13
 288 232 288 232 285 208 c 0,14,15
 284 202 284 202 282.5 179.5 c 128,-1,16
 281 157 281 157 278 148 c 0,17,18
 271 127 271 127 271 43 c 0,19,20
 271 14 271 14 261 10 c 0,21,22
 233 3 233 3 215 3 c 0,23,24
 210 3 210 3 205 8 c 128,-1,25
 200 13 200 13 199 19 c 0,26,27
 193 58 193 58 192.5 67 c 128,-1,28
 192 76 192 76 196 109 c 0,29,30
 197 115 197 115 206 203 c 0,31,32
 208 221 208 221 209 224 c 0,33,34
 211 230 211 230 203 238 c 0,35,36
 190 249 190 249 170 283 c 0,37,38
 155 310 155 310 112.5 372.5 c 128,-1,39
 70 435 70 435 65 438 c 128,-1,40
 60 441 60 441 41.5 474 c 128,-1,41
 23 507 23 507 21 517 c 0,42,43
 16 537 16 537 30 549 c 0,44,45
 32 551 32 551 50 557 c 2,46,-1
 65 562 l 1,47,-1
 73 558 l 2,48,49
 86 551 86 551 98 527 c 0,50,51
 112 502 112 502 113 501 c 0,52,53
 149 447 149 447 160 436 c 0,54,55
 163 433 163 433 185 400 c 128,-1,56
 207 367 207 367 226.5 335.5 c 128,-1,57
 246 304 246 304 246 305 c 0,58,59
 246 307 246 307 265.5 336.5 c 128,-1,60
 285 366 285 366 288 368 c 0,61,62
 296 376 296 376 306 391 c 0,63,64
 310 398 310 398 356 460 c 0,65,66
 404 525 404 525 404 536 c 0,67,68
 405 549 405 549 409 554 c 0,69,70
 419 566 419 566 433 564 c 0,71,72
 440 564 440 564 444 565 c 0,0,1
EndSplineSet
Validated: 33
EndChar

StartChar: Z
Encoding: 90 90 61
Width: 509
GlyphClass: 2
Flags: W
LayerCount: 2
Fore
SplineSet
343 581 m 0,0,1
 345 582 345 582 366.5 583 c 128,-1,2
 388 584 388 584 390 583 c 0,3,4
 399 582 399 582 416 578 c 128,-1,5
 433 574 433 574 435 572 c 2,6,-1
 440 570 l 2,7,8
 444 568 444 568 448 566.5 c 128,-1,9
 452 565 452 565 452 564 c 0,10,11
 452 562 452 562 455 561 c 0,12,13
 465 558 465 558 465 547 c 0,14,15
 465 546 465 546 468 534 c 0,16,17
 474 515 474 515 462 502 c 0,18,19
 458 496 458 496 458 495 c 0,20,21
 458 492 458 492 447 476 c 0,22,23
 432 454 432 454 339 360 c 0,24,25
 250 270 250 270 219 232 c 0,26,27
 213 225 213 225 202.5 212.5 c 128,-1,28
 192 200 192 200 190 198 c 0,29,30
 176 182 176 182 148.5 145 c 128,-1,31
 121 108 121 108 121 105 c 0,32,33
 121 104 121 104 132.5 104 c 128,-1,34
 144 104 144 104 162.5 105 c 128,-1,35
 181 106 181 106 199 108 c 0,36,37
 244 113 244 113 381 110 c 0,38,39
 450 109 450 109 455 105 c 0,40,41
 459 102 459 102 463 83.5 c 128,-1,42
 467 65 467 65 466 58 c 0,43,44
 463 43 463 43 445 38 c 0,45,46
 411 29 411 29 329 36 c 0,47,48
 318 37 318 37 250 35 c 0,49,50
 233 35 233 35 196.5 33 c 128,-1,51
 160 31 160 31 141 30 c 0,52,53
 135 30 135 30 120 29 c 128,-1,54
 105 28 105 28 94 27.5 c 128,-1,55
 83 27 83 27 70 27 c 128,-1,56
 57 27 57 27 48.5 29 c 128,-1,57
 40 31 40 31 37 34 c 0,58,59
 22 52 22 52 20.5 60 c 128,-1,60
 19 68 19 68 28 91 c 0,61,62
 43 132 43 132 80 180 c 0,63,64
 129 244 129 244 134 249 c 0,65,66
 153 270 153 270 160 281 c 0,67,68
 173 302 173 302 261 390 c 0,69,70
 288 417 288 417 356 489 c 0,71,72
 372 505 372 505 368 506 c 0,73,74
 359 510 359 510 278 497 c 0,75,76
 264 495 264 495 246 493 c 128,-1,77
 228 491 228 491 213 488 c 0,78,79
 166 480 166 480 158 480 c 0,80,81
 147 479 147 479 136 477 c 128,-1,82
 125 475 125 475 115 475 c 0,83,84
 107 474 107 474 94 471 c 128,-1,85
 81 468 81 468 72 468 c 0,86,87
 60 468 60 468 56 471 c 128,-1,88
 52 474 52 474 44 491 c 0,89,90
 42 496 42 496 40.5 500 c 128,-1,91
 39 504 39 504 38 507.5 c 128,-1,92
 37 511 37 511 37.5 514 c 128,-1,93
 38 517 38 517 38 519 c 128,-1,94
 38 521 38 521 40 523 c 128,-1,95
 42 525 42 525 43 526.5 c 128,-1,96
 44 528 44 528 47.5 530 c 128,-1,97
 51 532 51 532 52.5 532.5 c 128,-1,98
 54 533 54 533 59 535.5 c 128,-1,99
 64 538 64 538 66 539 c 0,100,101
 84 548 84 548 97 550 c 0,102,103
 139 553 139 553 261 571 c 0,104,105
 313 579 313 579 332 579 c 0,106,107
 341 579 341 579 343 581 c 0,0,1
EndSplineSet
Validated: 33
EndChar

StartChar: bracketleft
Encoding: 91 91 62
Width: 326
GlyphClass: 2
Flags: W
LayerCount: 2
Fore
SplineSet
22 601 m 2,0,1
 25 605 25 605 30 612 c 128,-1,2
 35 619 35 619 39.5 623 c 128,-1,3
 44 627 44 627 52 631 c 0,4,5
 61 636 61 636 69 636 c 0,6,7
 80 634 80 634 90.5 632.5 c 128,-1,8
 101 631 101 631 108 631.5 c 128,-1,9
 115 632 115 632 115 633 c 128,-1,10
 115 634 115 634 120.5 634.5 c 128,-1,11
 126 635 126 635 131.5 634 c 128,-1,12
 137 633 137 633 137 630 c 0,13,14
 137 628 137 628 149 629 c 0,15,16
 156 630 156 630 215 630 c 0,17,18
 257 630 257 630 267 628.5 c 128,-1,19
 277 627 277 627 283 620 c 0,20,21
 287 615 287 615 286 592 c 0,22,23
 285 558 285 558 275 558 c 0,24,25
 270 558 270 558 270 557 c 0,26,27
 269 555 269 555 202.5 552.5 c 128,-1,28
 136 550 136 550 122 551 c 2,29,-1
 108 553 l 1,30,-1
 106 512 l 2,31,32
 104 468 104 468 105 418.5 c 128,-1,33
 106 369 106 369 108 366 c 0,34,35
 110 364 110 364 110 262 c 128,-1,36
 110 160 110 160 111 159 c 0,37,38
 113 157 113 157 113 104.5 c 128,-1,39
 113 52 113 52 112 50 c 0,40,41
 110 48 110 48 110 19 c 2,42,-1
 110 -10 l 1,43,-1
 134 -10 l 2,44,45
 158 -10 158 -10 158 -9 c 0,46,47
 174 -8 174 -8 175 -7 c 0,48,49
 177 -4 177 -4 198.5 -4.5 c 128,-1,50
 220 -5 220 -5 227 -8 c 0,51,52
 233 -11 233 -11 245 -11 c 0,53,54
 255 -11 255 -11 263 -19 c 0,55,56
 270 -26 270 -26 271 -45 c 0,57,58
 273 -66 273 -66 272.5 -71.5 c 128,-1,59
 272 -77 272 -77 267 -82 c 0,60,61
 261 -88 261 -88 256 -88 c 128,-1,62
 251 -88 251 -88 250 -89 c 0,63,64
 248 -91 248 -91 148 -89 c 0,65,66
 138 -89 138 -89 114.5 -91.5 c 128,-1,67
 91 -94 91 -94 77.5 -94 c 128,-1,68
 64 -94 64 -94 47 -89 c 0,69,70
 28 -80 28 -80 22.5 -67 c 128,-1,71
 17 -54 17 -54 23 -25 c 0,72,73
 25 -18 25 -18 27 23 c 0,74,75
 27 45 27 45 29.5 62.5 c 128,-1,76
 32 80 32 80 33 105 c 0,77,78
 34 144 34 144 31 153 c 0,79,80
 28 164 28 164 28 187 c 0,81,82
 29 224 29 224 29 283 c 0,83,84
 29 322 29 322 25 357 c 0,85,86
 22 386 22 386 23 452 c 0,87,88
 25 539 25 539 23 577 c 2,89,-1
 22 601 l 2,0,1
EndSplineSet
Validated: 33
EndChar

StartChar: backslash
Encoding: 92 92 63
Width: 403
GlyphClass: 2
Flags: W
LayerCount: 2
Fore
SplineSet
295 122 m 2,0,1
 296 120 296 120 298 116.5 c 128,-1,2
 300 113 300 113 303.5 105.5 c 128,-1,3
 307 98 307 98 309 93 c 2,4,-1
 311 88 l 2,5,6
 334 40 334 40 340 31 c 2,7,-1
 346 20 l 2,8,9
 348 14 348 14 351 8 c 0,10,11
 371 -38 371 -38 358 -49 c 0,12,13
 353 -54 353 -54 351 -54 c 0,14,15
 347 -54 347 -54 333 -61 c 0,16,17
 320 -68 320 -68 310 -65 c 0,18,19
 304 -63 304 -63 295.5 -56.5 c 128,-1,20
 287 -50 287 -50 286 -46 c 0,21,22
 284 -35 284 -35 276 -19 c 0,23,24
 274 -15 274 -15 272.5 -12.5 c 128,-1,25
 271 -10 271 -10 272 -10 c 1,26,27
 270 -6 270 -6 266.5 1 c 128,-1,28
 263 8 263 8 255 22.5 c 128,-1,29
 247 37 247 37 242 46 c 2,30,-1
 238 56 l 2,31,32
 222 90 222 90 222 91 c 0,33,34
 222 93 222 93 214.5 108.5 c 128,-1,35
 207 124 207 124 207 125 c 0,36,37
 206 128 206 128 200 142 c 128,-1,38
 194 156 194 156 193 159 c 0,39,40
 193 161 193 161 186.5 175 c 128,-1,41
 180 189 180 189 180 192 c 0,42,43
 180 199 180 199 162 240 c 0,44,45
 155 254 155 254 155 258 c 0,46,47
 155 260 155 260 148.5 275 c 128,-1,48
 142 290 142 290 142 291 c 2,49,-1
 128 325 l 1,50,-1
 124 334 l 2,51,52
 119 343 119 343 115 352 c 2,53,-1
 111 360 l 1,54,-1
 107 368 l 2,55,56
 103 376 103 376 99 383.5 c 128,-1,57
 95 391 95 391 95 392 c 2,58,-1
 77 427 l 2,59,60
 76 428 76 428 71.5 437 c 128,-1,61
 67 446 67 446 62.5 454 c 128,-1,62
 58 462 58 462 56 464 c 0,63,64
 47 472 47 472 31.5 506.5 c 128,-1,65
 16 541 16 541 21 553 c 0,66,67
 25 565 25 565 34 567 c 0,68,69
 35 567 35 567 44 570.5 c 128,-1,70
 53 574 53 574 62 576.5 c 128,-1,71
 71 579 71 579 74 579 c 0,72,73
 83 579 83 579 88 574 c 128,-1,74
 93 569 93 569 96.5 558 c 128,-1,75
 100 547 100 547 102 543 c 0,76,77
 111 523 111 523 125 504 c 0,78,79
 134 492 134 492 132 492 c 0,80,81
 131 492 131 492 134.5 485.5 c 128,-1,82
 138 479 138 479 145 470 c 0,83,84
 150 463 150 463 152 458.5 c 128,-1,85
 154 454 154 454 157 448 c 0,86,87
 164 437 164 437 166 431 c 0,88,89
 167 430 167 430 175.5 411.5 c 128,-1,90
 184 393 184 393 192 375.5 c 128,-1,91
 200 358 200 358 200 356 c 0,92,93
 200 355 200 355 207.5 341 c 128,-1,94
 215 327 215 327 215 326 c 0,95,96
 220 304 220 304 235 273 c 0,97,98
 241 261 241 261 241 256 c 2,99,-1
 242 254 l 2,100,101
 243 251 243 251 245 247.5 c 128,-1,102
 247 244 247 244 248 241 c 0,103,104
 254 229 254 229 261.5 205 c 128,-1,105
 269 181 269 181 274 171 c 0,106,107
 278 162 278 162 280 156 c 128,-1,108
 282 150 282 150 287 139 c 0,109,110
 289 135 289 135 291 131 c 128,-1,111
 293 127 293 127 294 124 c 2,112,-1
 295 122 l 2,0,1
EndSplineSet
Validated: 33
EndChar

StartChar: bracketright
Encoding: 93 93 64
Width: 348
GlyphClass: 2
Flags: W
LayerCount: 2
Fore
SplineSet
72 619 m 0,0,1
 82 619 82 619 111 620.5 c 128,-1,2
 140 622 140 622 147 619 c 0,3,4
 162 616 162 616 241 616 c 0,5,6
 275 616 275 616 281 613 c 0,7,8
 289 609 289 609 289 608 c 128,-1,9
 289 607 289 607 294 600 c 0,10,11
 303 590 303 590 304 550 c 0,12,13
 312 260 312 260 307 211 c 0,14,15
 306 206 306 206 303.5 70.5 c 128,-1,16
 301 -65 301 -65 301 -70 c 0,17,18
 298 -91 298 -91 283 -91 c 0,19,20
 278 -91 278 -91 275 -94 c 0,21,22
 268 -101 268 -101 250 -96 c 0,23,24
 238 -93 238 -93 207 -93 c 0,25,26
 122 -93 122 -93 114 -97 c 0,27,28
 112 -98 112 -98 89 -98 c 0,29,30
 68 -98 68 -98 56 -92 c 0,31,32
 46 -87 46 -87 43 -87 c 0,33,34
 41 -87 41 -87 41 -86 c 128,-1,35
 41 -85 41 -85 37 -79 c 0,36,37
 31 -72 31 -72 36 -53 c 0,38,39
 42 -24 42 -24 47 -24 c 0,40,41
 51 -24 51 -24 53 -22 c 0,42,43
 59 -16 59 -16 73 -16 c 0,44,45
 132 -19 132 -19 177 -13 c 0,46,47
 184 -12 184 -12 205 -12 c 2,48,-1
 221 -12 l 1,49,-1
 223 -1 l 2,50,51
 224 5 224 5 224 101 c 0,52,53
 224 152 224 152 226.5 212.5 c 128,-1,54
 229 273 229 273 228 320 c 0,55,56
 228 498 228 498 223 530 c 2,57,-1
 221 538 l 1,58,-1
 180 539 l 2,59,60
 140 539 140 539 130 541 c 0,61,62
 121 544 121 544 114 541 c 0,63,64
 108 539 108 539 80 540 c 0,65,66
 47 541 47 541 37.5 546 c 128,-1,67
 28 551 28 551 24 566 c 0,68,69
 17 595 17 595 24 605 c 0,70,71
 30 614 30 614 40 614 c 0,72,73
 44 614 44 614 46 617 c 0,74,75
 48 619 48 619 72 619 c 0,0,1
EndSplineSet
Validated: 33
EndChar

StartChar: asciicircum
Encoding: 94 94 65
Width: 423
GlyphClass: 2
Flags: W
LayerCount: 2
Fore
SplineSet
127 389 m 0,0,1
 127 387 127 387 120 377.5 c 128,-1,2
 113 368 113 368 113 367 c 0,3,4
 113 364 113 364 95.5 347.5 c 128,-1,5
 78 331 78 331 72 329 c 0,6,7
 60 325 60 325 55.5 327 c 128,-1,8
 51 329 51 329 37 343 c 0,9,10
 27 353 27 353 25 355 c 128,-1,11
 23 357 23 357 21.5 360.5 c 128,-1,12
 20 364 20 364 20 369 c 0,13,14
 20 378 20 378 23 381 c 0,15,16
 26 382 26 382 26 387 c 0,17,18
 26 390 26 390 31 396 c 128,-1,19
 36 402 36 402 37 404 c 0,20,21
 45 416 45 416 47 418 c 0,22,23
 58 429 58 429 81 481 c 0,24,25
 117 561 117 561 133 582 c 0,26,27
 136 586 136 586 138.5 590 c 128,-1,28
 141 594 141 594 142.5 596.5 c 128,-1,29
 144 599 144 599 146.5 601.5 c 128,-1,30
 149 604 149 604 153.5 605.5 c 128,-1,31
 158 607 158 607 165 609 c 0,32,33
 176 612 176 612 188.5 610 c 128,-1,34
 201 608 201 608 201 604 c 0,35,36
 201 602 201 602 204 602 c 0,37,38
 206 602 206 602 218.5 589 c 128,-1,39
 231 576 231 576 231 574 c 0,40,41
 231 569 231 569 309 488 c 0,42,43
 360 434 360 434 367 423 c 0,44,45
 382 397 382 397 380 392 c 2,46,-1
 382 380 l 2,47,48
 385 368 385 368 380.5 363 c 128,-1,49
 376 358 376 358 356 350 c 0,50,51
 335 342 335 342 331 343 c 0,52,53
 316 348 316 348 305 368 c 128,-1,54
 294 388 294 388 277 405 c 0,55,56
 248 435 248 435 244 441 c 128,-1,57
 240 447 240 447 238 447 c 0,58,59
 235 447 235 447 222 462 c 0,60,61
 208 478 208 478 194 492 c 2,62,-1
 180 508 l 1,63,-1
 176 497 l 2,64,65
 175 494 175 494 172.5 489 c 128,-1,66
 170 484 170 484 166 475.5 c 128,-1,67
 162 467 162 467 159 461 c 0,68,69
 146 435 146 435 146 433 c 0,70,71
 146 432 146 432 141.5 423 c 128,-1,72
 137 414 137 414 132 403.5 c 128,-1,73
 127 393 127 393 127 389 c 0,0,1
EndSplineSet
Validated: 33
EndChar

StartChar: underscore
Encoding: 95 95 66
Width: 511
GlyphClass: 2
Flags: W
LayerCount: 2
Fore
SplineSet
429 31 m 0,0,1
 438 35 438 35 447 30 c 0,2,3
 455 26 455 26 463 7 c 2,4,-1
 471 -13 l 1,5,-1
 465 -26 l 2,6,7
 457 -44 457 -44 446 -44 c 1,8,-1
 436 -49 l 2,9,10
 431 -52 431 -52 372 -53 c 0,11,12
 317 -53 317 -53 315 -55 c 0,13,14
 311 -57 311 -57 229.5 -58 c 128,-1,15
 148 -59 148 -59 97 -58 c 0,16,17
 57 -57 57 -57 44.5 -54 c 128,-1,18
 32 -51 32 -51 25 -41 c 0,19,20
 19 -33 19 -33 22 -5 c 0,21,22
 25 17 25 17 36 21 c 128,-1,23
 47 25 47 25 105 23 c 0,24,25
 176 22 176 22 198.5 22 c 128,-1,26
 221 22 221 22 271 24 c 128,-1,27
 321 26 321 26 352 27 c 0,28,29
 422 29 422 29 429 31 c 0,0,1
EndSplineSet
Validated: 33
EndChar

StartChar: a
Encoding: 97 97 67
Width: 421
GlyphClass: 2
Flags: W
LayerCount: 2
Fore
SplineSet
162 397 m 128,-1,1
 165 397 165 397 176 401.5 c 128,-1,2
 187 406 187 406 190 406 c 0,3,4
 195 407 195 407 208 407 c 0,5,6
 216 406 216 406 229.5 401 c 128,-1,7
 243 396 243 396 244 394 c 0,8,9
 244 393 244 393 258 381 c 0,10,11
 260 379 260 379 261.5 375.5 c 128,-1,12
 263 372 263 372 265 371 c 128,-1,13
 267 370 267 370 274 355.5 c 128,-1,14
 281 341 281 341 283 335 c 0,15,16
 286 319 286 319 288 319 c 128,-1,17
 290 319 290 319 290 321 c 128,-1,18
 290 323 290 323 296 326 c 128,-1,19
 302 329 302 329 318 327 c 0,20,21
 336 325 336 325 340.5 321 c 128,-1,22
 345 317 345 317 347 304 c 0,23,24
 349 295 349 295 350 294 c 0,25,26
 354 289 354 289 350 261 c 128,-1,27
 346 233 346 233 338 209 c 0,28,29
 328 179 328 179 334 139 c 0,30,31
 340 110 340 110 343 102 c 0,32,33
 350 81 350 81 373 66 c 0,34,35
 381 61 381 61 381.5 54.5 c 128,-1,36
 382 48 382 48 374 31 c 0,37,38
 362 6 362 6 349 4 c 0,39,40
 340 2 340 2 324 11.5 c 128,-1,41
 308 21 308 21 295 36 c 0,42,43
 286 47 286 47 286 48 c 0,44,45
 286 50 286 50 279 64 c 2,46,-1
 272 78 l 1,47,-1
 263 70 l 2,48,49
 260 67 260 67 231 44 c 0,50,51
 201 23 201 23 192 21 c 0,52,53
 149 10 149 10 127.5 11.5 c 128,-1,54
 106 13 106 13 73 31 c 0,55,56
 54 42 54 42 40 73 c 0,57,58
 32 89 32 89 32 92 c 2,59,-1
 28 102 l 2,60,61
 16 132 16 132 21 145 c 1,62,-1
 21 166 l 2,63,64
 19 193 19 193 40 249 c 0,65,66
 54 287 54 287 87 332 c 0,67,68
 94 342 94 342 112.5 360 c 128,-1,69
 131 378 131 378 139 383 c 2,70,-1
 149 390 l 2,71,0
 159 397 159 397 162 397 c 128,-1,1
223 314 m 0,72,73
 222 315 222 315 216 326.5 c 128,-1,74
 210 338 210 338 205 338 c 0,75,76
 203 338 203 338 184.5 325.5 c 128,-1,77
 166 313 166 313 162 309 c 0,78,79
 128 272 128 272 110 229 c 0,80,81
 96 193 96 193 96 166 c 0,82,83
 96 123 96 123 105 108 c 0,84,85
 123 77 123 77 151.5 86 c 128,-1,86
 180 95 180 95 203 115 c 128,-1,87
 226 135 226 135 237 153 c 0,88,89
 258 189 258 189 258 212 c 0,90,91
 258 220 258 220 263 255 c 0,92,93
 265 269 265 269 266 271 c 0,94,95
 267 276 267 276 264 276 c 0,96,97
 253 275 253 275 243 285 c 128,-1,98
 233 295 233 295 230 303 c 0,99,100
 226 312 226 312 223 314 c 0,72,73
EndSplineSet
Validated: 33
EndChar

StartChar: b
Encoding: 98 98 68
Width: 368
GlyphClass: 2
Flags: W
LayerCount: 2
Fore
SplineSet
54 601 m 0,0,1
 61 612 61 612 82 612 c 0,2,3
 104 612 104 612 110 598 c 0,4,5
 113 591 113 591 114 529.5 c 128,-1,6
 115 468 115 468 113 433 c 0,7,8
 110 390 110 390 110 386 c 2,9,-1
 109 371 l 1,10,-1
 116 376 l 2,11,12
 133 389 133 389 152 399 c 0,13,14
 154 400 154 400 156.5 401 c 128,-1,15
 159 402 159 402 162 404 c 2,16,-1
 164 405 l 2,17,18
 169 409 169 409 185.5 413 c 128,-1,19
 202 417 202 417 212 417 c 0,20,21
 251 417 251 417 255 411 c 0,22,23
 256 410 256 410 259 410 c 0,24,25
 261 410 261 410 265.5 406.5 c 128,-1,26
 270 403 270 403 271 403 c 128,-1,27
 272 403 272 403 281 394.5 c 128,-1,28
 290 386 290 386 294 380 c 0,29,30
 307 362 307 362 311 345 c 0,31,32
 319 317 319 317 324.5 270.5 c 128,-1,33
 330 224 330 224 327 208 c 0,34,35
 326 202 326 202 326 194 c 128,-1,36
 326 186 326 186 324 177 c 0,37,38
 317 150 317 150 314 145 c 0,39,40
 309 137 309 137 309 132 c 0,41,42
 309 128 309 128 294 105 c 128,-1,43
 279 82 279 82 272 76 c 0,44,45
 261 66 261 66 238.5 54 c 128,-1,46
 216 42 216 42 201 38 c 0,47,48
 171 32 171 32 141 38 c 0,49,50
 112 43 112 43 102 53 c 0,51,52
 100 55 100 55 92 59 c 0,53,54
 84 64 84 64 79 61 c 0,55,56
 73 57 73 57 73 59 c 1,57,58
 69 57 69 57 64 55 c 0,59,60
 60 53 60 53 56.5 52 c 128,-1,61
 53 51 53 51 50 52.5 c 128,-1,62
 47 54 47 54 45.5 54.5 c 128,-1,63
 44 55 44 55 40 58.5 c 128,-1,64
 36 62 36 62 35 63 c 0,65,66
 15 80 15 80 23 139 c 0,67,68
 25 150 25 150 28.5 215 c 128,-1,69
 32 280 32 280 34 299 c 0,70,71
 39 356 39 356 40 411 c 0,72,73
 40 420 40 420 40.5 432.5 c 128,-1,74
 41 445 41 445 41.5 453 c 128,-1,75
 42 461 42 461 42 464 c 0,76,77
 44 474 44 474 44 489.5 c 128,-1,78
 44 505 44 505 45 516 c 0,79,80
 47 525 47 525 49 565 c 0,81,82
 50 594 50 594 54 601 c 0,0,1
229 343 m 0,83,84
 220 348 220 348 213 347 c 128,-1,85
 206 346 206 346 187 337 c 0,86,87
 152 320 152 320 132 280 c 0,88,89
 125 265 125 265 121 254 c 128,-1,90
 117 243 117 243 115.5 237.5 c 128,-1,91
 114 232 114 232 111.5 216.5 c 128,-1,92
 109 201 109 201 106 189 c 0,93,94
 98 153 98 153 98 148 c 2,95,-1
 98 140 l 1,96,-1
 116 127 l 2,97,98
 143 108 143 108 162.5 106 c 128,-1,99
 182 104 182 104 206 117 c 0,100,101
 222 127 222 127 233 143 c 0,102,103
 249 168 249 168 253.5 193 c 128,-1,104
 258 218 258 218 254 266 c 0,105,106
 249 331 249 331 229 343 c 0,83,84
EndSplineSet
Validated: 33
EndChar

StartChar: c
Encoding: 99 99 69
Width: 385
GlyphClass: 2
Flags: W
LayerCount: 2
Fore
SplineSet
193 469 m 0,0,1
 202 473 202 473 225 472.5 c 128,-1,2
 248 472 248 472 253 467 c 0,3,4
 256 464 256 464 259 464 c 0,5,6
 263 464 263 464 280 450 c 0,7,8
 284 446 284 446 291.5 434.5 c 128,-1,9
 299 423 299 423 300 421 c 0,10,11
 321 395 321 395 321 385 c 0,12,13
 321 380 321 380 324 376 c 0,14,15
 329 368 329 368 323 350 c 0,16,17
 320 340 320 340 310 335 c 0,18,19
 307 334 307 334 304.5 333 c 128,-1,20
 302 332 302 332 300.5 331.5 c 128,-1,21
 299 331 299 331 297.5 331 c 128,-1,22
 296 331 296 331 295 332 c 128,-1,23
 294 333 294 333 294 334 c 128,-1,24
 294 335 294 335 276 344 c 0,25,26
 271 346 271 346 259 364 c 0,27,28
 255 370 255 370 238 391 c 0,29,30
 230 400 230 400 223 400 c 0,31,32
 207 400 207 400 177.5 367 c 128,-1,33
 148 334 148 334 129 295 c 0,34,35
 127 290 127 290 121.5 278 c 128,-1,36
 116 266 116 266 115 263 c 0,37,38
 112 254 112 254 109 248 c 0,39,40
 101 236 101 236 98.5 201 c 128,-1,41
 96 166 96 166 100 142 c 0,42,43
 110 83 110 83 171 94 c 0,44,45
 252 110 252 110 269 114 c 0,46,47
 316 126 316 126 324 122 c 0,48,49
 330 118 330 118 338 104 c 0,50,51
 355 72 355 72 332 61 c 0,52,53
 325 58 325 58 325 55 c 2,54,-1
 319 53 l 2,55,56
 313 51 313 51 307 49 c 2,57,-1
 301 47 l 2,58,59
 298 44 298 44 265.5 35.5 c 128,-1,60
 233 27 233 27 225 28 c 0,61,62
 219 28 219 28 216 27 c 0,63,64
 179 14 179 14 122 23 c 0,65,66
 111 25 111 25 99 29.5 c 128,-1,67
 87 34 87 34 87 37 c 0,68,69
 87 38 87 38 84 38 c 0,70,71
 80 38 80 38 65 52.5 c 128,-1,72
 50 67 50 67 45 76 c 0,73,74
 11 130 11 130 22 202 c 0,75,76
 33 268 33 268 38 273 c 0,77,78
 39 275 39 275 46 290.5 c 128,-1,79
 53 306 53 306 54 308 c 2,80,-1
 56 312 l 2,81,82
 58 315 58 315 60 318.5 c 128,-1,83
 62 322 62 322 63 326 c 0,84,85
 84 377 84 377 130 426 c 0,86,87
 139 436 139 436 159.5 451 c 128,-1,88
 180 466 180 466 184 466 c 0,89,90
 187 466 187 466 193 469 c 0,0,1
EndSplineSet
Validated: 33
EndChar

StartChar: d
Encoding: 100 100 70
Width: 428
GlyphClass: 2
Flags: W
LayerCount: 2
Fore
SplineSet
333 632 m 0,0,1
 333 635 333 635 333.5 636.5 c 128,-1,2
 334 638 334 638 335 638.5 c 128,-1,3
 336 639 336 639 338 640.5 c 128,-1,4
 340 642 340 642 341 644 c 0,5,6
 343 647 343 647 344.5 648 c 128,-1,7
 346 649 346 649 349 649.5 c 128,-1,8
 352 650 352 650 353.5 649.5 c 128,-1,9
 355 649 355 649 359.5 648 c 128,-1,10
 364 647 364 647 366 647 c 0,11,12
 376 646 376 646 388 634 c 1,13,-1
 387 613 l 2,14,15
 387 605 387 605 384.5 571.5 c 128,-1,16
 382 538 382 538 381 513 c 0,17,18
 380 491 380 491 378 449.5 c 128,-1,19
 376 408 376 408 376 390 c 0,20,21
 376 378 376 378 371.5 320.5 c 128,-1,22
 367 263 367 263 369 244 c 0,23,24
 370 233 370 233 370 177 c 128,-1,25
 370 121 370 121 369 104 c 0,26,27
 367 59 367 59 353 54 c 0,28,29
 347 52 347 52 328 52 c 128,-1,30
 309 52 309 52 305 54 c 0,31,32
 299 57 299 57 291 53 c 0,33,34
 262 41 262 41 244 40 c 0,35,36
 242 40 242 40 238 40 c 256,37,38
 234 40 234 40 234 39 c 0,39,40
 231 37 231 37 204 34 c 128,-1,41
 177 31 177 31 161 31 c 0,42,43
 92 31 92 31 49 70 c 0,44,45
 42 76 42 76 33 93.5 c 128,-1,46
 24 111 24 111 21 126 c 0,47,48
 16 147 16 147 24 201 c 0,49,50
 27 219 27 219 40 257 c 0,51,52
 63 321 63 321 111 360 c 0,53,54
 142 382 142 382 148 382 c 0,55,56
 150 382 150 382 162 387 c 0,57,58
 167 389 167 389 208 397 c 0,59,60
 258 407 258 407 277 399 c 2,61,-1
 303 389 l 1,62,63
 304 405 304 405 305 423 c 0,64,65
 309 488 309 488 317.5 554.5 c 128,-1,66
 326 621 326 621 331 625 c 0,67,68
 333 627 333 627 333 632 c 0,0,1
267 329 m 0,69,70
 257 335 257 335 211 327 c 0,71,72
 174 320 174 320 151 302 c 0,73,74
 130 286 130 286 111 244 c 0,75,76
 86 187 86 187 92 146 c 0,77,78
 96 119 96 119 110 110.5 c 128,-1,79
 124 102 124 102 159 101 c 0,80,81
 184 100 184 100 212 105 c 0,82,83
 259 114 259 114 278 122 c 2,84,-1
 290 128 l 1,85,-1
 290 136 l 2,86,87
 290 140 290 140 292 184 c 0,88,89
 296 256 296 256 291 281 c 0,90,91
 282 321 282 321 267 329 c 0,69,70
EndSplineSet
Validated: 33
EndChar

StartChar: e
Encoding: 101 101 71
Width: 432
GlyphClass: 2
Flags: W
LayerCount: 2
Fore
SplineSet
110 200 m 0,0,1
 101 200 101 200 94 212 c 1,2,3
 87 177 87 177 89 158 c 0,4,5
 89 154 89 154 95 138 c 0,6,7
 100 122 100 122 114 108 c 0,8,9
 134 88 134 88 155 84 c 0,10,11
 165 82 165 82 203 84.5 c 128,-1,12
 241 87 241 87 261 92 c 0,13,14
 282 96 282 96 301 94 c 0,15,16
 312 93 312 93 320 76 c 0,17,18
 329 56 329 56 320 52 c 0,19,20
 317 49 317 49 316 46 c 0,21,22
 315 42 315 42 309 37.5 c 128,-1,23
 303 33 303 33 301 33 c 0,24,25
 300 33 300 33 292 29 c 0,26,27
 260 15 260 15 202.5 12 c 128,-1,28
 145 9 145 9 118 21 c 0,29,30
 70 42 70 42 49 73 c 0,31,32
 29 100 29 100 27 116 c 0,33,34
 27 120 27 120 23 136 c 0,35,36
 10 190 10 190 40 276 c 0,37,38
 56 322 56 322 79 346 c 0,39,40
 88 354 88 354 89 359 c 0,41,42
 93 368 93 368 118.5 390 c 128,-1,43
 144 412 144 412 162 421 c 0,44,45
 199 439 199 439 201 437 c 0,46,47
 227 442 227 442 231 443 c 0,48,49
 253 449 253 449 297 436 c 0,50,51
 308 433 308 433 328.5 420.5 c 128,-1,52
 349 408 349 408 359 398 c 0,53,54
 396 361 396 361 392 305 c 0,55,56
 391 277 391 277 375 251 c 0,57,58
 369 242 369 242 356.5 228 c 128,-1,59
 344 214 344 214 342 214 c 128,-1,60
 340 214 340 214 330 210 c 0,61,62
 307 201 307 201 234 195 c 0,63,64
 137 186 137 186 119 198 c 0,65,66
 117 200 117 200 110 200 c 0,0,1
276 370 m 0,67,68
 245 383 245 383 199 360 c 0,69,70
 165 344 165 344 138 309 c 0,71,72
 128 296 128 296 119 280 c 128,-1,73
 110 264 110 264 111 263 c 0,74,75
 113 261 113 261 144 264 c 128,-1,76
 175 267 175 267 213 271 c 128,-1,77
 251 275 251 275 261 275 c 0,78,79
 288 277 288 277 294 278.5 c 128,-1,80
 300 280 300 280 306 287 c 0,81,82
 314 298 314 298 315 309 c 0,83,84
 317 333 317 333 311 343 c 0,85,86
 308 348 308 348 296 357.5 c 128,-1,87
 284 367 284 367 276 370 c 0,67,68
EndSplineSet
Validated: 33
EndChar

StartChar: f
Encoding: 102 102 72
Width: 463
GlyphClass: 2
Flags: W
LayerCount: 2
Fore
SplineSet
240 589 m 0,0,1
 240 591 240 591 246.5 591.5 c 128,-1,2
 253 592 253 592 262 592 c 128,-1,3
 271 592 271 592 280 591.5 c 128,-1,4
 289 591 289 591 296 590 c 2,5,-1
 304 590 l 1,6,7
 381 575 381 575 411 539 c 0,8,9
 419 529 419 529 419 528 c 0,10,11
 419 525 419 525 420 523 c 0,12,13
 425 508 425 508 422 503 c 0,14,15
 414 486 414 486 399 482 c 0,16,17
 395 482 395 482 388 478.5 c 128,-1,18
 381 475 381 475 374 476 c 0,19,20
 363 478 363 478 355 486 c 0,21,22
 344 497 344 497 325 504 c 0,23,24
 306 512 306 512 279 513 c 0,25,26
 254 514 254 514 243.5 511 c 128,-1,27
 233 508 233 508 222 495 c 0,28,29
 212 481 212 481 205 456 c 0,30,31
 198 427 198 427 196 400 c 2,32,-1
 195 380 l 1,33,-1
 214 381 l 2,34,35
 261 384 261 384 268.5 384 c 128,-1,36
 276 384 276 384 280 380 c 0,37,38
 292 370 292 370 293 345 c 2,39,-1
 294 327 l 1,40,-1
 286 320 l 2,41,42
 279 313 279 313 268.5 311.5 c 128,-1,43
 258 310 258 310 207 306 c 2,44,-1
 195 305 l 1,45,-1
 196 296 l 2,46,47
 197 290 197 290 202 216 c 128,-1,48
 207 142 207 142 211 117 c 0,49,50
 214 102 214 102 216 66 c 128,-1,51
 218 30 218 30 213 10 c 0,52,53
 212 7 212 7 211 5.5 c 128,-1,54
 210 4 210 4 208.5 2.5 c 128,-1,55
 207 1 207 1 206 0 c 128,-1,56
 205 -1 205 -1 202 -1.5 c 128,-1,57
 199 -2 199 -2 197.5 -2 c 128,-1,58
 196 -2 196 -2 190.5 -3 c 128,-1,59
 185 -4 185 -4 182 -4 c 0,60,61
 161 -6 161 -6 154 -2 c 0,62,63
 136 9 136 9 136 57 c 0,64,65
 137 77 137 77 133 115 c 128,-1,66
 129 153 129 153 129 162 c 0,67,68
 128 177 128 177 127 187.5 c 128,-1,69
 126 198 126 198 125 216 c 0,70,71
 124 237 124 237 122 249 c 128,-1,72
 120 261 120 261 119 278 c 0,73,74
 119 301 119 301 117 303 c 0,75,76
 116 304 116 304 88 304 c 0,77,78
 43 304 43 304 28 316 c 2,79,-1
 24 320 l 2,80,81
 22 325 22 325 21 333 c 0,82,83
 19 346 19 346 23 354 c 0,84,85
 31 369 31 369 50 372 c 0,86,87
 79 379 79 379 103 380 c 2,88,-1
 119 381 l 1,89,-1
 119 406 l 2,90,91
 121 459 121 459 126 464 c 0,92,93
 127 465 127 465 129 472.5 c 128,-1,94
 131 480 131 480 132 487 c 2,95,-1
 134 494 l 2,96,97
 143 515 143 515 148 522 c 0,98,99
 162 545 162 545 172.5 555 c 128,-1,100
 183 565 183 565 202 575 c 0,101,102
 217 583 217 583 231 586 c 0,103,104
 240 588 240 588 240 589 c 0,0,1
EndSplineSet
Validated: 33
EndChar

StartChar: g
Encoding: 103 103 73
Width: 506
GlyphClass: 2
Flags: W
LayerCount: 2
Fore
SplineSet
275 415 m 0,0,1
 294 419 294 419 319.5 418 c 128,-1,2
 345 417 345 417 353 412 c 0,3,4
 356 409 356 409 361 409 c 0,5,6
 364 409 364 409 372 405.5 c 128,-1,7
 380 402 380 402 385 401 c 0,8,9
 388 400 388 400 401 392 c 128,-1,10
 414 384 414 384 418 380 c 0,11,12
 423 376 423 376 428.5 365.5 c 128,-1,13
 434 355 434 355 436 352 c 0,14,15
 442 342 442 342 442 331 c 0,16,17
 442 316 442 316 430 291 c 0,18,19
 428 286 428 286 429.5 285.5 c 128,-1,20
 431 285 431 285 440 284 c 0,21,22
 442 284 442 284 451 275 c 128,-1,23
 460 266 460 266 462 262 c 0,24,25
 466 256 466 256 466.5 229.5 c 128,-1,26
 467 203 467 203 464 183 c 0,27,28
 462 166 462 166 464 130 c 0,29,30
 470 48 470 48 465 28 c 0,31,32
 464 25 464 25 459.5 -2 c 128,-1,33
 455 -29 455 -29 451 -40 c 0,34,35
 446 -58 446 -58 444 -66 c 0,36,37
 442 -76 442 -76 429.5 -103 c 128,-1,38
 417 -130 417 -130 407 -146 c 0,39,40
 398 -161 398 -161 372 -189 c 0,41,42
 367 -194 367 -194 367 -196 c 0,43,44
 367 -197 367 -197 351 -207 c 128,-1,45
 335 -217 335 -217 327 -221 c 0,46,47
 305 -232 305 -232 293 -232 c 0,48,49
 289 -232 289 -232 289 -233 c 128,-1,50
 289 -234 289 -234 258 -238 c 0,51,52
 212 -242 212 -242 181 -233 c 0,53,54
 178 -232 178 -232 173.5 -231 c 128,-1,55
 169 -230 169 -230 166 -229 c 128,-1,56
 163 -228 163 -228 162 -228 c 0,57,58
 150 -228 150 -228 98 -198 c 0,59,60
 87 -192 87 -192 68 -176 c 128,-1,61
 49 -160 49 -160 42 -150 c 0,62,63
 24 -126 24 -126 21 -100 c 0,64,65
 19 -85 19 -85 23 -77 c 0,66,67
 30 -59 30 -59 44 -59 c 0,68,69
 46 -59 46 -59 52 -53 c 128,-1,70
 58 -47 58 -47 58 -45 c 128,-1,71
 58 -43 58 -43 61 -46 c 0,72,73
 63 -48 63 -48 61.5 -54.5 c 128,-1,74
 60 -61 60 -61 65 -61 c 0,75,76
 78 -64 78 -64 85 -81 c 0,77,78
 94 -102 94 -102 123 -126 c 0,79,80
 145 -143 145 -143 180 -155 c 128,-1,81
 215 -167 215 -167 246 -167 c 0,82,83
 292 -167 292 -167 326 -131 c 0,84,85
 377 -77 377 -77 391 38 c 0,86,87
 393 52 393 52 391 53 c 0,88,89
 390 53 390 53 385 49 c 0,90,91
 347 19 347 19 285 13 c 0,92,93
 244 10 244 10 230 18 c 0,94,95
 229 19 229 19 224.5 20.5 c 128,-1,96
 220 22 220 22 216 23.5 c 128,-1,97
 212 25 212 25 212 26 c 128,-1,98
 212 27 212 27 211 27 c 0,99,100
 206 26 206 26 184 44.5 c 128,-1,101
 162 63 162 63 154 76 c 0,102,103
 145 89 145 89 130 128 c 0,104,105
 116 168 116 168 122 223 c 0,106,107
 126 266 126 266 132 275 c 2,108,-1
 133 278 l 2,109,110
 134 280 134 280 135.5 283.5 c 128,-1,111
 137 287 137 287 138 290 c 0,112,113
 158 341 158 341 188 365 c 1,114,115
 214 391 214 391 219 391 c 0,116,117
 220 391 220 391 231 398 c 0,118,119
 250 410 250 410 275 415 c 0,0,1
330 343 m 0,120,121
 309 348 309 348 290 343 c 0,122,123
 245 330 245 330 220.5 291 c 128,-1,124
 196 252 196 252 196 193 c 0,125,126
 196 137 196 137 228 105 c 0,127,128
 252 81 252 81 298 89 c 0,129,130
 317 93 317 93 330 101 c 0,131,132
 353 116 353 116 361.5 126.5 c 128,-1,133
 370 137 370 137 377 159 c 0,134,135
 378 163 378 163 381 169 c 0,136,137
 384 179 384 179 384 198 c 2,138,-1
 384 209 l 2,139,140
 384 242 384 242 386 249 c 0,141,142
 389 259 389 259 384 262 c 0,143,144
 380 265 380 265 381 275 c 0,145,146
 384 294 384 294 379 309 c 0,147,148
 378 313 378 313 378 318 c 0,149,150
 379 320 379 320 371.5 326 c 128,-1,151
 364 332 364 332 357 335 c 0,152,153
 344 340 344 340 330 343 c 0,120,121
EndSplineSet
Validated: 33
EndChar

StartChar: h
Encoding: 104 104 74
Width: 358
GlyphClass: 2
Flags: W
LayerCount: 2
Fore
SplineSet
41 584 m 0,0,1
 47 586 47 586 60 586 c 0,2,3
 74 586 74 586 80 580 c 2,4,-1
 87 574 l 1,5,-1
 88 553 l 2,6,7
 98 413 98 413 99 386 c 2,8,-1
 100 339 l 1,9,10
 100 340 100 340 104 342 c 0,11,12
 107 344 107 344 111 351 c 0,13,14
 113 355 113 355 120.5 362.5 c 128,-1,15
 128 370 128 370 134 376 c 2,16,-1
 140 381 l 2,17,18
 142 381 142 381 147 386 c 0,19,20
 150 389 150 389 164 394 c 128,-1,21
 178 399 178 399 180 401 c 0,22,23
 181 401 181 401 189.5 403 c 128,-1,24
 198 405 198 405 206 407 c 128,-1,25
 214 409 214 409 214 410 c 0,26,27
 217 413 217 413 252 405 c 0,28,29
 255 404 255 404 264.5 398.5 c 128,-1,30
 274 393 274 393 277 392 c 0,31,32
 281 391 281 391 288 382 c 0,33,34
 300 364 300 364 305 351 c 0,35,36
 323 296 323 296 318 233 c 0,37,38
 317 223 317 223 317 180 c 0,39,40
 317 61 317 61 316 51 c 0,41,42
 315 42 315 42 307 34 c 2,43,-1
 297 26 l 2,44,45
 296 24 296 24 289.5 25.5 c 128,-1,46
 283 27 283 27 269 32 c 0,47,48
 253 38 253 38 249 42.5 c 128,-1,49
 245 47 245 47 246 57 c 2,50,-1
 246 100 l 2,51,52
 246 116 246 116 246.5 163.5 c 128,-1,53
 247 211 247 211 246.5 251.5 c 128,-1,54
 246 292 246 292 242 318 c 0,55,56
 241 328 241 328 226 339 c 1,57,-1
 210 335 l 2,58,59
 179 329 179 329 164 306 c 0,60,61
 137 264 137 264 118 193 c 0,62,63
 104 138 104 138 103 113 c 0,64,65
 101 64 101 64 81 59 c 0,66,67
 78 58 78 58 73 55.5 c 128,-1,68
 68 53 68 53 63 52 c 0,69,70
 57 51 57 51 42 62 c 0,71,72
 31 70 31 70 28 75 c 128,-1,73
 25 80 25 80 23 95 c 0,74,75
 18 126 18 126 22 191 c 0,76,77
 25 250 25 250 26.5 331.5 c 128,-1,78
 28 413 28 413 26 430 c 0,79,80
 25 435 25 435 27 440 c 0,81,82
 29 442 29 442 28 490 c 0,83,84
 25 576 25 576 41 584 c 0,0,1
EndSplineSet
Validated: 33
EndChar

StartChar: i
Encoding: 105 105 75
Width: 227
GlyphClass: 2
Flags: W
LayerCount: 2
Fore
SplineSet
99 488 m 0,0,1
 128 492 128 492 141 487 c 0,2,3
 157 482 157 482 177 468 c 0,4,5
 186 463 186 463 186 460 c 0,6,7
 186 445 186 445 184 441 c 0,8,9
 183 438 183 438 180.5 429.5 c 128,-1,10
 178 421 178 421 173 416 c 0,11,12
 171 414 171 414 169.5 411.5 c 128,-1,13
 168 409 168 409 166.5 408 c 128,-1,14
 165 407 165 407 162 406 c 0,15,16
 147 403 147 403 135 409 c 0,17,18
 119 418 119 418 104 411 c 0,19,20
 100 409 100 409 93 408.5 c 128,-1,21
 86 408 86 408 82 406 c 0,22,23
 81 406 81 406 79 405 c 128,-1,24
 77 404 77 404 75.5 403.5 c 128,-1,25
 74 403 74 403 73 403 c 0,26,27
 70 403 70 403 58.5 399.5 c 128,-1,28
 47 396 47 396 42 397 c 0,29,30
 33 400 33 400 27 412 c 0,31,32
 11 445 11 445 32 456 c 0,33,34
 34 457 34 457 40 461 c 2,35,-1
 45 465 l 2,36,37
 51 470 51 470 70.5 478 c 128,-1,38
 90 486 90 486 99 488 c 0,0,1
67 314 m 2,39,-1
 72 321 l 1,40,-1
 91 321 l 2,41,42
 109 321 109 321 116 317 c 0,43,44
 122 314 122 314 122 309 c 0,45,46
 122 306 122 306 124 302 c 0,47,48
 128 294 128 294 129.5 267 c 128,-1,49
 131 240 131 240 128 222 c 0,50,51
 126 194 126 194 125.5 185.5 c 128,-1,52
 125 177 125 177 128 150 c 128,-1,53
 131 123 131 123 131 115 c 0,54,55
 133 90 133 90 139 80 c 2,56,-1
 144 69 l 1,57,58
 139 54 139 54 133 52 c 0,59,60
 127 49 127 49 122 44 c 0,61,62
 115 38 115 38 102 38 c 0,63,64
 85 38 85 38 77.5 44 c 128,-1,65
 70 50 70 50 64 68 c 0,66,67
 58 87 58 87 56 112 c 0,68,69
 55 128 55 128 53.5 140.5 c 128,-1,70
 52 153 52 153 51.5 164.5 c 128,-1,71
 51 176 51 176 51 201 c 0,72,73
 53 293 53 293 67 314 c 2,39,-1
EndSplineSet
Validated: 33
EndChar

StartChar: j
Encoding: 106 106 76
Width: 358
GlyphClass: 2
Flags: W
LayerCount: 2
Fore
SplineSet
256 535 m 0,0,1
 262 537 262 537 271 534.5 c 128,-1,2
 280 532 280 532 282 527 c 0,3,4
 283 525 283 525 291 517 c 0,5,6
 304 505 304 505 307.5 498.5 c 128,-1,7
 311 492 311 492 310 482 c 0,8,9
 309 470 309 470 308 465 c 128,-1,10
 307 460 307 460 302.5 453.5 c 128,-1,11
 298 447 298 447 297 444 c 0,12,13
 295 440 295 440 283 429 c 128,-1,14
 271 418 271 418 269 418 c 0,15,16
 266 418 266 418 265 417 c 0,17,18
 264 414 264 414 250 414 c 0,19,20
 226 413 226 413 214 435.5 c 128,-1,21
 202 458 202 458 210 482 c 0,22,23
 211 484 211 484 213 491 c 128,-1,24
 215 498 215 498 216.5 504 c 128,-1,25
 218 510 218 510 219 510 c 128,-1,26
 220 510 220 510 220 511 c 0,27,28
 218 514 218 514 231 522.5 c 128,-1,29
 244 531 244 531 256 535 c 0,0,1
189 -180 m 0,30,31
 189 -181 189 -181 181 -182 c 128,-1,32
 173 -183 173 -183 173 -184 c 128,-1,33
 173 -185 173 -185 164.5 -187 c 128,-1,34
 156 -189 156 -189 155 -189 c 0,35,36
 153 -191 153 -191 130.5 -188.5 c 128,-1,37
 108 -186 108 -186 106 -184 c 0,38,39
 105 -183 105 -183 103 -185 c 2,40,-1
 102 -185 l 1,41,42
 102 -184 102 -184 89.5 -178 c 128,-1,43
 77 -172 77 -172 75 -172 c 0,44,45
 74 -172 74 -172 61.5 -163.5 c 128,-1,46
 49 -155 49 -155 47 -153 c 0,47,48
 44 -150 44 -150 42 -150 c 0,49,50
 41 -150 41 -150 28 -139 c 0,51,52
 20 -132 20 -132 20 -114 c 0,53,54
 20 -101 20 -101 22.5 -96.5 c 128,-1,55
 25 -92 25 -92 36 -87 c 0,56,57
 49 -81 49 -81 62 -85 c 0,58,59
 71 -88 71 -88 74 -92 c 0,60,61
 88 -116 88 -116 118 -121 c 0,62,63
 128 -123 128 -123 128 -124 c 128,-1,64
 128 -125 128 -125 134 -125 c 0,65,66
 141 -125 141 -125 141 -124 c 128,-1,67
 141 -123 141 -123 152 -121 c 0,68,69
 162 -119 162 -119 184.5 -107.5 c 128,-1,70
 207 -96 207 -96 205 -92 c 0,71,72
 205 -90 205 -90 215 -80 c 0,73,74
 226 -68 226 -68 233 -52 c 0,75,76
 242 -34 242 -34 242 -31 c 0,77,78
 242 -29 242 -29 243 -26 c 128,-1,79
 244 -23 244 -23 245.5 -20 c 128,-1,80
 247 -17 247 -17 247 -16 c 0,81,82
 253 14 253 14 254 43 c 0,83,84
 258 164 258 164 252 182 c 0,85,86
 252 183 252 183 250 203 c 128,-1,87
 248 223 248 223 248 224 c 0,88,89
 247 225 247 225 247 229 c 0,90,91
 248 238 248 238 244 242 c 2,92,-1
 242 262 l 2,93,94
 239 281 239 281 238 282 c 0,95,96
 234 288 234 288 234 328 c 0,97,98
 234 347 234 347 239.5 353 c 128,-1,99
 245 359 245 359 261 361 c 0,100,101
 281 364 281 364 286 359 c 128,-1,102
 291 354 291 354 291 352 c 0,103,104
 296 310 296 310 298 305 c 0,105,106
 299 303 299 303 300 294 c 128,-1,107
 301 285 301 285 303 283 c 0,108,109
 304 282 304 282 304.5 279 c 128,-1,110
 305 276 305 276 304.5 273 c 128,-1,111
 304 270 304 270 305 266 c 0,112,113
 306 261 306 261 306 251 c 0,114,115
 306 246 306 246 307.5 242.5 c 128,-1,116
 309 239 309 239 309 233 c 0,117,118
 309 223 309 223 311 223 c 0,119,120
 312 223 312 223 312 214 c 128,-1,121
 312 205 312 205 312.5 194.5 c 128,-1,122
 313 184 313 184 314 181 c 0,123,124
 317 173 317 173 317 146 c 0,125,126
 316 105 316 105 317 81 c 2,127,-1
 317 53 l 2,128,129
 316 49 316 49 317.5 46 c 128,-1,130
 319 43 319 43 318 41 c 0,131,132
 317 36 317 36 316 23 c 128,-1,133
 315 10 315 10 314 5 c 0,134,135
 306 -46 306 -46 305 -47 c 2,136,-1
 302 -53 l 2,137,138
 302 -57 302 -57 298 -69 c 0,139,140
 298 -70 298 -70 292.5 -79 c 128,-1,141
 287 -88 287 -88 288 -91 c 0,142,143
 289 -93 289 -93 282.5 -101 c 128,-1,144
 276 -109 276 -109 276 -110 c 0,145,146
 276 -112 276 -112 266 -124 c 128,-1,147
 256 -136 256 -136 245 -144 c 0,148,149
 236 -151 236 -151 236 -154 c 0,150,151
 236 -155 236 -155 200 -173 c 0,152,153
 189 -178 189 -178 189 -180 c 0,30,31
EndSplineSet
Validated: 33
EndChar

StartChar: k
Encoding: 107 107 77
Width: 443
GlyphClass: 2
Flags: W
LayerCount: 2
Fore
SplineSet
108 179 m 1,0,-1
 106 162 l 2,1,2
 104 146 104 146 102 126 c 128,-1,3
 100 106 100 106 100 98 c 0,4,5
 100 26 100 26 96 20 c 0,6,7
 91 10 91 10 85 8 c 128,-1,8
 79 6 79 6 62 5 c 0,9,10
 35 3 35 3 26 14 c 0,11,12
 19 22 19 22 21 48 c 0,13,14
 21 58 21 58 21.5 68.5 c 128,-1,15
 22 79 22 79 22 87.5 c 128,-1,16
 22 96 22 96 23 108 c 0,17,18
 25 124 25 124 28 172 c 128,-1,19
 31 220 31 220 31 221 c 0,20,21
 33 239 33 239 39 345 c 128,-1,22
 45 451 45 451 53 499 c 0,23,24
 55 511 55 511 55 516 c 0,25,26
 55 535 55 535 72 540 c 0,27,28
 82 540 82 540 91 539 c 0,29,30
 114 538 114 538 114 529 c 0,31,32
 114 523 114 523 117 520 c 0,33,34
 120 516 120 516 121 459 c 0,35,36
 121 373 121 373 113 301 c 2,37,-1
 112 292 l 1,38,-1
 125 304 l 2,39,40
 135 314 135 314 153 328 c 0,41,42
 165 338 165 338 191.5 356.5 c 128,-1,43
 218 375 218 375 220 375 c 0,44,45
 221 375 221 375 257.5 399.5 c 128,-1,46
 294 424 294 424 299 428 c 0,47,48
 302 431 302 431 308 434 c 0,49,50
 329 441 329 441 338 434 c 0,51,52
 343 431 343 431 360 399 c 0,53,54
 367 385 367 385 357 376 c 0,55,56
 345 367 345 367 313 346 c 0,57,58
 273 320 273 320 257 311 c 0,59,60
 256 311 256 311 225 288 c 0,61,62
 176 253 176 253 169 244 c 0,63,64
 167 241 167 241 170 237.5 c 128,-1,65
 173 234 173 234 178 232 c 2,66,-1
 182 230 l 2,67,68
 183 230 183 230 196 220.5 c 128,-1,69
 209 211 209 211 212 208 c 0,70,71
 218 202 218 202 223 199 c 0,72,73
 239 188 239 188 290 126 c 0,74,75
 308 105 308 105 317 96 c 0,76,77
 393 19 393 19 392 17 c 0,78,79
 390 16 390 16 396 10 c 0,80,81
 399 6 399 6 401 -6 c 2,82,-1
 403 -17 l 2,83,84
 404 -19 404 -19 400 -25 c 128,-1,85
 396 -31 396 -31 394 -31 c 128,-1,86
 392 -31 392 -31 389 -34 c 0,87,88
 388 -36 388 -36 375.5 -40 c 128,-1,89
 363 -44 363 -44 361 -45 c 0,90,91
 359 -47 359 -47 351 -46 c 128,-1,92
 343 -45 343 -45 343 -43 c 128,-1,93
 343 -41 343 -41 340 -41 c 0,94,95
 338 -41 338 -41 334 -35 c 0,96,97
 328 -26 328 -26 315 -13 c 0,98,99
 265 37 265 37 210 103 c 0,100,101
 198 118 198 118 176.5 137.5 c 128,-1,102
 155 157 155 157 143 164 c 0,103,104
 119 179 119 179 108 179 c 1,0,-1
EndSplineSet
Validated: 33
EndChar

StartChar: l
Encoding: 108 108 78
Width: 171
GlyphClass: 2
Flags: W
LayerCount: 2
Fore
SplineSet
55 615 m 0,0,1
 59 619 59 619 68 619 c 0,2,3
 104 619 104 619 111 610 c 0,4,5
 113 606 113 606 113 594 c 0,6,7
 113 586 113 586 115 580.5 c 128,-1,8
 117 575 117 575 114 565 c 0,9,10
 112 549 112 549 112 522 c 0,11,12
 112 499 112 499 109.5 480 c 128,-1,13
 107 461 107 461 107 435 c 0,14,15
 106 404 106 404 103 380.5 c 128,-1,16
 100 357 100 357 99 331 c 0,17,18
 99 302 99 302 96 290 c 0,19,20
 95 283 95 283 95 261.5 c 128,-1,21
 95 240 95 240 97 236 c 0,22,23
 99 233 99 233 100.5 179.5 c 128,-1,24
 102 126 102 126 102 125 c 0,25,26
 103 119 103 119 107 90.5 c 128,-1,27
 111 62 111 62 113 55 c 0,28,29
 114 53 114 53 118 51 c 0,30,31
 127 49 127 49 129 31 c 0,32,33
 129 28 129 28 130.5 21.5 c 128,-1,34
 132 15 132 15 131 9 c 0,35,36
 131 4 131 4 123 -5 c 128,-1,37
 115 -14 115 -14 109 -16 c 0,38,39
 104 -18 104 -18 90 -17 c 128,-1,40
 76 -16 76 -16 71 -13 c 0,41,42
 65 -9 65 -9 57.5 0 c 128,-1,43
 50 9 50 9 49 13 c 0,44,45
 49 14 49 14 47.5 19 c 128,-1,46
 46 24 46 24 45 27 c 0,47,48
 38 48 38 48 28 128 c 0,49,50
 25 143 25 143 25 167 c 0,51,52
 25 192 25 192 22 214 c 0,53,54
 17 256 17 256 24 322 c 0,55,56
 37 431 37 431 37 532 c 0,57,58
 37 561 37 561 44 587 c 0,59,60
 51 612 51 612 55 615 c 0,0,1
EndSplineSet
Validated: 33
EndChar

StartChar: m
Encoding: 109 109 79
Width: 575
GlyphClass: 2
Flags: W
LayerCount: 2
Fore
SplineSet
156 453 m 0,0,1
 167 455 167 455 183 451 c 0,2,3
 191 449 191 449 207 439 c 128,-1,4
 223 429 223 429 228 422 c 0,5,6
 244 401 244 401 247 392 c 0,7,8
 265 355 265 355 266 328 c 0,9,10
 266 325 266 325 272 333 c 0,11,12
 273 335 273 335 275 338 c 0,13,14
 330 419 330 419 402 438 c 0,15,16
 411 440 411 440 429.5 440.5 c 128,-1,17
 448 441 448 441 457 439 c 0,18,19
 472 437 472 437 490 419 c 0,20,21
 497 412 497 412 507.5 393.5 c 128,-1,22
 518 375 518 375 518 370 c 2,23,-1
 518 368 l 2,24,25
 519 367 519 367 520 365 c 128,-1,26
 521 363 521 363 521 362 c 0,27,28
 525 355 525 355 527 342.5 c 128,-1,29
 529 330 529 330 530.5 310.5 c 128,-1,30
 532 291 532 291 533 286 c 0,31,32
 538 253 538 253 530 153 c 0,33,34
 528 129 528 129 525 105 c 128,-1,35
 522 81 522 81 518 38 c 0,36,37
 516 15 516 15 509 8 c 0,38,39
 503 2 503 2 483 1 c 2,40,-1
 463 0 l 1,41,-1
 456 8 l 2,42,43
 446 19 446 19 444.5 24.5 c 128,-1,44
 443 30 443 30 444 47 c 0,45,46
 444 59 444 59 456 163 c 0,47,48
 460 207 460 207 461 220 c 128,-1,49
 462 233 462 233 460 250 c 128,-1,50
 458 267 458 267 457 283 c 0,51,52
 451 364 451 364 431 367 c 0,53,54
 417 369 417 369 394 355 c 0,55,56
 385 350 385 350 365.5 329.5 c 128,-1,57
 346 309 346 309 334 293 c 0,58,59
 290 231 290 231 273 133 c 0,60,61
 271 119 271 119 260 108 c 0,62,63
 256 104 256 104 241 104 c 0,64,65
 216 104 216 104 206 115 c 128,-1,66
 196 126 196 126 196 197 c 0,67,68
 196 294 196 294 190 330 c 0,69,70
 186 359 186 359 170 372 c 2,71,-1
 163 378 l 1,72,-1
 154 368 l 2,73,74
 140 352 140 352 130 329 c 0,75,76
 125 318 125 318 117.5 293 c 128,-1,77
 110 268 110 268 110 263 c 0,78,79
 110 261 110 261 106 241 c 0,80,81
 102 223 102 223 103 211 c 0,82,83
 103 207 103 207 105 121 c 128,-1,84
 107 35 107 35 108 33 c 0,85,86
 110 26 110 26 106 17 c 0,87,88
 101 6 101 6 97 4 c 128,-1,89
 93 2 93 2 74 1 c 0,90,91
 50 0 50 0 47 2 c 0,92,93
 32 11 32 11 32 24 c 0,94,95
 32 28 32 28 30 38 c 0,96,97
 20 85 20 85 20 119 c 0,98,99
 20 198 20 198 24 218 c 0,100,101
 27 236 27 236 30 247.5 c 128,-1,102
 33 259 33 259 34.5 268.5 c 128,-1,103
 36 278 36 278 36 306 c 2,104,-1
 37 350 l 1,105,-1
 42 359 l 2,106,107
 47 367 47 367 57 368 c 2,108,-1
 66 369 l 1,109,-1
 75 386 l 2,110,111
 109 443 109 443 156 453 c 0,0,1
EndSplineSet
Validated: 33
EndChar

StartChar: n
Encoding: 110 110 80
Width: 370
GlyphClass: 2
Flags: W
LayerCount: 2
Fore
SplineSet
175 428 m 0,0,1
 180 431 180 431 199.5 428.5 c 128,-1,2
 219 426 219 426 223 422 c 0,3,4
 225 420 225 420 237 416 c 1,5,-1
 248 405 l 2,6,7
 270 383 270 383 282 351 c 0,8,9
 283 346 283 346 287 342 c 0,10,11
 289 340 289 340 297.5 313.5 c 128,-1,12
 306 287 306 287 306 283 c 0,13,14
 306 277 306 277 316 237 c 0,15,16
 324 212 324 212 326 172 c 0,17,18
 326 154 326 154 328 148 c 0,19,20
 331 129 331 129 331 88 c 128,-1,21
 331 47 331 47 328 31 c 0,22,23
 324 1 324 1 314 -12 c 2,24,-1
 310 -20 l 2,25,26
 310 -22 310 -22 291 -24 c 0,27,28
 287 -25 287 -25 275.5 -17.5 c 128,-1,29
 264 -10 264 -10 262 -9 c 0,30,31
 244 -2 244 -2 250 25 c 0,32,33
 255 52 255 52 255 102 c 128,-1,34
 255 152 255 152 250 186 c 0,35,36
 245 216 245 216 230 275 c 0,37,38
 225 297 225 297 213 323.5 c 128,-1,39
 201 350 201 350 195 353 c 0,40,41
 193 355 193 355 178 348 c 0,42,43
 165 342 165 342 145 322 c 0,44,45
 119 296 119 296 108 271 c 0,46,47
 99 250 99 250 97 236.5 c 128,-1,48
 95 223 95 223 96 186 c 0,49,50
 98 140 98 140 99 137 c 0,51,52
 104 121 104 121 107 79.5 c 128,-1,53
 110 38 110 38 106 30 c 2,54,-1
 104 24 l 2,55,56
 103 19 103 19 100 14 c 0,57,58
 95 4 95 4 87 1 c 128,-1,59
 79 -2 79 -2 59 -3 c 0,60,61
 43 -3 43 -3 32 19 c 0,62,63
 27 30 27 30 22 65 c 0,64,65
 19 89 19 89 20 281 c 0,66,67
 20 355 20 355 25 361 c 0,68,69
 27 364 27 364 41 367 c 256,70,71
 55 370 55 370 61 367 c 0,72,73
 67 363 67 363 67 361 c 0,74,75
 67 352 67 352 83 366 c 0,76,77
 117 400 117 400 135 409 c 0,78,79
 160 423 160 423 161 423 c 0,80,81
 173 427 173 427 175 428 c 0,0,1
EndSplineSet
Validated: 33
EndChar

StartChar: o
Encoding: 111 111 81
Width: 403
GlyphClass: 2
Flags: W
LayerCount: 2
Fore
SplineSet
177 409 m 0,0,1
 179 409 179 409 186.5 412 c 128,-1,2
 194 415 194 415 197 415 c 0,3,4
 238 422 238 422 267 404 c 0,5,6
 284 395 284 395 294 387 c 0,7,8
 300 383 300 383 313 369.5 c 128,-1,9
 326 356 326 356 327 353 c 0,10,11
 327 352 327 352 334 340 c 128,-1,12
 341 328 341 328 341 327 c 0,13,14
 341 325 341 325 345 317 c 128,-1,15
 349 309 349 309 349 308 c 128,-1,16
 349 307 349 307 353 297 c 0,17,18
 361 275 361 275 363 241 c 128,-1,19
 365 207 365 207 358 178 c 0,20,21
 348 143 348 143 345 140 c 0,22,23
 344 139 344 139 340 131 c 0,24,25
 338 127 338 127 329 114.5 c 128,-1,26
 320 102 320 102 318 99 c 0,27,28
 302 76 302 76 285 59 c 0,29,30
 277 51 277 51 261.5 39.5 c 128,-1,31
 246 28 246 28 243 28 c 0,32,33
 242 28 242 28 232 22 c 0,34,35
 202 3 202 3 170 -2 c 0,36,37
 147 -6 147 -6 120 -2 c 128,-1,38
 93 2 93 2 79 13 c 0,39,40
 77 14 77 14 75 15.5 c 128,-1,41
 73 17 73 17 70.5 18.5 c 128,-1,42
 68 20 68 20 67 21 c 0,43,44
 40 37 40 37 24 93 c 0,45,46
 20 107 20 107 20 153 c 0,47,48
 20 190 20 190 22.5 204 c 128,-1,49
 25 218 25 218 36 255 c 0,50,51
 50 301 50 301 66 324 c 2,52,-1
 72 334 l 2,53,54
 72 336 72 336 84 350.5 c 128,-1,55
 96 365 96 365 103 372 c 0,56,57
 131 398 131 398 153 405 c 0,58,59
 171 409 171 409 177 409 c 0,0,1
263 312 m 2,60,-1
 249 304 l 2,61,62
 235 297 235 297 234 297 c 0,63,64
 232 297 232 297 224 304.5 c 128,-1,65
 216 312 216 312 215 312 c 0,66,67
 213 312 213 312 211 316 c 0,68,69
 209 319 209 319 202.5 323.5 c 128,-1,70
 196 328 196 328 195 330 c 0,71,72
 192 333 192 333 191 331 c 128,-1,73
 190 329 190 329 183 329 c 128,-1,74
 176 329 176 329 174 331 c 0,75,76
 170 338 170 338 153 319 c 0,77,78
 107 270 107 270 93 175 c 0,79,80
 87 134 87 134 100 102 c 0,81,82
 107 83 107 83 116 77 c 128,-1,83
 125 71 125 71 148 71 c 0,84,85
 169 71 169 71 206 92 c 0,86,87
 247 117 247 117 272 163 c 0,88,89
 296 204 296 204 287 251 c 0,90,91
 282 275 282 275 281 278 c 0,92,93
 268 312 268 312 263 312 c 2,60,-1
EndSplineSet
Validated: 33
EndChar

StartChar: p
Encoding: 112 112 82
Width: 441
GlyphClass: 2
Flags: W
LayerCount: 2
Fore
SplineSet
219 443 m 0,0,1
 223 445 223 445 241 441 c 0,2,3
 288 430 288 430 305 417 c 0,4,5
 314 410 314 410 317 410 c 0,6,7
 319 411 319 411 334 394.5 c 128,-1,8
 349 378 349 378 353 371 c 0,9,10
 376 335 376 335 386 298 c 0,11,12
 388 292 388 292 390 288 c 128,-1,13
 392 284 392 284 394 277 c 0,14,15
 406 227 406 227 399 171 c 0,16,17
 399 168 399 168 395 153 c 128,-1,18
 391 138 391 138 391 136 c 0,19,20
 391 131 391 131 383 119 c 0,21,22
 379 113 379 113 377 109 c 128,-1,23
 375 105 375 105 374 103 c 128,-1,24
 373 101 373 101 370 97.5 c 128,-1,25
 367 94 367 94 359 86 c 0,26,27
 341 68 341 68 328 62 c 0,28,29
 305 50 305 50 299 48 c 0,30,31
 234 31 234 31 189 43 c 0,32,33
 150 51 150 51 121 65 c 2,34,-1
 106 72 l 1,35,-1
 106 53 l 2,36,37
 106 33 106 33 105 32 c 128,-1,38
 104 31 104 31 101.5 -47 c 128,-1,39
 99 -125 99 -125 99 -129 c 0,40,41
 97 -136 97 -136 97 -170 c 0,42,43
 97 -181 97 -181 90.5 -193 c 128,-1,44
 84 -205 84 -205 78 -205 c 0,45,46
 74 -205 74 -205 70 -207 c 128,-1,47
 66 -209 66 -209 54 -205 c 0,48,49
 48 -203 48 -203 43 -202 c 128,-1,50
 38 -201 38 -201 33 -198 c 0,51,52
 16 -188 16 -188 22 -146 c 0,53,54
 24 -129 24 -129 26 -84.5 c 128,-1,55
 28 -40 28 -40 29.5 17 c 128,-1,56
 31 74 31 74 32 97 c 0,57,58
 36 157 36 157 36 181 c 0,59,60
 38 215 38 215 39 221 c 0,61,62
 43 251 43 251 36 265 c 0,63,64
 34 271 34 271 35 297 c 128,-1,65
 36 323 36 323 41 334 c 0,66,67
 46 344 46 344 46 348 c 0,68,69
 46 354 46 354 67 379 c 0,70,71
 71 384 71 384 74.5 388.5 c 128,-1,72
 78 393 78 393 80 395.5 c 128,-1,73
 82 398 82 398 83 399 c 0,74,75
 85 402 85 402 100.5 411 c 128,-1,76
 116 420 116 420 125 423 c 0,77,78
 132 426 132 426 136.5 428 c 128,-1,79
 141 430 141 430 148 432 c 0,80,81
 154 433 154 433 157 436 c 0,82,83
 158 438 158 438 177.5 440.5 c 128,-1,84
 197 443 197 443 206 442 c 0,85,86
 214 441 214 441 219 443 c 0,0,1
226 368 m 0,87,88
 191 372 191 372 165 363 c 0,89,90
 128 352 128 352 113 333 c 2,91,-1
 106 324 l 1,92,-1
 107 311 l 2,93,94
 107 308 107 308 107.5 295.5 c 128,-1,95
 108 283 108 283 108.5 261 c 128,-1,96
 109 239 109 239 109 223 c 2,97,-1
 111 148 l 1,98,-1
 117 148 l 2,99,100
 124 148 124 148 141 138 c 0,101,102
 166 122 166 122 195 117 c 0,103,104
 232 109 232 109 265 116 c 0,105,106
 309 126 309 126 321.5 162.5 c 128,-1,107
 334 199 334 199 319 263 c 0,108,109
 315 284 315 284 304 306 c 0,110,111
 293 329 293 329 280 341 c 0,112,113
 254 365 254 365 226 368 c 0,87,88
EndSplineSet
Validated: 33
EndChar

StartChar: q
Encoding: 113 113 83
Width: 472
GlyphClass: 2
Flags: W
LayerCount: 2
Fore
SplineSet
128 357 m 0,0,1
 129 357 129 357 132.5 360 c 128,-1,2
 136 363 136 363 137 363 c 0,3,4
 139 363 139 363 143 366.5 c 128,-1,5
 147 370 147 370 148 370 c 0,6,7
 178 387 178 387 180 387 c 0,8,9
 186 387 186 387 189 390 c 0,10,11
 190 391 190 391 205.5 394 c 128,-1,12
 221 397 221 397 223 396 c 0,13,14
 227 394 227 394 234 394 c 0,15,16
 239 394 239 394 256 389 c 0,17,18
 263 387 263 387 268.5 383.5 c 128,-1,19
 274 380 274 380 279 377 c 0,20,21
 287 373 287 373 295.5 366 c 128,-1,22
 304 359 304 359 308 357 c 0,23,24
 320 349 320 349 327 338 c 0,25,26
 331 332 331 332 332.5 332.5 c 128,-1,27
 334 333 334 333 338 341 c 0,28,29
 341 348 341 348 346 349.5 c 128,-1,30
 351 351 351 351 366 349 c 0,31,32
 383 348 383 348 386 344.5 c 128,-1,33
 389 341 389 341 389 325 c 0,34,35
 389 310 389 310 386 292.5 c 128,-1,36
 383 275 383 275 379 259.5 c 128,-1,37
 375 244 375 244 375 241 c 0,38,39
 372 223 372 223 370 214 c 0,40,41
 354 126 354 126 356 120 c 0,42,43
 361 105 361 105 353 93 c 0,44,45
 347 84 347 84 344 60 c 0,46,47
 321 -88 321 -88 363 -174 c 0,48,49
 372 -192 372 -192 381 -200 c 1,50,51
 394 -189 394 -189 409 -200 c 0,52,53
 412 -202 412 -202 415.5 -204 c 128,-1,54
 419 -206 419 -206 420.5 -206.5 c 128,-1,55
 422 -207 422 -207 424 -208.5 c 128,-1,56
 426 -210 426 -210 427.5 -213 c 128,-1,57
 429 -216 429 -216 431 -221 c 0,58,59
 435 -233 435 -233 419 -251 c 0,60,61
 410 -261 410 -261 389 -266 c 0,62,63
 378 -270 378 -270 358 -259.5 c 128,-1,64
 338 -249 338 -249 328 -235 c 0,65,66
 309 -205 309 -205 308 -202 c 0,67,68
 294 -172 294 -172 284 -133 c 0,69,70
 283 -131 283 -131 282.5 -127 c 128,-1,71
 282 -123 282 -123 281.5 -121 c 128,-1,72
 281 -119 281 -119 280 -116.5 c 128,-1,73
 279 -114 279 -114 279 -113 c 0,74,75
 277 -107 277 -107 275.5 -94.5 c 128,-1,76
 274 -82 274 -82 275 -80 c 2,77,-1
 275 -76 l 1,78,79
 269 -39 269 -39 277 23 c 1,80,81
 258 10 258 10 230 3 c 2,82,-1
 210 -2 l 2,83,84
 165 -13 165 -13 126 0 c 0,85,86
 96 12 96 12 82 21 c 0,87,88
 49 44 49 44 49 51 c 0,89,90
 49 52 49 52 45 58 c 0,91,92
 36 70 36 70 24 114 c 0,93,94
 24 116 24 116 23 119 c 128,-1,95
 22 122 22 122 21.5 124 c 128,-1,96
 21 126 21 126 21 127 c 128,-1,97
 21 128 21 128 20.5 132.5 c 128,-1,98
 20 137 20 137 20 140 c 0,99,100
 19 150 19 150 21.5 167.5 c 128,-1,101
 24 185 24 185 26 190 c 0,102,103
 29 195 29 195 34.5 216.5 c 128,-1,104
 40 238 40 238 43 241 c 2,105,-1
 51 257 l 2,106,107
 55 266 55 266 67 283 c 128,-1,108
 79 300 79 300 81 304 c 0,109,110
 86 313 86 313 106 335 c 128,-1,111
 126 357 126 357 128 357 c 0,0,1
242 330 m 0,112,113
 214 340 214 340 183 319 c 0,114,115
 134 285 134 285 103 224 c 0,116,117
 88 196 88 196 84.5 160.5 c 128,-1,118
 81 125 81 125 95 96 c 0,119,120
 123 48 123 48 191 57 c 0,121,122
 226 62 226 62 261 85 c 0,123,124
 285 101 285 101 288 115 c 0,125,126
 304 201 304 201 305 205 c 0,127,128
 306 213 306 213 313 245.5 c 128,-1,129
 320 278 320 278 320 284 c 0,130,131
 320 286 320 286 313 289 c 128,-1,132
 306 292 306 292 299 295 c 128,-1,133
 292 298 292 298 291 299 c 0,134,135
 289 301 289 301 279 308 c 128,-1,136
 269 315 269 315 267 317 c 0,137,138
 260 324 260 324 242 330 c 0,112,113
EndSplineSet
Validated: 33
EndChar

StartChar: r
Encoding: 114 114 84
Width: 437
GlyphClass: 2
Flags: W
LayerCount: 2
Fore
SplineSet
165 421 m 0,0,1
 168 422 168 422 197.5 424 c 128,-1,2
 227 426 227 426 230 426 c 0,3,4
 233 427 233 427 261 420 c 128,-1,5
 289 413 289 413 301 409 c 0,6,7
 303 408 303 408 312.5 404.5 c 128,-1,8
 322 401 322 401 324.5 400 c 128,-1,9
 327 399 327 399 334.5 396 c 128,-1,10
 342 393 342 393 345.5 391 c 128,-1,11
 349 389 349 389 355.5 385.5 c 128,-1,12
 362 382 362 382 366 379 c 128,-1,13
 370 376 370 376 375 371.5 c 128,-1,14
 380 367 380 367 384 362 c 0,15,16
 395 349 395 349 396 345 c 128,-1,17
 397 341 397 341 395 327 c 128,-1,18
 393 313 393 313 377 309 c 0,19,20
 366 306 366 306 366 305 c 0,21,22
 349 295 349 295 324 316 c 0,23,24
 311 327 311 327 295 334 c 0,25,26
 271 344 271 344 232.5 348.5 c 128,-1,27
 194 353 194 353 173 348 c 0,28,29
 126 337 126 337 107 305 c 0,30,31
 99 291 99 291 104 291 c 0,32,33
 107 291 107 291 107 278 c 0,34,35
 107 227 107 227 110 171 c 128,-1,36
 113 115 113 115 114 92 c 0,37,38
 116 42 116 42 118 35 c 0,39,40
 123 14 123 14 114 5 c 0,41,42
 103 -6 103 -6 72 -6 c 0,43,44
 56 -6 56 -6 51 0 c 0,45,46
 44 8 44 8 40 32 c 0,47,48
 39 42 39 42 35 62 c 128,-1,49
 31 82 31 82 29 101 c 0,50,51
 27 116 27 116 24 135.5 c 128,-1,52
 21 155 21 155 20.5 169.5 c 128,-1,53
 20 184 20 184 20 220 c 0,54,55
 20 280 20 280 24 296 c 0,56,57
 36 339 36 339 54 357 c 0,58,59
 60 363 60 363 62 369 c 0,60,61
 64 376 64 376 65 376 c 0,62,63
 67 376 67 376 77 384 c 0,64,65
 105 407 105 407 165 421 c 0,0,1
EndSplineSet
Validated: 33
EndChar

StartChar: s
Encoding: 115 115 85
Width: 382
GlyphClass: 2
Flags: W
LayerCount: 2
Fore
SplineSet
168 449 m 0,0,1
 181 451 181 451 202 447 c 0,2,3
 215 445 215 445 227 439 c 0,4,5
 241 433 241 433 245 423 c 0,6,7
 250 411 250 411 250 410 c 2,8,-1
 240 390 l 2,9,10
 231 373 231 373 223 371 c 0,11,12
 212 367 212 367 200 371 c 0,13,14
 157 385 157 385 119 345 c 0,15,16
 108 334 108 334 100 321 c 0,17,18
 90 302 90 302 98 300 c 0,19,20
 100 298 100 298 128 302 c 2,21,-1
 156 304 l 1,22,-1
 182 318 l 2,23,24
 198 326 198 326 220 334 c 0,25,26
 237 339 237 339 247 339 c 0,27,28
 258 339 258 339 264.5 338 c 128,-1,29
 271 337 271 337 273 336 c 128,-1,30
 275 335 275 335 280.5 332.5 c 128,-1,31
 286 330 286 330 290 328 c 0,32,33
 298 324 298 324 309.5 313.5 c 128,-1,34
 321 303 321 303 325 295 c 0,35,36
 328 288 328 288 328 288 c 2,37,38
 331 277 331 277 331 274 c 0,39,40
 331 265 331 265 334 253 c 0,41,42
 348 196 348 196 337.5 158.5 c 128,-1,43
 327 121 327 121 290 87 c 0,44,45
 273 70 273 70 267 65 c 0,46,47
 252 51 252 51 216 35 c 0,48,49
 209 32 209 32 162 21 c 0,50,51
 154 19 154 19 136 19 c 128,-1,52
 118 19 118 19 98 29 c 0,53,54
 89 34 89 34 83 38 c 128,-1,55
 77 42 77 42 74.5 45 c 128,-1,56
 72 48 72 48 67 54.5 c 128,-1,57
 62 61 62 61 58 66 c 0,58,59
 35 93 35 93 30 121 c 0,60,61
 25 152 25 152 32 161 c 128,-1,62
 39 170 39 170 42.5 172 c 128,-1,63
 46 174 46 174 60 175 c 0,64,65
 78 177 78 177 83 174 c 128,-1,66
 88 171 88 171 91 156 c 0,67,68
 91 153 91 153 96 145 c 128,-1,69
 101 137 101 137 101 133 c 0,70,71
 101 122 101 122 124 101 c 0,72,73
 133 92 133 92 142 93 c 0,74,75
 195 101 195 101 214 117 c 0,76,77
 218 121 218 121 229.5 131.5 c 128,-1,78
 241 142 241 142 247 148 c 128,-1,79
 253 154 253 154 260 165.5 c 128,-1,80
 267 177 267 177 268 188 c 0,81,82
 269 196 269 196 264 226.5 c 128,-1,83
 259 257 259 257 256 261 c 0,84,85
 250 269 250 269 220 254 c 0,86,87
 190 238 190 238 172 233.5 c 128,-1,88
 154 229 154 229 115 226 c 0,89,90
 96 224 96 224 80 228 c 0,91,92
 75 229 75 229 69 230.5 c 128,-1,93
 63 232 63 232 61.5 232.5 c 128,-1,94
 60 233 60 233 56.5 234.5 c 128,-1,95
 53 236 53 236 50 238.5 c 128,-1,96
 47 241 47 241 42 247 c 0,97,98
 29 262 29 262 23 277 c 0,99,100
 13 328 13 328 38.5 367 c 128,-1,101
 64 406 64 406 107 428 c 0,102,103
 142 445 142 445 168 449 c 0,0,1
EndSplineSet
Validated: 33
EndChar

StartChar: t
Encoding: 116 116 86
Width: 371
GlyphClass: 2
Flags: W
LayerCount: 2
Fore
SplineSet
147 593 m 128,-1,1
 147 595 147 595 151.5 600.5 c 128,-1,2
 156 606 156 606 157 606 c 0,3,4
 167 604 167 604 178 602 c 0,5,6
 200 598 200 598 203 592 c 0,7,8
 206 582 206 582 196 513 c 0,9,10
 190 468 190 468 183 444 c 0,11,12
 182 441 182 441 180 431 c 2,13,-1
 178 423 l 1,14,-1
 215 423 l 2,15,16
 283 423 283 423 299 416 c 0,17,18
 310 413 310 413 310 395 c 0,19,20
 310 394 310 394 311.5 387 c 128,-1,21
 313 380 313 380 313 374.5 c 128,-1,22
 313 369 313 369 310 369 c 2,23,-1
 308 363 l 2,24,25
 306 358 306 358 300.5 353 c 128,-1,26
 295 348 295 348 290 348 c 2,27,-1
 227 348 l 2,28,29
 168 348 168 348 167 345 c 0,30,31
 166 343 166 343 156 261 c 0,32,33
 154 249 154 249 154 218 c 0,34,35
 154 120 154 120 189 86 c 0,36,37
 198 77 198 77 210 74 c 0,38,39
 225 71 225 71 244.5 76.5 c 128,-1,40
 264 82 264 82 274 92 c 2,41,-1
 283 101 l 1,42,-1
 297 100 l 2,43,44
 319 97 319 97 327 88 c 0,45,46
 332 83 332 83 331 66 c 0,47,48
 330 44 330 44 316 31 c 0,49,50
 313 29 313 29 304 23.5 c 128,-1,51
 295 18 295 18 287.5 14 c 128,-1,52
 280 10 280 10 280 11 c 1,53,54
 273 10 273 10 265 7 c 0,55,56
 204 -12 204 -12 158 17 c 0,57,58
 142 28 142 28 134.5 35 c 128,-1,59
 127 42 127 42 115 59 c 0,60,61
 105 74 105 74 91 121 c 0,62,63
 76 179 76 179 81 232 c 0,64,65
 84 268 84 268 85 285 c 0,66,67
 87 312 87 312 89 322 c 0,68,69
 93 337 93 337 87 339.5 c 128,-1,70
 81 342 81 342 64 339 c 0,71,72
 44 338 44 338 35 344 c 0,73,74
 25 350 25 350 23 358 c 0,75,76
 17 383 17 383 21 392 c 0,77,78
 26 403 26 403 36 406 c 0,79,80
 39 407 39 407 65 410.5 c 128,-1,81
 91 414 91 414 96 414 c 128,-1,82
 101 414 101 414 102 416.5 c 128,-1,83
 103 419 103 419 106 441 c 0,84,85
 109 457 109 457 121 511 c 0,86,87
 122 516 122 516 124 521.5 c 128,-1,88
 126 527 126 527 127 534 c 0,89,90
 131 558 131 558 138 572 c 0,91,92
 141 580 141 580 141 582 c 128,-1,93
 141 584 141 584 144 587.5 c 128,-1,0
 147 591 147 591 147 593 c 128,-1,1
EndSplineSet
Validated: 33
EndChar

StartChar: u
Encoding: 117 117 87
Width: 419
GlyphClass: 2
Flags: W
LayerCount: 2
Fore
SplineSet
302 411 m 0,0,1
 317 420 317 420 319.5 421 c 128,-1,2
 322 422 322 422 339 421 c 0,3,4
 347 419 347 419 360 392 c 0,5,6
 375 358 375 358 378 323 c 0,7,8
 380 297 380 297 380 251 c 128,-1,9
 380 205 380 205 379 199 c 0,10,11
 378 195 378 195 374 171 c 0,12,13
 366 116 366 116 344 87 c 0,14,15
 319 56 319 56 312 54 c 0,16,17
 309 54 309 54 306 51 c 0,18,19
 297 43 297 43 267.5 31.5 c 128,-1,20
 238 20 238 20 210 14 c 0,21,22
 165 4 165 4 135 9 c 0,23,24
 57 22 57 22 35 92 c 0,25,26
 10 172 10 172 24 243 c 0,27,28
 25 250 25 250 26.5 266.5 c 128,-1,29
 28 283 28 283 30 295.5 c 128,-1,30
 32 308 32 308 36 313 c 0,31,32
 38 316 38 316 41 329 c 128,-1,33
 44 342 44 342 45 345 c 0,34,35
 48 351 48 351 48 358 c 0,36,37
 48 363 48 363 56 382 c 128,-1,38
 64 401 64 401 67 405 c 0,39,40
 72 410 72 410 75 413 c 128,-1,41
 78 416 78 416 78 415 c 256,42,43
 78 414 78 414 81 416 c 0,44,45
 84 419 84 419 105 410 c 0,46,47
 124 403 124 403 127.5 398 c 128,-1,48
 131 393 131 393 128 381 c 0,49,50
 126 374 126 374 126 367 c 128,-1,51
 126 360 126 360 122 349 c 0,52,53
 108 305 108 305 106 283 c 0,54,55
 101 232 101 232 97 224 c 0,56,57
 95 222 95 222 96.5 186.5 c 128,-1,58
 98 151 98 151 100 137 c 0,59,60
 105 109 105 109 118 94 c 0,61,62
 125 87 125 87 130.5 85.5 c 128,-1,63
 136 84 136 84 161 83 c 0,64,65
 215 83 215 83 248 102 c 0,66,67
 274 116 274 116 284.5 132 c 128,-1,68
 295 148 295 148 299 179 c 0,69,70
 303 206 303 206 304 207 c 0,71,72
 306 211 306 211 306 250 c 128,-1,73
 306 289 306 289 304 292 c 0,74,75
 303 294 303 294 301 319 c 0,76,77
 300 345 300 345 286 377 c 0,78,79
 281 387 281 387 284 395 c 0,80,81
 286 402 286 402 302 411 c 0,0,1
EndSplineSet
Validated: 33
EndChar

StartChar: v
Encoding: 118 118 88
Width: 404
GlyphClass: 2
Flags: W
LayerCount: 2
Fore
SplineSet
84 376 m 0,0,1
 84 374 84 374 88 365.5 c 128,-1,2
 92 357 92 357 92 354 c 0,3,4
 92 348 92 348 97 335 c 0,5,6
 113 293 113 293 126 237 c 0,7,8
 142 173 142 173 163 108 c 2,9,-1
 168 91 l 1,10,-1
 187 127 l 2,11,12
 191 136 191 136 196 147 c 128,-1,13
 201 158 201 158 205.5 168.5 c 128,-1,14
 210 179 210 179 211 181 c 0,15,16
 219 199 219 199 220 201 c 0,17,18
 227 212 227 212 261 318 c 0,19,20
 266 335 266 335 272.5 353 c 128,-1,21
 279 371 279 371 283.5 383.5 c 128,-1,22
 288 396 288 396 288 397 c 0,23,24
 294 409 294 409 301 416 c 2,25,-1
 311 425 l 1,26,27
 321 426 321 426 323 425 c 0,28,29
 328 423 328 423 344 413.5 c 128,-1,30
 360 404 360 404 361 402 c 0,31,32
 368 394 368 394 360 376 c 0,33,34
 355 366 355 366 329 288 c 0,35,36
 303 207 303 207 292.5 181 c 128,-1,37
 282 155 282 155 248 87 c 0,38,39
 221 33 221 33 221 31 c 0,40,41
 220 27 220 27 209.5 12 c 128,-1,42
 199 -3 199 -3 195 -7 c 0,43,44
 184 -14 184 -14 171 -14 c 0,45,46
 155 -19 155 -19 145 -14 c 0,47,48
 137 -10 137 -10 126.5 1 c 128,-1,49
 116 12 116 12 115 18 c 0,50,51
 113 27 113 27 106 44.5 c 128,-1,52
 99 62 99 62 97 68 c 0,53,54
 65 171 65 171 62 188 c 0,55,56
 59 201 59 201 56.5 213 c 128,-1,57
 54 225 54 225 50.5 239 c 128,-1,58
 47 253 47 253 44 264 c 128,-1,59
 41 275 41 275 35.5 294 c 128,-1,60
 30 313 30 313 26.5 329 c 128,-1,61
 23 345 23 345 21 363 c 0,62,63
 19 386 19 386 23 391 c 0,64,65
 32 403 32 403 50 404 c 0,66,67
 75 406 75 406 75 397 c 0,68,69
 75 394 75 394 76 392 c 0,70,71
 78 390 78 390 78 388 c 128,-1,72
 78 386 78 386 81 381.5 c 128,-1,73
 84 377 84 377 84 376 c 0,0,1
EndSplineSet
Validated: 33
EndChar

StartChar: w
Encoding: 119 119 89
Width: 466
GlyphClass: 2
Flags: W
LayerCount: 2
Fore
SplineSet
355 455 m 0,0,1
 372 472 372 472 386 465 c 0,2,3
 389 463 389 463 392 463 c 0,4,5
 396 463 396 463 408 455 c 0,6,7
 422 446 422 446 425 416 c 0,8,9
 427 405 427 405 425.5 397 c 128,-1,10
 424 389 424 389 425 379 c 0,11,12
 426 375 426 375 423 307 c 128,-1,13
 420 239 420 239 420 235 c 0,14,15
 420 205 420 205 400 136 c 0,16,17
 394 114 394 114 378.5 83 c 128,-1,18
 363 52 363 52 349 38 c 0,19,20
 339 28 339 28 339 26 c 0,21,22
 339 23 339 23 321 12 c 2,23,-1
 303 0 l 1,24,-1
 286 0 l 2,25,26
 260 0 260 0 260 6 c 0,27,28
 260 7 260 7 257 7 c 0,29,30
 249 7 249 7 236 22 c 0,31,32
 209 53 209 53 209 61 c 0,33,34
 209 64 209 64 206 70 c 0,35,36
 204 73 204 73 192 110 c 0,37,38
 191 111 191 111 182 94 c 0,39,40
 152 32 152 32 114 29 c 0,41,42
 74 26 74 26 51 66 c 0,43,44
 43 79 43 79 45 81 c 0,45,46
 46 82 46 82 43 85 c 0,47,48
 38 90 38 90 32 121.5 c 128,-1,49
 26 153 26 153 25 172 c 0,50,51
 25 180 25 180 22 204 c 0,52,53
 20 224 20 224 20 295 c 2,54,-1
 20 371 l 1,55,-1
 25 381 l 2,56,57
 30 391 30 391 34.5 393.5 c 128,-1,58
 39 396 39 396 52 396 c 0,59,60
 68 396 68 396 74 392 c 128,-1,61
 80 388 80 388 80 377 c 0,62,63
 80 369 80 369 81 368 c 0,64,65
 85 364 85 364 90 267 c 0,66,67
 91 257 91 257 92 239 c 128,-1,68
 93 221 93 221 93.5 210 c 128,-1,69
 94 199 94 199 95 194 c 0,70,71
 99 172 99 172 99 158 c 0,72,73
 102 117 102 117 108 111 c 0,74,75
 109 110 109 110 111.5 113 c 128,-1,76
 114 116 114 116 117.5 122 c 128,-1,77
 121 128 121 128 124 134 c 0,78,79
 142 178 142 178 154 213 c 0,80,81
 154 214 154 214 164 230 c 0,82,83
 174 245 174 245 183 249 c 128,-1,84
 192 253 192 253 208 250 c 0,85,86
 222 248 222 248 227 238 c 0,87,88
 228 237 228 237 232 232.5 c 128,-1,89
 236 228 236 228 236 225 c 128,-1,90
 236 222 236 222 238.5 215 c 128,-1,91
 241 208 241 208 241 203 c 0,92,93
 242 189 242 189 244 180.5 c 128,-1,94
 246 172 246 172 249.5 162 c 128,-1,95
 253 152 253 152 256 142 c 0,96,97
 265 106 265 106 275 88 c 0,98,99
 282 75 282 75 284.5 75 c 128,-1,100
 287 75 287 75 295 83 c 0,101,102
 318 108 318 108 336 168 c 0,103,104
 346 202 346 202 347 249 c 0,105,106
 347 274 347 274 349.5 299.5 c 128,-1,107
 352 325 352 325 353 356 c 0,108,109
 354 403 354 403 350 407 c 0,110,111
 346 412 346 412 348 431 c 128,-1,112
 350 450 350 450 355 455 c 0,0,1
EndSplineSet
Validated: 33
EndChar

StartChar: x
Encoding: 120 120 90
Width: 511
GlyphClass: 2
Flags: W
LayerCount: 2
Fore
SplineSet
367 494 m 0,0,1
 373 496 373 496 386.5 494 c 128,-1,2
 400 492 400 492 400 488 c 0,3,4
 400 485 400 485 408 480 c 0,5,6
 428 467 428 467 429 451 c 0,7,8
 430 443 430 443 416 423.5 c 128,-1,9
 402 404 402 404 393 395 c 0,10,11
 384 385 384 385 351 342 c 0,12,13
 316 297 316 297 311.5 290.5 c 128,-1,14
 307 284 307 284 309 281 c 0,15,16
 315 271 315 271 339 257 c 0,17,18
 348 251 348 251 366 233 c 0,19,20
 411 188 411 188 450 117 c 0,21,22
 453 112 453 112 468 89 c 0,23,24
 471 81 471 81 471.5 78.5 c 128,-1,25
 472 76 472 76 467.5 67.5 c 128,-1,26
 463 59 463 59 463 58 c 0,27,28
 457 45 457 45 449 45 c 0,29,30
 447 45 447 45 439 39.5 c 128,-1,31
 431 34 431 34 429 35 c 128,-1,32
 427 36 427 36 422.5 36.5 c 128,-1,33
 418 37 418 37 414.5 38 c 128,-1,34
 411 39 411 39 409 41 c 0,35,36
 406 44 406 44 402 46 c 0,37,38
 400 46 400 46 388 65.5 c 128,-1,39
 376 85 376 85 364 106 c 128,-1,40
 352 127 352 127 351 128 c 0,41,42
 337 147 337 147 310.5 173.5 c 128,-1,43
 284 200 284 200 272 208 c 0,44,45
 266 212 266 212 261 217 c 128,-1,46
 256 222 256 222 251 218 c 0,47,48
 250 217 250 217 248.5 215.5 c 128,-1,49
 247 214 247 214 245.5 212.5 c 128,-1,50
 244 211 244 211 243 210 c 0,51,52
 237 201 237 201 205 165.5 c 128,-1,53
 173 130 173 130 170 126 c 0,54,55
 164 119 164 119 140 90 c 128,-1,56
 116 61 116 61 108 51 c 0,57,58
 86 23 86 23 75 19 c 128,-1,59
 64 15 64 15 48 26 c 0,60,61
 26 41 26 41 22 49.5 c 128,-1,62
 18 58 18 58 25 71 c 0,63,64
 37 95 37 95 53 111 c 0,65,66
 61 118 61 118 86 149 c 128,-1,67
 111 180 111 180 120 190 c 0,68,69
 133 203 133 203 139 212 c 0,70,71
 142 216 142 216 159 235 c 128,-1,72
 176 254 176 254 178 256 c 2,73,-1
 188 266 l 1,74,-1
 195 274 l 1,75,-1
 186 284 l 2,76,77
 178 294 178 294 174 294 c 0,78,79
 172 294 172 294 136 330 c 128,-1,80
 100 366 100 366 86 381 c 0,81,82
 74 395 74 395 74 396 c 0,83,84
 74 398 74 398 67 408 c 0,85,86
 60 419 60 419 60 427 c 0,87,88
 60 436 60 436 75 451 c 128,-1,89
 90 466 90 466 97 465 c 0,90,91
 106 464 106 464 117 455 c 0,92,93
 121 452 121 452 127 448.5 c 128,-1,94
 133 445 133 445 141 437 c 0,95,96
 162 416 162 416 203 378 c 128,-1,97
 244 340 244 340 246 340 c 0,98,99
 251 340 251 340 312 421 c 0,100,101
 330 443 330 443 332 446 c 0,102,103
 340 455 340 455 341 462 c 0,104,105
 342 468 342 468 349.5 475.5 c 128,-1,106
 357 483 357 483 359 485 c 0,107,108
 362 492 362 492 367 494 c 0,0,1
EndSplineSet
Validated: 33
EndChar

